<svg xmlns="http://www.w3.org/2000/svg" viewBox="0 -0.5 45 100" shape-rendering="crispEdges">
<metadata>Made with Pixels to Svg https://codepen.io/shshaw/pen/XbxvNj</metadata>
<path stroke="#000000" d="M20 2h6M15 3h5M26 3h4M14 4h1M30 4h4M12 5h2M34 5h1M10 6h2M35 6h2M9 7h1M37 7h1M7 8h2M38 8h2M6 9h1M40 9h1M5 10h1M41 10h1M4 11h1M42 11h1M3 12h1M43 12h1M4 13h3M42 13h1M7 14h2M40 14h2M9 15h2M38 15h2M11 16h1M37 16h1M11 17h1M36 17h1M11 18h1M36 18h1M11 19h1M36 19h1M10 20h1M36 20h1M10 21h1M36 21h1M10 22h1M36 22h1M10 23h1M36 23h1M10 24h1M36 24h1M9 25h3M16 25h15M35 25h2M9 26h1M36 26h1M9 27h1M36 27h1M8 28h1M36 28h1M7 29h1M37 29h1M7 30h1M38 30h1M6 31h1M20 31h5M38 31h1M6 32h1M20 32h5M38 32h1M6 33h1M18 33h4M25 33h2M38 33h1M6 34h1M18 34h4M25 34h2M38 34h1M7 35h1M16 35h4M25 35h4M38 35h1M8 36h2M16 36h4M25 36h4M37 36h1M9 37h1M16 37h4M25 37h4M36 37h1M9 38h1M16 38h4M25 38h4M36 38h2M9 39h1M16 39h4M25 39h4M36 39h1M38 39h1M9 40h1M16 40h4M25 40h4M36 40h1M38 40h1M9 41h1M16 41h4M25 41h4M36 41h1M38 41h1M9 42h1M18 42h2M23 42h4M36 42h1M38 42h1M9 43h1M18 43h2M23 43h4M36 43h2M9 44h1M20 44h5M36 44h2M8 45h2M20 45h5M36 45h2M7 46h1M9 46h1M36 46h2M6 47h1M9 47h1M36 47h1M38 47h1M7 48h1M9 48h1M36 48h1M38 48h1M7 49h1M9 49h1M36 49h1M38 49h1M7 50h1M9 50h1M38 50h1M8 51h1M10 51h26M37 51h1M8 52h1M36 52h1M6 53h3M36 53h1M5 54h1M36 54h1M4 55h1M36 55h1M38 55h2M4 56h1M37 56h1M40 56h1M5 57h1M8 57h1M41 57h1M6 58h2M9 58h2M41 58h1M10 59h1M35 59h1M40 59h1M9 60h1M34 60h1M36 60h4M9 61h1M35 61h1M9 62h1M21 62h1M35 62h1M8 63h1M20 63h2M35 63h1M8 64h1M20 64h2M24 64h1M35 64h1M9 65h4M20 65h2M24 65h1M36 65h1M20 66h2M24 66h1M36 66h1M13 67h1M20 67h2M24 67h1M31 67h5M13 68h1M20 68h2M24 68h1M31 68h1M13 69h1M20 69h2M24 69h1M31 69h1M13 70h1M20 70h2M24 70h1M31 70h1M13 71h1M20 71h1M22 71h1M24 71h1M31 71h1M13 72h1M20 72h1M22 72h1M24 72h1M31 72h1M13 73h1M19 73h1M22 73h1M25 73h1M31 73h1M35 73h1M13 74h1M19 74h1M23 74h1M31 74h1M34 74h1M36 74h1M12 75h1M19 75h1M24 75h1M32 75h2M36 75h1M12 76h1M19 76h1M25 76h1M35 76h1M12 77h1M18 77h1M26 77h1M34 77h1M12 78h1M18 78h1M26 78h1M33 78h1M12 79h1M18 79h1M26 79h1M32 79h1M11 80h1M18 80h1M26 80h1M33 80h1M11 81h1M18 81h1M27 81h1M33 81h1M11 82h1M18 82h1M27 82h1M33 82h1M11 83h1M18 83h1M27 83h1M33 83h1M11 84h1M18 84h1M27 84h1M34 84h1M10 85h1M18 85h1M27 85h1M34 85h1M10 86h1M18 86h1M27 86h1M34 86h1M10 87h1M18 87h1M27 87h1M34 87h1M10 88h1M18 88h1M27 88h1M34 88h1M10 89h1M18 89h1M27 89h1M35 89h1M10 90h1M18 90h1M27 90h1M35 90h1M10 91h1M18 91h1M27 91h1M35 91h1M10 92h1M18 92h1M27 92h1M35 92h1M10 93h1M18 93h1M27 93h1M35 93h1M10 94h1M18 94h1M27 94h1M35 94h1M10 95h1M18 95h1M27 95h1M35 95h1M10 96h1M18 96h1M28 96h1M35 96h1M11 97h1M18 97h1M28 97h1M35 97h1M12 98h1M17 98h1M29 98h1M34 98h1M13 99h4M30 99h4" />
<path stroke="#66555b" d="M20 3h5M15 4h12M14 5h14M33 5h1M12 6h2M15 6h14M34 6h1M10 7h3M14 7h16M35 7h2M9 8h3M14 8h5M20 8h3M24 8h6M36 8h2M7 9h4M15 9h3M19 9h4M24 9h4M29 9h1M37 9h3M6 10h5M15 10h1M18 10h1M20 10h2M23 10h5M29 10h2M38 10h3M5 11h6M12 11h2M15 11h1M18 11h1M29 11h1M39 11h2M14 12h2M18 12h1M14 13h2M18 13h4M24 13h3M30 13h1M14 14h1M18 14h4M24 14h3M30 14h1M14 15h1M18 15h3M24 15h3M14 16h1M18 16h3M24 16h3M14 17h1M16 17h1M29 17h1M14 18h1M14 19h1M14 20h1M14 23h1M14 24h1M14 25h1M14 26h1M14 27h1M14 28h1M14 29h1M32 29h1M14 30h2M31 30h2M13 31h3M31 31h2M13 32h3M31 32h3M13 33h3M31 33h3M13 34h3M31 34h3M13 35h2M32 35h2M14 36h1M32 36h2M37 49h1M37 50h1M9 51h1M36 51h1M22 52h3M27 52h4M27 53h4M20 54h5M33 54h2M27 55h4M36 56h1M22 68h2M22 69h2M22 70h2M23 71h1M23 72h1M23 73h2M24 74h1M35 74h1M25 75h1M34 75h2M33 76h2M33 77h1M34 93h1M12 94h5M30 94h1M32 94h1M34 94h1M34 95h1" />
<path stroke="#413540" d="M25 3h1M27 4h3M28 5h5M29 6h5M30 7h2M33 7h2M30 8h3M34 8h2M18 9h1M30 9h4M35 9h2M11 10h1M31 10h3M35 10h3M11 11h1M31 11h4M36 11h3M5 12h7M29 12h1M31 12h4M7 13h5M31 13h4M11 14h1M31 14h4M11 15h1M31 15h4M15 16h1M31 16h4M12 17h1M15 17h1M17 17h5M25 17h4M32 17h2M35 17h1M15 18h1M32 18h2M35 18h1M15 19h1M32 19h2M35 19h1M11 20h1M13 20h1M32 20h2M35 20h1M11 21h1M13 21h2M17 21h1M32 21h2M35 21h1M11 22h1M14 22h1M32 22h2M35 22h1M11 23h1M32 23h2M35 23h1M11 24h1M32 24h2M35 24h1M12 25h1M31 25h3M12 26h1M31 26h3M12 27h1M31 27h1M33 27h1M31 28h1M33 28h1M31 29h1M33 29h1M37 39h1M37 40h1M37 41h1M37 42h1M8 46h1M8 47h1M9 52h4M20 52h2M25 52h1M31 52h1M33 52h3M12 53h1M25 53h1M33 53h3M18 54h2M25 54h1M32 54h1M9 55h1M13 55h1M25 55h1M31 55h1M13 56h1M13 57h1M22 57h2M34 57h2M13 58h1M22 58h2M31 58h1M34 58h1M36 58h1M13 59h1M22 59h2M31 59h1M36 59h2M22 60h2M31 60h1M12 61h1M21 61h3M31 61h1M10 62h3M20 62h1M22 62h2M32 62h1M9 63h4M22 63h2M32 63h3M9 64h4M22 64h2M32 64h3M22 65h2M32 65h4M22 66h2M32 66h4M25 74h1M32 76h1M32 77h1" />
<path stroke="#554950" d="M14 6h1M13 7h1M12 8h1M19 8h1M23 8h1M11 9h1M23 9h1M28 9h1M22 10h1M28 10h1M22 11h1M41 11h1M4 12h1M12 12h2M16 12h1M22 12h1M27 12h1M12 13h2M16 13h1M22 13h1M27 13h1M9 14h2M12 14h2M15 14h1M22 14h1M27 14h1M12 15h2M15 15h1M21 15h1M27 15h1M30 15h1M12 16h2M21 16h1M27 16h1M30 16h1M13 17h1M24 17h1M13 18h1M13 19h1M13 22h1M13 23h1M15 23h1M13 24h1M15 24h1M13 25h1M15 25h1M13 26h1M15 26h1M13 27h1M15 27h1M32 27h1M9 28h1M13 28h1M15 28h1M32 28h1M13 29h1M15 29h1M13 30h1M33 30h1M33 31h1M8 35h1M26 52h1M9 53h1M13 53h5M26 53h1M31 53h1M8 54h4M10 55h1M26 55h1M9 56h1M33 56h3M9 57h1M36 57h1M11 58h1M24 58h1M24 59h1M34 59h1M15 60h1M17 60h1M24 60h1M26 60h1M28 60h1M19 61h1M24 61h1M30 61h1M24 62h1M24 63h1M22 67h2M11 93h1M17 93h1M28 93h1M28 94h1M31 94h1M28 95h1" />
<path stroke="#2a1c24" d="M32 7h1M33 8h1M34 9h1M34 10h1M35 11h1M35 12h8M35 13h7M35 14h5M35 15h3M35 16h2M30 17h2M34 17h1M12 18h1M31 18h1M34 18h1M12 19h1M16 19h5M26 19h6M34 19h1M12 20h1M15 20h1M31 20h1M34 20h1M12 21h1M15 21h1M18 21h2M27 21h3M31 21h1M34 21h1M12 22h1M15 22h1M31 22h1M34 22h1M12 23h1M31 23h1M34 23h1M12 24h1M31 24h1M34 24h1M34 25h1M34 26h1M34 27h1M37 47h1M37 48h1M36 50h1M18 52h2M32 52h1M32 53h1M35 54h1M32 56h1M13 60h1M13 61h1M13 62h1M31 62h1M13 63h1M31 63h1M13 64h1M31 64h1M13 65h1M31 65h1M13 66h1M31 66h1M32 78h1" />
<path stroke="#7f7c8c" d="M13 8h1M12 9h1M12 10h1M14 10h1M17 10h1M14 11h1M16 11h2M19 11h3M24 11h4M19 12h3M24 12h3M13 52h3M10 53h2M18 53h2M12 54h6M26 54h1M31 54h1M8 55h1M14 55h1M16 55h2M19 55h4M24 55h1M5 56h1M8 56h1M16 56h1M18 56h1M20 56h1M25 56h1M30 56h2M19 57h1M30 57h1M32 57h2M40 57h1M35 58h1M40 58h1M39 59h1M15 63h3M26 63h3M14 64h1M19 64h1M25 64h1M30 64h1M25 68h1M30 68h1M19 69h1M25 69h1M19 70h1M18 76h1M26 76h1M31 76h1M27 80h1M11 86h1M11 96h1M12 97h1M29 97h1M34 97h1" />
<path stroke="#6d6371" d="M13 9h2M13 10h1M16 10h1M19 10h1M30 11h1M30 12h1M9 35h1M13 36h1M7 47h1M8 48h1M8 49h1M8 50h1M6 55h2M11 55h1M18 55h1M23 55h1M32 55h1M35 55h1M6 56h2M10 56h3M10 57h3M21 57h1M38 57h2M12 58h1M20 58h2M32 58h2M38 58h2M11 59h2M20 59h2M32 59h2M10 60h3M14 60h1M16 60h1M18 60h1M20 60h2M25 60h1M27 60h1M29 60h1M32 60h2M10 61h2M14 61h5M20 61h1M25 61h5M32 61h3M14 62h6M25 62h6M33 62h2M14 63h1M18 63h2M25 63h1M29 63h2M30 69h1M25 70h1M30 70h1M19 71h1M25 71h1M30 71h1M19 72h1M25 72h1M13 75h1M31 75h1M12 80h1M32 80h1M33 84h1M11 85h1M34 89h1M11 94h1M17 94h1M29 94h1M33 94h1M11 95h7M29 95h5M12 96h6M29 96h6M13 97h5M30 97h4" />
<path stroke="#b66d6a" d="M23 11h1M28 11h1M17 12h1M23 12h1M28 12h1M23 13h1M28 13h1M16 14h1M28 14h1M22 15h1M28 15h1M22 16h1M28 16h1M22 17h1M16 24h1M30 24h1M10 34h1M35 35h1M36 36h1M14 56h1M14 57h1M17 57h2M24 57h1M27 57h2M14 58h6M25 58h5M14 59h6M25 59h6M19 60h1M30 60h1" />
<path stroke="#e18580" d="M17 13h1M29 13h1M23 14h1M29 14h1M16 15h1M23 15h1M29 15h1M16 16h1M23 16h1M29 16h1M23 17h1M16 22h1M30 22h1M17 23h3M27 23h3M10 28h1M34 28h2M36 29h1M11 30h1M11 32h1M37 32h1M11 33h1M34 34h1M36 35h2" />
<path stroke="#e1a3a2" d="M17 14h1M17 15h1M17 16h1M16 18h15M16 23h1M30 23h1M11 28h1M11 29h1M9 30h2M34 30h4M7 31h1M11 31h1M34 31h1M37 31h1M7 32h1M34 32h1M7 33h2M34 33h1M7 34h3M35 34h1" />
<path stroke="#f0d6cc" d="M21 19h5M16 20h1M20 20h7M30 20h1M17 24h3M27 24h3M37 33h1M37 34h1" />
<path stroke="#3882a0" d="M17 20h3M27 20h3" />
<path stroke="#fefefe" d="M16 21h1M20 21h1M26 21h1M30 21h1M17 22h3M27 22h3M10 26h2M16 26h15M35 26h1M10 27h2M16 27h15M35 27h1M12 28h1M16 28h15M12 29h1M16 29h15M12 30h1M16 30h15M12 31h1M16 31h4M25 31h6M12 32h1M16 32h4M25 32h6M12 33h1M16 33h2M22 33h3M27 33h4M11 34h2M16 34h2M22 34h3M27 34h4M10 35h3M15 35h1M20 35h5M29 35h3M34 35h1M10 36h3M15 36h1M20 36h5M29 36h3M34 36h2M10 37h6M20 37h5M29 37h7M10 38h6M20 38h5M29 38h7M10 39h6M20 39h5M29 39h7M10 40h6M20 40h5M29 40h7M10 41h6M20 41h5M29 41h7M10 42h8M20 42h3M27 42h9M10 43h8M20 43h3M27 43h9M10 44h10M25 44h11M10 45h10M25 45h11M10 46h26M10 47h26M10 48h26M10 49h26M10 50h26" />
<path stroke="#fee3d2" d="M21 21h5M20 22h7M20 23h7M20 24h7M8 29h3M34 29h2M8 30h1M8 31h3M35 31h2M8 32h3M35 32h2M9 33h2M35 33h2M36 34h1" />
<path stroke="#9296af" d="M16 52h2M20 53h5M6 54h2M27 54h4M5 55h1M12 55h1M15 55h1M33 55h2M15 56h1M17 56h1M19 56h1M21 56h4M26 56h4M38 56h2M6 57h2M15 57h2M20 57h1M25 57h2M29 57h1M31 57h1M37 57h1M30 58h1M37 58h1M38 59h1M15 64h4M26 64h4M14 65h6M25 65h6M14 66h6M25 66h6M14 67h6M25 67h6M14 68h6M26 68h4M14 69h5M26 69h4M14 70h5M26 70h4M14 71h5M26 71h4M14 72h5M26 72h5M14 73h5M26 73h5M14 74h5M26 74h5M14 75h5M26 75h5M13 76h5M27 76h4M13 77h5M27 77h5M13 78h5M27 78h5M13 79h5M27 79h5M13 80h5M28 80h4M12 81h6M28 81h5M12 82h6M28 82h5M12 83h6M28 83h5M12 84h6M28 84h5M12 85h6M28 85h6M12 86h6M28 86h6M11 87h7M28 87h6M11 88h7M28 88h6M11 89h7M28 89h6M11 90h7M28 90h7M11 91h7M28 91h7M11 92h7M28 92h7M12 93h5M29 93h5M13 98h4M30 98h4" />
</svg>