<svg xmlns="http://www.w3.org/2000/svg" viewBox="0 -0.5 45 100" shape-rendering="crispEdges">
<metadata>Made with Pixels to Svg https://codepen.io/shshaw/pen/XbxvNj</metadata>
<path stroke="#000000" d="M27 1h15M3 2h24M41 2h1M2 3h1M40 3h1M3 4h1M40 4h1M3 5h1M40 5h1M4 6h1M40 6h1M5 7h1M39 7h1M5 8h1M39 8h1M5 9h1M39 9h1M6 10h1M38 10h1M7 11h1M38 11h1M7 12h1M38 12h1M8 13h1M37 13h1M9 14h1M37 14h1M9 15h1M10 16h1M36 16h1M10 17h1M36 17h1M10 18h1M36 18h1M10 19h1M36 19h1M9 20h1M35 20h1M9 21h1M35 21h1M9 22h1M36 22h1M8 23h1M36 23h1M8 24h1M36 24h1M8 25h1M36 25h1M8 26h4M35 26h1M12 27h2M29 27h2M34 27h1M14 28h3M28 28h1M31 28h3M17 29h1M28 29h3M16 30h1M31 30h1M15 31h1M18 31h22M13 32h5M40 32h1M12 33h1M41 33h1M11 34h1M41 34h1M10 35h1M41 35h1M9 36h1M25 36h3M42 36h1M8 37h1M25 37h3M42 37h1M8 38h1M23 38h5M42 38h1M8 39h1M23 39h5M42 39h1M8 40h1M25 40h3M39 40h1M41 40h1M8 41h1M13 41h1M25 41h3M39 41h1M41 41h1M9 42h1M13 42h1M25 42h3M39 42h1M41 42h1M9 43h1M13 43h1M25 43h3M39 43h2M10 44h1M13 44h1M25 44h3M39 44h1M11 45h3M25 45h3M39 45h1M13 46h1M25 46h3M39 46h1M13 47h1M25 47h3M39 47h1M13 48h1M25 48h3M39 48h1M13 49h1M21 49h11M39 49h1M13 50h1M21 50h11M39 50h1M13 51h1M40 51h1M13 52h1M40 52h1M13 53h1M40 53h1M13 54h1M40 54h1M13 55h1M40 55h1M13 56h1M40 56h1M13 57h1M27 57h13M13 58h14M37 58h1M13 59h1M36 59h1M12 60h1M36 60h1M11 61h1M34 61h2M10 62h1M14 62h1M33 62h1M9 63h1M13 63h1M15 63h1M22 63h6M33 63h1M8 64h1M12 64h1M15 64h1M22 64h1M27 64h1M33 64h1M7 65h1M11 65h1M15 65h1M22 65h1M27 65h1M33 65h1M5 66h2M10 66h1M15 66h1M21 66h1M27 66h1M33 66h1M3 67h2M9 67h1M15 67h1M21 67h1M27 67h1M33 67h1M2 68h1M8 68h1M15 68h1M21 68h1M28 68h1M33 68h1M2 69h1M6 69h2M14 69h1M20 69h1M28 69h1M34 69h1M3 70h3M14 70h1M20 70h1M28 70h1M34 70h1M14 71h1M20 71h1M28 71h1M34 71h1M13 72h1M20 72h1M28 72h1M34 72h1M13 73h1M19 73h1M28 73h1M34 73h1M13 74h1M19 74h1M28 74h1M34 74h1M13 75h1M19 75h1M28 75h1M34 75h1M12 76h1M19 76h1M28 76h1M34 76h1M12 77h1M18 77h1M28 77h1M35 77h1M12 78h1M18 78h1M28 78h1M35 78h1M11 79h1M18 79h1M28 79h1M36 79h1M11 80h1M18 80h1M28 80h1M36 80h1M11 81h1M18 81h1M28 81h1M36 81h1M10 82h1M18 82h1M28 82h1M37 82h1M10 83h1M18 83h1M28 83h1M37 83h1M9 84h1M18 84h1M28 84h1M37 84h1M9 85h1M18 85h1M28 85h1M37 85h1M9 86h1M18 86h1M28 86h1M37 86h1M9 87h1M18 87h1M28 87h1M37 87h1M8 88h1M18 88h1M28 88h1M37 88h1M8 89h1M18 89h1M28 89h1M37 89h1M8 90h1M18 90h1M28 90h1M37 90h1M8 91h1M18 91h1M28 91h1M37 91h1M8 92h1M18 92h1M29 92h1M37 92h1M8 93h1M17 93h1M29 93h1M37 93h1M9 94h1M16 94h1M29 94h1M37 94h1M9 95h1M16 95h1M30 95h1M37 95h1M10 96h1M16 96h1M30 96h1M37 96h1M10 97h1M16 97h1M31 97h1M36 97h1M11 98h1M16 98h1M32 98h4M12 99h4" />
<path stroke="#296fa9" d="M27 2h1M3 3h1M27 3h2M4 4h2M28 4h4M4 5h3M29 5h4M5 6h3M30 6h2M33 6h2M6 7h3M31 7h2M34 7h3M6 8h5M32 8h2M35 8h2M7 9h5M32 9h2M35 9h2M8 10h5M33 10h2M9 11h5M33 11h2M9 12h5M33 12h3M10 13h3M33 13h3M11 14h2M34 14h2M12 15h1M34 15h2M11 16h1M14 16h1M35 16h1M11 17h1M13 17h2M35 17h1M14 18h1M35 18h1M14 19h1M10 20h1M13 20h2M17 20h1M12 21h3M32 21h1M12 22h3M32 22h1M9 23h1M11 23h4M33 23h1M10 24h4M33 24h1M9 25h5M33 25h1M12 26h2M33 26h1M33 27h1M18 30h4M14 59h1M23 59h1M13 60h1M22 60h1M24 60h2M12 61h3M16 61h1M11 62h3M18 62h6M10 63h3M9 64h3M8 65h3M7 66h3M5 67h4M3 68h5M3 69h3M13 76h1M13 77h2M14 78h1M11 95h5M34 95h2M33 96h2" />
<path stroke="#49acc6" d="M28 2h1M25 3h2M27 4h1M33 5h1M35 6h1M38 6h1M30 7h1M37 7h1M31 8h1M6 9h1M15 9h1M31 9h1M7 10h1M14 10h1M20 10h1M24 10h1M29 10h1M32 10h1M8 11h1M14 11h1M19 11h1M24 11h1M29 11h1M32 11h1M8 12h1M19 12h1M24 12h1M29 12h1M32 12h1M9 13h1M18 13h1M29 13h1M32 13h1M10 14h1M18 14h1M24 14h1M29 14h1M32 14h1M10 15h2M18 15h1M24 15h1M29 15h1M31 15h1M12 16h1M24 16h1M29 16h1M12 17h1M24 17h1M11 18h3M11 19h3M17 19h1M11 20h2M15 20h2M10 21h2M10 22h2M18 22h1M10 23h1M18 23h1M9 24h1M14 24h1M18 24h1M14 25h1M14 26h1M14 27h1M17 30h1M15 59h8M15 60h7M17 61h7M11 96h5M12 97h4M15 98h1" />
<path stroke="#9adbdc" d="M29 2h12M4 3h21M29 3h11M6 4h21M32 4h8M7 5h22M34 5h5M8 6h22M36 6h2M9 7h21M11 8h20M12 9h3M16 9h15M13 10h1M15 10h5M21 10h3M25 10h4M30 10h2M15 11h4M20 11h4M25 11h4M30 11h2M18 12h1M26 12h3M30 12h2M13 13h1M31 13h1M13 14h5M20 14h4M26 14h3M30 14h2M13 15h5M20 15h4M26 15h3M30 15h1M13 16h1M15 16h3M20 16h4M26 16h3M30 16h1M15 17h3M23 17h1M26 17h2M15 18h3M15 19h2M15 21h3M15 22h3M15 23h3M15 24h3M15 25h4M15 26h4M15 27h4M17 28h2" />
<path stroke="#23496e" d="M39 5h1M32 6h1M39 6h1M33 7h1M38 7h1M34 8h1M37 8h2M34 9h1M37 9h2M35 10h3M35 11h3M36 12h2M36 13h1M33 14h1M36 14h1M32 15h2M36 15h1M32 16h3M32 17h3M20 18h3M28 18h3M32 18h3M19 19h1M32 19h4M19 20h1M32 20h3M19 21h1M33 21h2M33 22h3M34 23h2M34 24h2M34 25h2M31 26h2M34 26h1M19 27h1M31 27h2M19 28h2M27 28h1M18 29h2M27 30h3M27 58h10M24 59h12M14 60h1M23 60h1M26 60h10M15 61h1M24 61h10M15 62h1M17 62h1M24 62h9M33 75h1M29 76h5M15 77h3M30 77h3M15 78h3M36 93h1M10 94h1M30 94h7M10 95h1M31 95h3M36 95h1M31 96h2M35 96h2" />
<path stroke="#c6f9ff" d="M14 12h1M17 12h1M20 12h1M14 13h1M17 13h1M20 13h1M24 13h1M26 13h1M28 13h1M30 13h1" />
<path stroke="#ffffff" d="M15 12h2M21 12h3M15 13h2M21 13h3M27 13h1M22 19h1M30 19h1M22 20h1M30 20h1M22 21h1M30 21h1M22 22h1M30 22h1M20 23h2M29 23h1M17 31h1M18 32h21M15 33h23M16 34h22M16 35h23M15 36h10M28 36h11M15 37h10M28 37h11M9 38h1M15 38h8M28 38h11M9 39h1M15 39h8M28 39h11M9 40h1M14 40h11M28 40h11M9 41h2M14 41h11M28 41h11M10 42h1M14 42h11M28 42h11M14 43h11M28 43h11M14 44h11M28 44h11M14 45h11M28 45h11M14 46h11M28 46h11M14 47h11M28 47h11M14 48h11M28 48h11M14 49h7M32 49h7M14 50h7M32 50h7M14 51h26M14 52h26M14 53h26M14 54h26M14 55h26M14 56h26M14 57h13M13 78h1M13 79h4M12 80h6M12 81h6M12 82h6M11 83h7M11 84h7M10 85h8M10 86h8M10 87h8M9 88h9M9 89h9M9 90h9M9 91h9M9 92h9M10 93h6M13 98h2" />
<path stroke="#b41817" d="M25 12h1M19 13h1M25 13h1M19 14h1M25 14h1M19 15h1M25 15h1M18 16h1M25 16h1M31 16h1M18 17h1M25 17h1M18 18h2M23 18h1M31 18h1M18 19h1M20 19h2M28 19h2M18 20h1M20 20h2M28 20h2M18 21h1M20 21h1M28 21h1M32 23h1M32 24h1M32 25h1M20 27h1M28 27h1M23 28h3M24 29h1M39 35h2M41 36h1M41 37h1M41 38h1M10 39h1M40 39h2M10 40h1M11 41h2" />
<path stroke="#e18176" d="M19 16h1M28 17h1M30 17h2M21 21h1M29 21h1M19 22h3M28 22h2M31 22h1M31 24h1M19 25h2M30 26h1M39 32h1M38 33h1M40 33h1M12 34h1M38 34h2M40 36h1M10 37h1M14 37h1M10 38h1M14 38h1M39 38h1M14 39h1M39 39h1M13 40h1M16 62h1M19 63h3M28 63h5M28 64h5M28 65h5M28 66h5M28 67h5M29 68h4M29 69h5M29 70h5M29 71h5M29 72h5M29 73h5M29 74h5M29 75h4" />
<path stroke="#f6a39b" d="M19 17h4M29 17h1M24 18h4M23 19h1M31 19h1M31 23h1M19 24h3M30 24h1M21 25h1M30 25h2M19 26h1M24 26h3M29 26h1M21 27h1M27 27h1M13 33h2M39 33h1M15 34h1M40 34h1M15 35h1M10 36h1M13 36h2M39 36h1M39 37h2M40 38h1M13 39h1M11 40h2M16 63h3M16 64h6M20 65h2M20 66h1M20 67h1M20 68h1M15 69h1M14 72h1M19 72h1M18 75h1M18 76h1" />
<path stroke="#f1e6df" d="M24 19h4M23 20h5M31 20h1M23 21h5M31 21h1M23 22h5M19 23h1M22 23h7M30 23h1M22 24h8M22 25h8M20 26h4M27 26h2M22 27h5M13 34h2M11 35h4M11 36h2M11 37h3M11 38h3M11 39h2M16 65h4M16 66h4M16 67h4M16 68h4M16 69h4M15 70h5M15 71h5M15 72h4M14 73h5M14 74h5M14 75h4M14 76h4" />
<path stroke="#82797c" d="M21 28h2M26 28h1M20 29h1M23 29h1M26 29h2M22 30h1M26 30h1M40 42h1M35 79h1M36 82h1M29 90h1M36 90h1M29 91h1M36 91h1M36 92h1M30 93h1M35 93h1" />
<path stroke="#a19b9a" d="M21 29h2M25 29h1M23 30h3M40 40h1M40 41h1M12 42h1M10 43h1M12 43h1M11 44h2" />
<path stroke="#5c595d" d="M30 30h1" />
<path stroke="#cfbebf" d="M16 31h1M9 37h1M11 42h1M11 43h1M29 77h1M33 77h2M29 78h6M12 79h1M17 79h1M29 79h6M29 80h7M29 81h7M11 82h1M29 82h7M29 83h8M10 84h1M29 84h8M29 85h8M29 86h8M29 87h8M29 88h8M29 89h8M30 90h6M30 91h6M30 92h6M9 93h1M16 93h1M31 93h4M11 94h5M11 97h1M32 97h4M12 98h1" />
</svg>