<svg xmlns="http://www.w3.org/2000/svg" viewBox="0 -0.5 45 100" shape-rendering="crispEdges">
<metadata>Made with Pixels to Svg https://codepen.io/shshaw/pen/XbxvNj</metadata>
<path stroke="#010101" d="M20 1h5M11 2h9M25 2h6M5 3h6M31 3h3M4 4h1M34 4h3M4 5h1M37 5h3M4 6h1M40 6h2M5 7h1M42 7h2M5 8h1M44 8h1M6 9h1M44 9h1M7 10h1M43 10h1M7 11h1M42 11h1M8 12h1M41 12h1M7 13h1M42 13h1M6 14h1M43 14h1M6 15h1M44 15h1M6 16h1M44 16h1M7 17h1M44 17h1M7 18h1M43 18h1M7 19h1M43 19h1M8 20h1M42 20h1M9 21h1M41 21h1M10 22h1M41 22h1M10 23h1M40 23h1M10 24h1M39 24h1M9 25h1M38 25h1M9 26h1M39 26h1M9 27h1M40 27h1M8 28h1M40 28h1M8 29h1M41 29h1M8 30h1M41 30h1M7 31h27M40 31h1M7 32h1M33 32h1M39 32h1M7 33h1M33 33h1M38 33h1M7 34h1M33 34h1M37 34h1M7 35h1M33 35h1M37 35h1M7 36h1M33 36h1M37 36h1M6 37h1M14 37h9M33 37h2M37 37h1M6 38h1M14 38h9M32 38h1M35 38h1M37 38h1M6 39h1M12 39h4M21 39h4M32 39h1M36 39h1M6 40h1M12 40h4M21 40h4M32 40h1M6 41h1M21 41h4M32 41h1M6 42h1M21 42h4M32 42h1M6 43h1M18 43h5M32 43h1M38 43h1M6 44h1M14 44h9M32 44h1M37 44h1M39 44h1M6 45h1M14 45h6M32 45h1M37 45h1M39 45h1M6 46h1M12 46h4M32 46h1M37 46h1M39 46h1M6 47h1M12 47h4M32 47h1M37 47h1M39 47h1M6 48h1M12 48h4M32 48h1M36 48h1M39 48h1M5 49h1M12 49h4M32 49h1M36 49h1M39 49h1M5 50h1M12 50h13M32 50h1M36 50h1M38 50h1M5 51h1M12 51h13M31 51h1M35 51h1M38 51h1M5 52h1M31 52h1M34 52h1M38 52h1M5 53h1M31 53h1M33 53h1M37 53h1M5 54h1M31 54h2M36 54h1M5 55h1M31 55h2M35 55h1M5 56h1M31 56h2M34 56h1M5 57h1M12 57h10M31 57h3M6 58h1M28 58h5M7 59h3M32 59h1M10 60h2M32 60h1M12 61h1M31 61h1M13 62h1M22 62h2M31 62h1M13 63h1M21 63h1M24 63h1M31 63h1M13 64h1M21 64h1M24 64h1M31 64h1M13 65h1M21 65h1M24 65h1M31 65h1M13 66h1M21 66h1M24 66h1M31 66h1M14 67h1M21 67h1M25 67h1M31 67h1M14 68h1M21 68h1M25 68h1M31 68h1M14 69h1M21 69h1M25 69h1M31 69h1M14 70h1M21 70h1M25 70h1M32 70h1M14 71h1M21 71h1M25 71h1M32 71h1M15 72h1M21 72h1M26 72h1M32 72h1M15 73h1M21 73h1M26 73h1M32 73h1M15 74h1M21 74h1M26 74h1M32 74h1M15 75h1M22 75h1M26 75h1M33 75h1M15 76h1M22 76h1M26 76h1M33 76h1M15 77h1M22 77h1M27 77h1M33 77h1M15 78h1M22 78h1M27 78h1M33 78h1M15 79h1M22 79h1M27 79h1M34 79h1M15 80h1M22 80h1M27 80h1M34 80h1M15 81h1M22 81h1M27 81h1M34 81h1M15 82h1M22 82h1M28 82h1M34 82h1M15 83h1M22 83h1M28 83h1M35 83h1M15 84h1M22 84h1M28 84h1M35 84h1M15 85h1M22 85h1M28 85h1M35 85h1M15 86h1M22 86h1M28 86h1M35 86h1M15 87h1M23 87h1M29 87h1M36 87h1M15 88h1M23 88h1M29 88h1M36 88h1M15 89h1M23 89h1M29 89h1M36 89h1M15 90h1M23 90h1M29 90h1M36 90h1M15 91h1M23 91h1M29 91h1M37 91h1M15 92h1M23 92h1M30 92h1M37 92h1M14 93h1M23 93h1M30 93h1M37 93h1M14 94h1M23 94h1M30 94h1M37 94h1M14 95h1M22 95h1M30 95h1M37 95h1M14 96h1M22 96h1M30 96h1M37 96h1M14 97h1M19 97h3M30 97h1M37 97h1M15 98h4M31 98h1M36 98h1M32 99h4" />
<path stroke="#a82414" d="M20 2h5M17 3h1M25 3h2M16 4h1M27 4h1M7 14h1M10 16h1M10 17h1M41 18h1M8 19h1M39 21h1M37 24h2M13 59h2M12 60h1M15 61h1M25 61h1M16 62h5M36 93h1M31 94h5M31 95h1" />
<path stroke="#875b65" d="M11 3h1M15 3h1M15 4h1M17 4h1M25 4h2M14 5h1M27 5h1M5 6h1M13 6h1M28 6h1M33 6h1M6 7h1M12 7h1M34 7h1M6 8h1M12 8h1M29 8h1M36 8h2M7 9h1M8 10h1M8 11h1M9 12h1M10 13h1M17 13h1M22 13h1M26 13h1M10 14h1M17 14h1M22 14h1M26 14h1M17 15h1M22 15h1M26 15h1M29 15h1M14 16h3M22 16h1M26 16h1M29 16h1M11 17h1M22 17h1M21 18h1M28 18h1M11 19h1M13 19h1M20 19h1M16 20h2M24 20h3M12 21h1M17 21h1M25 21h2M12 22h1M16 22h2M24 22h3M11 23h1M11 24h1M13 24h1M11 25h1M13 25h1M11 26h1M11 27h1M10 28h1M10 29h1M10 30h1M38 45h1M38 46h1M38 47h1M38 48h1M37 49h1M37 50h1M36 51h2M36 52h1M35 53h1M34 54h1M33 55h1" />
<path stroke="#997a88" d="M12 3h3M5 4h10M18 4h7M31 4h3M6 5h8M15 5h12M32 5h5M8 6h5M14 6h14M34 6h6M10 7h2M13 7h16M35 7h7M13 8h16M12 9h18M11 10h1M15 10h15M15 11h1M20 11h3M27 11h3M11 12h1M14 12h1M20 12h3M27 12h3M11 13h6M18 13h4M23 13h3M27 13h3M11 14h6M18 14h4M23 14h3M27 14h3M11 15h6M18 15h4M23 15h3M27 15h2M11 16h3M18 16h4M23 16h3M27 16h2M12 17h2M18 17h4M28 17h1M12 18h2M19 18h2M12 19h1M19 19h1M28 19h1M12 20h1M28 20h1M38 20h1M28 21h1M37 21h1M28 22h1M37 22h1M28 23h1M36 23h1M28 24h1M28 25h1M12 26h1M28 26h1M12 27h1M28 27h1M39 27h1M12 28h1M18 28h2M28 28h1M38 28h2M11 29h1M17 29h2M28 29h1M37 29h2M11 30h1M16 30h2M28 30h1M12 59h1M30 59h1M13 60h1M25 60h1M27 60h3M14 64h1M19 64h1M15 71h1M21 75h1M22 87h1" />
<path stroke="#5d3d4f" d="M16 3h1M30 3h1M5 5h1M28 5h1M6 6h2M29 6h2M32 6h1M7 7h3M29 7h2M32 7h2M7 8h5M30 8h2M33 8h3M38 8h1M8 9h4M30 9h2M9 10h2M30 10h2M42 10h1M9 11h2M30 11h2M41 11h1M10 12h1M30 12h2M40 12h1M8 13h2M30 13h2M39 13h1M30 14h2M38 14h1M10 15h1M30 15h2M37 15h1M30 16h2M36 16h1M29 17h3M35 17h1M11 18h1M15 18h3M23 18h3M30 18h2M34 18h1M14 19h1M16 19h2M22 19h1M24 19h4M29 19h1M31 19h1M34 19h1M11 20h1M27 20h1M29 20h2M34 20h1M27 21h1M29 21h2M11 22h1M29 22h2M12 23h1M29 23h2M12 24h1M29 24h3M12 25h1M14 25h1M29 25h3M10 26h1M13 26h1M29 26h3M10 27h1M29 27h3M9 28h1M11 28h1M29 28h3M9 29h1M12 29h1M29 29h3M9 30h1M12 30h1M29 30h2M38 44h1M37 48h1M38 49h1M35 52h1M37 52h1M34 53h1M36 53h1M33 54h1M35 54h1M34 55h1M30 61h1" />
<path stroke="#e12f13" d="M18 3h7M41 13h1M7 15h1M9 15h1M7 16h1M9 16h1M43 16h1M8 17h1M42 17h2M8 18h1M42 18h1M9 19h1M41 19h2M9 20h1M40 20h2M40 21h1M39 22h2M38 23h2M15 59h7M16 61h9M36 94h1M32 95h5M31 96h6M31 97h6M32 98h4" />
<path stroke="#69060c" d="M27 3h1M28 4h2M29 5h2M31 6h1M9 14h1M40 14h2M39 15h2M42 15h1M38 16h3M42 16h1M37 17h3M41 17h1M36 18h3M40 18h1M36 19h3M40 19h1M10 20h1M36 20h2M39 20h1M10 21h1M36 21h1M38 21h1M36 22h1M38 22h1M37 23h1M36 24h1M37 25h1M27 26h1M37 26h2M25 27h1M37 27h2M20 28h2M24 28h1M37 28h1M19 29h3M24 29h1M39 29h2M18 30h3M23 30h1M38 30h3M38 31h2M33 56h1M11 58h11M10 59h2M28 59h2M31 59h1M26 60h1M30 60h2M13 61h2M26 61h4M21 62h1M24 62h4M22 92h1M15 93h8M15 94h8M15 95h7M15 96h7M15 97h4" />
<path stroke="#3c252f" d="M28 3h2M30 4h1M31 5h1M31 7h1M32 8h1M39 8h5M32 9h12M32 10h10M32 11h9M32 12h8M32 13h7M40 13h1M32 14h6M39 14h1M32 15h5M38 15h1M32 16h4M37 16h1M32 17h3M36 17h1M26 18h1M29 18h1M32 18h2M35 18h1M30 19h1M32 19h2M35 19h1M13 20h1M31 20h3M35 20h1M11 21h1M13 21h1M31 21h5M13 22h1M31 22h5M13 23h1M31 23h5M32 24h4M10 25h1M32 25h5M14 26h3M32 26h5M13 27h6M32 27h5M13 28h5M32 28h5M13 29h4M32 29h5M13 30h3M31 30h7M34 31h4M34 32h5M34 33h4M34 34h3M34 35h3M34 36h3M35 37h2M36 38h1" />
<path stroke="#baaeb3" d="M12 10h1M11 11h1M14 11h1M17 11h1M25 11h1M13 12h1M17 12h1M25 12h1M41 15h1M41 16h1M40 17h1M39 18h1M15 19h1M23 19h1M39 19h1M16 21h1M26 27h2M25 28h1M21 30h2M24 30h1M14 60h1M23 60h2M20 64h1M19 65h2M25 65h4M20 66h1M16 82h1M16 83h1M16 84h1M16 85h1M16 86h1M16 87h1M16 88h1M16 89h1M16 90h1M16 91h1M16 92h1" />
<path stroke="#cfc4d1" d="M13 10h2M12 11h2M16 11h1M18 11h2M23 11h2M26 11h1M12 12h1M15 12h2M18 12h2M23 12h2M26 12h1M8 14h1M10 18h1M10 19h1M30 64h1M14 65h5M29 65h1M14 66h6M25 66h3M15 67h6M15 68h6M15 69h6M15 70h6M31 70h1M16 71h5M16 72h5M16 73h5M16 74h5M16 75h5M32 75h1M16 76h6M27 76h1M16 77h6M16 78h6M16 79h6M16 80h6M28 80h1M16 81h6M28 81h1M17 82h5M17 83h5M17 84h5M17 85h5M29 85h1M17 86h5M29 86h1M17 87h5M17 88h6M17 89h6M30 89h1M17 90h6M30 90h1M17 91h6M30 91h1M36 91h1M17 92h5M31 92h1M36 92h1M31 93h1" />
<path stroke="#fefefe" d="M42 14h1M8 15h1M8 16h1M9 17h1M9 18h1M15 20h1M23 20h1M15 21h1M23 21h2M15 22h1M23 22h1M16 23h2M24 23h3M26 28h2M25 29h3M25 30h3M8 32h25M8 33h25M8 34h25M8 35h25M8 36h25M7 37h7M23 37h10M7 38h7M23 38h9M7 39h5M16 39h5M25 39h7M7 40h5M16 40h5M25 40h7M7 41h14M25 41h7M7 42h14M25 42h7M7 43h11M23 43h9M7 44h7M23 44h9M7 45h7M20 45h12M7 46h5M16 46h16M7 47h5M16 47h16M7 48h5M16 48h16M6 49h6M16 49h16M6 50h6M25 50h7M6 51h6M25 51h6M6 52h25M6 53h25M11 54h20M12 55h11M28 55h3M12 56h10M29 56h2M29 57h2M15 60h8M30 65h1M28 66h3M26 67h5M26 68h5M26 69h5M26 70h5M26 71h6M27 72h5M27 73h5M27 74h5M27 75h5M28 76h5M28 77h5M28 78h5M28 79h6M29 80h5M29 81h5M29 82h5M29 83h6M29 84h6M30 85h5M30 86h5M30 87h6M30 88h6M31 89h5M31 90h5M31 91h5M32 92h4M32 93h4" />
<path stroke="#e5655e" d="M43 15h1M17 16h1M14 17h3M23 17h1M27 17h1M14 18h1M22 18h1M27 18h1M14 20h1M14 21h1M14 22h1M22 28h2M22 29h2M11 57h1M22 59h1M27 59h1M14 62h2M28 62h3M14 63h7M25 63h6M15 64h4M25 64h5" />
<path stroke="#ef9689" d="M17 17h1M24 17h3M18 18h1M18 19h1M21 19h1M27 22h1M14 23h1M27 23h1M14 24h2M25 24h3M27 25h1M21 26h2M26 26h1M19 27h1M24 27h1M7 54h1M25 55h2M11 56h1M22 56h1M28 56h1M7 57h1M28 57h1M7 58h4M25 58h1M23 59h4" />
<path stroke="#f1cdcc" d="M18 20h1M22 20h1M15 23h1M16 24h1M15 25h1M17 26h1M25 26h1M20 27h1M23 27h1M6 54h1M8 54h3M7 55h1M11 55h1M23 55h2M27 55h1M7 56h1M25 56h2M6 57h1M8 57h3M25 57h2M22 58h3M26 58h2" />
<path stroke="#f5eae7" d="M19 20h3M18 21h5M18 22h5M18 23h6M17 24h8M16 25h11M18 26h3M23 26h2M21 27h2M6 55h1M8 55h3M6 56h1M8 56h3M23 56h2M27 56h1M22 57h3M27 57h1" />
</svg>