<svg xmlns="http://www.w3.org/2000/svg" viewBox="0 -0.5 45 100" shape-rendering="crispEdges">
<metadata>Made with Pixels to Svg https://codepen.io/shshaw/pen/XbxvNj</metadata>
<path stroke="#000000" d="M20 3h7M9 4h11M27 4h9M6 5h3M36 5h4M4 6h2M40 6h3M3 7h1M43 7h1M4 8h1M42 8h1M5 9h1M41 9h1M6 10h1M41 10h1M6 11h1M40 11h1M7 12h1M39 12h1M8 13h1M38 13h1M9 14h1M37 14h1M10 15h1M36 15h1M11 16h2M35 16h1M12 17h1M34 17h1M11 18h2M35 18h1M9 19h2M36 19h2M8 20h1M38 20h1M7 21h1M39 21h1M7 22h1M39 22h1M7 23h1M39 23h1M7 24h1M39 24h1M7 25h1M38 25h1M40 25h1M7 26h1M37 26h2M40 26h1M7 27h1M37 27h2M40 27h1M6 28h1M8 28h1M37 28h2M40 28h1M6 29h1M8 29h2M37 29h2M40 29h1M6 30h1M8 30h1M10 30h1M36 30h1M38 30h1M40 30h1M6 31h1M8 31h1M10 31h1M36 31h1M38 31h1M40 31h1M6 32h1M8 32h1M10 32h1M36 32h1M38 32h1M40 32h1M5 33h1M8 33h1M10 33h1M36 33h1M38 33h1M40 33h1M5 34h1M8 34h1M10 34h1M36 34h1M38 34h1M40 34h1M5 35h1M8 35h1M10 35h1M36 35h1M38 35h1M40 35h1M5 36h1M8 36h1M10 36h1M36 36h2M40 36h1M5 37h1M8 37h1M10 37h1M36 37h2M40 37h1M5 38h1M8 38h2M36 38h2M40 38h1M5 39h1M7 39h28M36 39h2M40 39h1M5 40h1M7 40h2M34 40h2M37 40h1M40 40h1M5 41h1M7 41h2M34 41h1M37 41h1M40 41h1M5 42h1M8 42h1M34 42h1M37 42h1M40 42h1M6 43h1M8 43h1M34 43h1M37 43h1M39 43h1M6 44h1M8 44h1M34 44h1M37 44h1M39 44h1M7 45h2M16 45h11M34 45h1M37 45h2M8 46h1M16 46h11M34 46h1M37 46h1M8 47h1M21 47h4M34 47h1M8 48h1M21 48h4M34 48h1M8 49h1M19 49h4M34 49h1M8 50h1M19 50h4M34 50h1M8 51h1M17 51h8M34 51h1M8 52h1M17 52h8M34 52h1M8 53h1M23 53h4M34 53h1M8 54h1M23 54h4M34 54h1M8 55h1M23 55h4M34 55h1M8 56h1M14 56h4M23 56h4M34 56h1M8 57h1M14 57h4M23 57h4M34 57h1M8 58h1M16 58h9M34 58h1M8 59h1M16 59h9M34 59h1M8 60h1M34 60h1M8 61h1M34 61h1M8 62h1M34 62h1M8 63h1M34 63h1M8 64h1M34 64h1M8 65h27M13 66h1M19 66h1M23 66h1M26 66h1M32 66h1M13 67h1M19 67h1M23 67h1M26 67h1M32 67h1M13 68h1M18 68h1M23 68h1M32 68h1M13 69h1M18 69h1M24 69h1M32 69h1M13 70h1M18 70h1M24 70h1M32 70h1M12 71h1M18 71h1M25 71h1M33 71h1M12 72h1M18 72h1M25 72h1M33 72h1M12 73h1M18 73h1M26 73h1M33 73h1M12 74h1M18 74h1M26 74h1M34 74h1M12 75h1M18 75h1M27 75h1M34 75h1M12 76h1M18 76h1M27 76h1M34 76h1M12 77h1M18 77h1M27 77h1M34 77h1M12 78h1M18 78h1M27 78h1M34 78h1M12 79h1M18 79h1M28 79h1M34 79h1M11 80h1M18 80h1M28 80h1M35 80h1M11 81h1M18 81h1M28 81h1M36 81h1M11 82h1M18 82h1M28 82h1M37 82h2M11 83h1M18 83h1M28 83h1M39 83h1M11 84h1M18 84h1M28 84h1M35 84h2M40 84h2M11 85h1M18 85h1M28 85h1M35 85h1M37 85h2M42 85h1M11 86h1M18 86h1M28 86h1M36 86h1M39 86h3M11 87h1M18 87h1M28 87h1M36 87h1M10 88h1M18 88h1M28 88h1M36 88h1M10 89h1M18 89h1M28 89h1M36 89h1M10 90h1M18 90h1M28 90h1M36 90h1M10 91h1M18 91h1M28 91h1M36 91h1M10 92h1M18 92h1M28 92h1M36 92h1M10 93h1M18 93h1M28 93h1M36 93h1M10 94h1M18 94h1M28 94h2M36 94h1M10 95h1M18 95h1M29 95h1M36 95h1M11 96h1M17 96h1M29 96h1M36 96h1M11 97h1M17 97h1M29 97h1M35 97h1M12 98h1M16 98h1M30 98h1M34 98h1M13 99h3M31 99h3" />
<path stroke="#6c6d8b" d="M20 4h7M9 5h6M17 5h11M32 5h4M6 6h8M15 6h13M33 6h7M7 7h7M15 7h13M35 7h4M11 8h2M14 8h15M14 9h15M15 10h13M15 11h2M18 11h3M26 11h1M8 12h1M14 12h3M18 12h3M26 12h1M9 13h1M14 13h3M18 13h2M21 13h6M10 14h1M14 14h3M18 14h2M21 14h6M11 15h1M15 15h2M21 15h6M15 16h2M18 16h2M22 16h4M13 17h1M16 17h1M19 17h1M22 17h4M13 18h1M16 18h1M22 18h4M13 19h1M23 19h2M13 20h1M23 20h2M13 21h1M13 22h1M13 23h1M13 24h1M13 25h1M13 26h1M13 27h2M33 27h1M13 28h2M32 28h2M13 29h2M32 29h2M14 30h1M32 30h1M14 31h1M32 31h1M33 74h1M33 75h1M33 76h1M33 77h1M33 78h1M33 79h1M33 80h2M33 81h2M33 82h2M34 83h1M34 84h1M34 85h1M34 86h1M34 87h1M34 88h1M34 89h1M34 90h1M34 91h1M34 92h1M34 93h1" />
<path stroke="#5d5771" d="M15 5h2M28 5h1M31 5h1M14 6h1M28 6h2M14 7h1M28 7h3M34 7h1M10 8h1M13 8h1M29 8h2M35 8h2M41 8h1M13 9h1M29 9h1M31 9h1M13 10h1M28 10h1M31 10h1M28 11h1M32 11h1M39 11h1M27 12h1M32 12h1M38 12h1M17 13h1M20 13h1M27 13h1M32 13h1M37 13h1M11 14h1M17 14h1M20 14h1M32 14h1M36 14h1M13 15h1M32 15h1M35 15h1M13 16h1M17 16h1M20 16h2M26 16h1M31 16h1M14 17h1M18 17h1M21 17h1M26 17h1M14 18h1M19 18h1M21 18h1M26 18h1M30 18h1M11 19h1M14 19h1M16 19h1M22 19h1M25 19h1M14 20h1M25 20h1M14 21h1M23 21h2M14 22h1M14 23h1M33 23h1M14 24h1M33 24h1M14 25h1M33 25h1M14 26h1M33 26h1M32 27h1M13 30h1M33 30h1M13 31h1M33 31h1M13 32h2M32 32h2M13 33h2M32 33h2M13 34h1M32 34h2M14 35h1M32 35h1M14 36h1M14 37h1M13 74h5M29 74h3M13 75h1M13 76h1M13 77h1M13 78h1M13 79h1M12 80h1M12 81h1M12 82h1M12 83h1M33 83h1M12 84h1M33 84h1M12 85h1M33 85h1M12 86h1M33 86h1M35 86h1M12 87h1M33 87h1M35 87h1M11 88h1M33 88h1M35 88h1M11 89h1M33 89h1M35 89h1M11 90h1M35 90h1M11 91h1M35 91h1M17 92h1M35 92h1M11 93h1M35 93h1M12 94h5M34 94h1M30 95h4" />
<path stroke="#3a3855" d="M29 5h2M30 6h3M4 7h3M31 7h3M39 7h4M5 8h5M31 8h4M37 8h4M6 9h7M30 9h1M32 9h9M7 10h6M29 10h2M32 10h9M7 11h7M29 11h3M33 11h6M9 12h5M28 12h4M33 12h5M10 13h4M28 13h4M33 13h4M12 14h2M27 14h5M33 14h3M12 15h1M14 15h1M17 15h4M27 15h5M33 15h2M14 16h1M27 16h3M32 16h3M15 17h1M28 17h2M31 17h3M15 18h1M28 18h1M31 18h4M12 19h1M15 19h1M32 19h4M11 20h2M15 20h1M32 20h3M12 21h1M15 21h2M31 21h4M12 22h1M15 22h2M31 22h4M12 23h1M15 23h1M32 23h1M34 23h1M15 24h1M32 24h1M34 24h1M15 25h2M31 25h2M34 25h1M39 25h1M8 26h1M15 26h2M31 26h2M34 26h1M39 26h1M8 27h2M16 27h3M29 27h2M34 27h1M36 27h1M39 27h1M7 28h1M9 28h2M16 28h5M27 28h4M34 28h3M39 28h1M7 29h1M10 29h2M18 29h2M21 29h1M27 29h2M34 29h3M39 29h1M7 30h1M11 30h2M34 30h2M39 30h1M7 31h1M11 31h2M34 31h2M39 31h1M7 32h1M11 32h2M34 32h2M39 32h1M6 33h2M11 33h2M31 33h1M34 33h2M39 33h1M6 34h2M11 34h2M15 34h2M31 34h1M34 34h2M39 34h1M6 35h2M11 35h2M15 35h2M30 35h1M33 35h3M39 35h1M6 36h2M11 36h1M13 36h1M15 36h2M30 36h2M33 36h3M38 36h2M6 37h2M12 37h2M15 37h2M29 37h3M33 37h3M38 37h2M6 38h2M11 38h7M29 38h4M34 38h2M38 38h2M6 39h1M35 39h1M38 39h2M6 40h1M38 40h2M6 41h1M38 41h2M6 42h2M38 42h2M7 43h1M38 43h1M7 44h1M38 44h1M24 66h2M24 67h2M24 68h3M25 69h2M25 70h2M26 71h1M26 72h2M27 73h1M27 74h2M32 74h1M14 75h4M28 75h5M14 76h4M28 76h5M14 77h4M28 77h5M14 78h4M28 78h5M14 79h4M29 79h4M13 80h5M29 80h4M13 81h5M29 81h4M35 81h1M13 82h5M29 82h4M35 82h2M13 83h5M29 83h4M35 83h4M13 84h5M29 84h4M37 84h3M13 85h5M29 85h4M39 85h3M13 86h5M29 86h4M13 87h5M29 87h4M12 88h6M29 88h4M12 89h6M29 89h4M12 90h6M29 90h5M12 91h6M29 91h5M11 92h6M29 92h5M12 93h6M29 93h5M11 94h1M17 94h1M30 94h4M35 94h1M11 95h1M16 95h2M34 95h2M12 96h5M30 96h1M35 96h1M12 97h5M30 97h5M13 98h3M31 98h3" />
<path stroke="#9194ac" d="M14 10h1M14 11h1M17 11h1M21 11h5M27 11h1M17 12h1M21 12h5" />
<path stroke="#b16362" d="M30 16h1M17 17h1M20 17h1M27 17h1M30 17h1M17 18h1M20 18h1M27 18h1M29 18h1M21 19h1M26 19h2M30 19h2M16 20h1M26 20h1M31 20h1M30 26h1M28 27h1M21 28h1M26 28h1M22 29h4M20 30h7M28 30h1M27 68h1M27 69h1M27 70h1M27 71h1" />
<path stroke="#f29b8e" d="M18 18h1M17 19h4M28 19h2M17 20h1M20 20h3M27 20h2M30 20h1M21 21h2M25 21h2M21 22h1M26 22h1M16 23h1M18 23h1M29 23h1M31 23h1M18 25h2M28 25h2M17 26h1M19 27h1M22 28h1M25 28h1M18 66h1M31 66h1M18 67h1M31 67h1M14 68h1M30 68h2M14 69h4M28 69h4M14 70h4M28 70h4M14 71h4M28 71h5M14 72h4M28 72h4M14 73h4M28 73h4" />
<path stroke="#681141" d="M9 20h2M35 20h3M11 21h1M17 21h4M27 21h4M35 21h1M35 22h1M11 23h1M35 23h1M12 24h1M35 24h1M38 24h1M8 25h1M12 25h1M35 25h1M37 25h1M9 26h1M12 26h1M35 26h2M10 27h1M12 27h1M15 27h1M31 27h1M35 27h1M11 28h2M15 28h1M31 28h1M12 29h1M15 29h3M29 29h3M15 30h3M29 30h3M15 31h2M18 31h10M29 31h3M15 32h1M17 32h2M28 32h1M30 32h2M16 33h2M29 33h1M29 34h1M12 95h4M31 96h4" />
<path stroke="#edbcbc" d="M18 20h2M29 20h1M22 22h4M16 24h2M30 24h2M17 25h1M30 25h1M27 27h1M23 28h2M14 66h1M27 66h1M14 67h1M27 67h1M15 68h3M28 68h2M13 71h1M13 72h1M32 72h1M13 73h1M32 73h1" />
<path stroke="#cf2e5d" d="M8 21h3M36 21h3M8 22h4M18 22h3M27 22h3M36 22h3M8 23h3M19 23h2M27 23h2M36 23h3M8 24h4M36 24h2M9 25h3M36 25h1M10 26h2M11 27h1" />
<path stroke="#ffffff" d="M17 22h1M30 22h1M19 33h2M26 33h2M18 34h11M17 35h12M17 36h1M11 37h1M10 38h1M9 40h25M9 41h25M9 42h25M9 43h25M9 44h25M9 45h7M27 45h7M9 46h7M27 46h7M9 47h12M25 47h9M9 48h12M25 48h9M9 49h10M23 49h11M9 50h10M23 50h11M9 51h8M25 51h9M9 52h8M25 52h9M9 53h14M27 53h7M9 54h14M27 54h7M9 55h14M27 55h7M9 56h5M18 56h5M27 56h7M9 57h5M18 57h5M27 57h7M9 58h7M25 58h9M9 59h7M25 59h9M9 60h25M9 61h25M9 62h25M9 63h25M9 64h25" />
<path stroke="#faebe2" d="M17 23h1M21 23h6M30 23h1M18 24h12M20 25h8M18 26h12M20 27h7M28 36h1M15 66h3M28 66h3M15 67h3M28 67h3" />
<path stroke="#decdce" d="M20 29h1M26 29h1M18 30h2M27 30h1M17 31h1M28 31h1M16 32h1M19 32h9M29 32h1M15 33h1M18 33h1M28 33h1M30 33h1M14 34h1M17 34h1M30 34h1M13 35h1M29 35h1M31 35h1M19 36h3M25 36h3M29 36h1M32 36h1M17 37h12M32 37h1M18 38h11M33 38h1" />
<path stroke="#f1e7e4" d="M21 33h5M12 36h1M18 36h1M22 36h3" />
</svg>