<svg xmlns="http://www.w3.org/2000/svg" viewBox="0 -0.5 45 100" shape-rendering="crispEdges">
<metadata>Made with Pixels to Svg https://codepen.io/shshaw/pen/XbxvNj</metadata>
<path stroke="#000000" d="M6 2h8M5 3h1M14 3h5M6 4h1M19 4h11M6 5h1M30 5h5M7 6h1M35 6h7M7 7h1M42 7h2M7 8h1M44 8h1M8 9h1M43 9h1M8 10h1M42 10h1M9 11h1M41 11h1M9 12h1M40 12h1M9 13h1M39 13h1M9 14h1M38 14h1M9 15h1M37 15h1M9 16h1M37 16h1M9 17h1M37 17h1M8 18h1M37 18h1M8 19h1M37 19h1M7 20h1M36 20h1M7 21h1M35 21h1M7 22h1M35 22h1M7 23h1M35 23h1M7 24h1M35 24h1M6 25h1M35 25h1M6 26h1M35 26h1M6 27h1M35 27h1M6 28h1M35 28h1M5 29h1M11 29h2M16 29h15M34 29h5M5 30h1M11 30h1M38 30h1M5 31h1M38 31h1M5 32h1M38 32h1M5 33h1M38 33h1M5 34h1M38 34h1M5 35h1M24 35h6M38 35h1M5 36h1M24 36h6M38 36h1M5 37h1M22 37h8M38 37h1M5 38h1M22 38h8M38 38h1M5 39h1M11 39h1M20 39h4M26 39h4M38 39h1M5 40h1M11 40h1M20 40h4M26 40h4M38 40h1M5 41h1M11 41h1M18 41h4M26 41h4M38 41h1M4 42h1M11 42h1M18 42h4M26 42h4M38 42h1M3 43h1M11 43h1M18 43h2M26 43h4M38 43h1M3 44h1M11 44h1M18 44h13M38 44h1M3 45h1M11 45h1M18 45h13M38 45h1M3 46h1M11 46h1M26 46h4M38 46h1M3 47h1M11 47h1M26 47h4M38 47h1M3 48h1M11 48h1M26 48h4M38 48h1M3 49h1M8 49h4M26 49h4M38 49h1M3 50h1M7 50h1M11 50h1M39 50h1M3 51h1M7 51h1M11 51h1M40 51h1M4 52h1M7 52h1M11 52h1M40 52h1M4 53h1M7 53h1M11 53h1M40 53h1M5 54h1M7 54h1M11 54h1M39 54h1M5 55h1M7 55h1M11 55h1M39 55h1M6 56h1M11 56h28M13 57h1M32 57h1M13 58h1M32 58h1M13 59h1M32 59h1M13 60h1M32 60h1M12 61h1M32 61h1M12 62h1M32 62h1M12 63h1M20 63h1M22 63h1M32 63h1M11 64h1M20 64h1M22 64h4M32 64h1M11 65h1M20 65h1M22 65h1M25 65h1M32 65h1M11 66h1M19 66h1M22 66h1M26 66h1M32 66h1M11 67h1M18 67h1M21 67h1M26 67h1M32 67h1M11 68h1M17 68h1M19 68h1M21 68h1M26 68h1M32 68h1M10 69h1M17 69h1M19 69h1M21 69h1M26 69h1M32 69h1M10 70h1M16 70h1M18 70h1M21 70h1M26 70h1M32 70h1M10 71h1M16 71h1M18 71h1M20 71h1M26 71h1M32 71h1M10 72h1M16 72h2M20 72h1M26 72h1M32 72h1M10 73h1M19 73h1M27 73h1M32 73h1M10 74h1M19 74h1M27 74h1M32 74h1M10 75h1M18 75h1M27 75h1M33 75h1M10 76h1M17 76h1M27 76h1M33 76h1M10 77h1M16 77h1M27 77h1M33 77h1M9 78h1M16 78h1M26 78h1M33 78h1M9 79h1M16 79h1M26 79h1M33 79h1M9 80h1M17 80h1M26 80h1M33 80h1M7 81h2M17 81h1M26 81h1M33 81h1M7 82h1M17 82h1M26 82h1M33 82h1M7 83h2M17 83h1M26 83h1M33 83h1M9 84h1M17 84h1M26 84h1M33 84h1M9 85h1M17 85h1M25 85h1M33 85h1M9 86h1M17 86h1M25 86h1M33 86h1M9 87h1M17 87h1M25 87h1M33 87h1M9 88h1M18 88h1M25 88h1M33 88h1M9 89h1M18 89h1M25 89h1M33 89h1M9 90h1M18 90h1M25 90h1M33 90h1M9 91h1M18 91h1M25 91h1M33 91h1M9 92h1M18 92h1M25 92h1M33 92h1M9 93h1M18 93h1M25 93h1M33 93h1M9 94h1M18 94h1M24 94h1M33 94h1M9 95h1M18 95h1M24 95h1M33 95h1M9 96h1M17 96h1M24 96h1M32 96h1M9 97h1M15 97h2M24 97h1M32 97h1M9 98h1M14 98h1M25 98h1M31 98h1M10 99h4M26 99h5" />
<path stroke="#fccd89" d="M6 3h8M7 4h12M8 5h8M19 5h9M9 6h6M16 6h15M32 6h3M10 7h4M15 7h17M34 7h8M11 8h2M15 8h18M36 8h7M17 9h17M38 9h2M13 10h1M17 10h2M22 10h12M12 11h4M17 11h1M22 11h2M26 11h1M29 11h4M34 11h1M12 12h3M16 12h4M22 12h1M24 12h1M26 12h1M29 12h5M13 13h1M15 13h4M21 13h3M26 13h4M31 13h3M14 14h4M26 14h3M31 14h1M33 14h1M20 15h2M26 15h3M31 15h1M33 15h1M19 16h2M26 16h2M33 16h1M10 17h1M15 17h1M26 17h2M10 18h1M15 18h1M26 18h1M9 19h2M15 19h1M9 20h2M12 20h1M15 20h1M8 21h3M12 21h2M15 21h1M8 22h3M12 22h2M15 22h1M8 23h3M12 23h2M15 23h1M8 24h3M12 24h3M8 25h4M13 25h2M8 26h4M13 26h2M8 27h4M13 27h3M8 28h4M14 28h2M8 29h3M14 29h2M8 30h1M15 30h1M8 31h1M15 31h2M17 32h1M5 42h1M5 43h2M4 44h2M4 45h2M4 46h2M5 47h1" />
<path stroke="#d77f70" d="M7 5h1M15 6h1M8 7h1M14 7h1M32 7h2M8 8h2M13 8h1M33 8h3M9 9h2M12 9h1M34 9h3M10 10h1M35 10h3M10 11h1M25 11h1M34 12h1M11 13h1M14 13h1M19 13h1M35 13h1M10 14h1M12 14h2M24 14h1M10 15h1M12 15h1M15 15h2M19 15h1M22 15h2M30 15h1M32 15h1M34 15h1M12 16h3M21 16h2M34 16h1M12 17h3M18 17h2M22 17h1M29 17h3M34 17h1M12 18h3M23 18h1M30 18h1M34 18h1M13 19h2M26 19h1M30 19h1M34 19h1M13 20h2M14 21h1M16 21h1M14 22h1M33 22h1M20 23h1M17 24h2M30 24h1M34 24h1M7 25h1M29 25h1M33 25h2M16 26h1M33 26h2M12 27h1M16 27h2M32 27h3M13 28h1M16 28h4M33 28h1M6 29h1M13 29h1M32 29h2M6 30h1M10 30h1M16 30h1M32 30h2M6 31h1M9 31h1M32 31h1M6 32h1M31 32h1M6 33h3M10 33h1M12 33h1M6 34h3M6 35h3M13 35h1M6 36h3M13 36h1M6 37h3M12 37h1M6 38h3M6 39h3M6 40h3M7 43h1M7 44h1M6 46h1M6 47h1M4 48h1M6 48h1M4 49h3M4 50h3M4 51h3M37 51h1M39 51h1M5 52h2M39 52h1M5 53h2M38 53h2M6 54h1M35 54h3M35 55h2M19 61h1M19 62h1M31 63h1M26 64h4M31 64h1M26 65h2M31 65h1M31 66h1M31 67h1M31 68h1M31 69h1M31 70h1M19 71h1M31 71h1M19 72h1M30 72h2M18 73h1M28 73h4M17 74h2M28 74h4M17 75h1M28 75h4M28 76h4M28 77h4M9 81h1M8 82h1" />
<path stroke="#e2a183" d="M16 5h3M28 5h2M31 6h1M43 8h1M37 9h1M9 10h1M12 10h1M34 10h1M20 11h1M33 11h1M10 12h1M15 12h1M20 12h1M12 13h1M20 13h1M30 13h1M18 14h1M30 14h1M32 14h1M34 14h1M13 15h2M17 15h1M10 16h2M15 16h3M23 16h1M31 16h1M11 17h1M16 17h1M23 17h1M33 17h1M9 18h1M11 18h1M16 18h1M28 18h2M33 18h1M11 19h2M16 19h1M22 19h1M27 19h3M33 19h1M8 20h1M11 20h1M16 20h1M25 20h1M33 20h1M11 21h1M33 21h1M11 22h1M11 23h1M14 23h1M17 23h1M11 24h1M15 24h1M19 24h1M12 25h1M15 25h1M17 25h2M28 25h1M30 25h1M7 26h1M12 26h1M15 26h1M21 26h1M28 26h2M7 27h1M19 27h1M22 27h3M7 28h1M26 28h1M32 28h1M7 29h1M31 29h1M7 30h1M9 30h1M14 30h1M31 30h1M7 31h1M11 31h1M17 31h1M31 31h1M7 32h2M12 32h1M30 32h1M11 33h1M10 34h1M12 34h2M12 35h1M12 36h1M10 37h2M4 43h1M6 44h1M6 45h1M4 47h1M5 48h1M37 50h1M36 51h1M35 52h1M38 52h1M35 53h1M37 53h1M6 55h1M18 60h1M13 61h1M30 64h1M28 65h3M27 66h4M27 67h4M27 68h4M11 69h1M27 69h4M27 70h4M27 71h4M12 72h2M27 72h3M11 73h4M11 74h4M11 75h4M32 75h1M11 76h4M32 76h1M32 77h1" />
<path stroke="#a26c61" d="M8 6h1M9 7h1M10 8h1M11 9h1M11 10h1M41 10h1M11 11h1M35 11h1M40 11h1M11 12h1M25 12h1M35 12h1M39 12h1M10 13h1M24 13h1M34 13h1M38 13h1M11 14h1M19 14h1M23 14h1M29 14h1M11 15h1M18 15h1M29 15h1M36 15h1M18 16h1M28 16h1M36 16h1M17 17h1M28 17h1M36 17h1M27 18h1M31 18h1M36 18h1M17 19h1M31 19h1M31 20h1M31 21h1M16 22h2M31 22h1M34 22h1M16 23h1M18 23h2M30 23h1M33 23h2M16 24h1M33 24h1M16 25h1M17 26h1M18 27h1M12 28h1M20 28h1M7 45h1M7 46h1M7 47h1M7 48h1M38 54h1M37 55h1M20 66h1M20 67h1M20 68h1M20 69h1M19 70h2M18 72h1" />
<path stroke="#feeadc" d="M14 8h1M13 9h1M16 9h1M21 10h1M16 11h1M18 11h1M28 11h1M21 12h1M23 12h1M28 12h1M25 13h1M25 14h1M24 15h2M24 16h2M20 17h2M24 17h2M24 18h2M21 19h1M23 19h3M22 20h3M26 20h1M22 21h5M29 21h1M22 22h5M22 23h5M20 24h7M19 25h9M18 26h3M22 26h6M20 27h2M25 27h4M21 28h5M10 32h2M11 34h1M10 35h2M10 36h2M38 50h1M38 51h1M36 52h2M36 53h1M14 60h4M14 61h5M13 62h6M13 63h6M12 64h7M12 65h6M12 66h6M12 67h6M12 68h5M12 69h5M11 70h5M11 71h5M11 72h1M14 72h2M15 73h1M15 74h1M15 75h1M15 76h1" />
<path stroke="#fcffff" d="M14 9h2M14 10h3M19 10h2M19 11h1M21 11h1M24 11h1M27 11h1M27 12h1M21 20h1M21 21h1M21 22h1M29 22h1M21 23h1M29 23h1M29 24h1M12 30h2M17 30h14M34 30h4M12 31h3M18 31h13M33 31h5M13 32h4M18 32h12M32 32h6M13 33h25M14 34h24M14 35h10M30 35h8M14 36h10M30 36h8M13 37h9M30 37h8M12 38h10M30 38h8M12 39h8M24 39h2M30 39h8M12 40h8M24 40h2M30 40h8M12 41h6M22 41h4M30 41h8M12 42h6M22 42h4M30 42h8M9 43h2M12 43h6M20 43h6M30 43h8M12 44h6M31 44h7M12 45h6M31 45h7M10 46h1M12 46h14M30 46h8M12 47h14M30 47h8M12 48h14M30 48h8M12 49h14M30 49h8M12 50h25M12 51h24M12 52h23M12 53h23M12 54h23M12 55h23M10 80h4M27 81h6M11 92h4M10 93h6M10 94h6M10 95h6M10 96h5M10 97h3" />
<path stroke="#80504e" d="M40 9h3M38 10h3M36 11h4M36 12h3M36 13h2M20 14h3M35 14h3M35 15h1M29 16h2M32 16h1M35 16h1M32 17h1M35 17h1M17 18h2M22 18h1M32 18h1M35 18h1M32 19h1M35 19h2M27 20h1M32 20h1M34 20h2M30 21h1M32 21h1M34 21h1M30 22h1M32 22h1M31 23h2M31 24h2M31 25h2M30 26h3M29 27h3M27 28h5M34 28h1M20 61h1M20 62h2M21 63h1M21 64h1M21 65h1M21 66h1M32 94h1" />
<path stroke="#482535" d="M19 18h3M18 19h1M17 20h1M28 20h3M17 21h1M10 31h1M9 32h1M9 33h1M9 34h1M9 35h1M9 36h1M9 37h1M9 38h3M9 39h1M9 40h1M8 41h1M8 42h1M8 43h1M8 44h1M8 45h1M8 46h1M8 47h1M8 48h1M38 55h1M23 57h1M23 58h1M23 59h1M23 60h1M23 61h1M23 62h1M31 62h1M23 63h1M30 63h1" />
<path stroke="#467fbe" d="M19 19h2M18 20h3M18 21h3M27 21h2M18 22h3M27 22h2M27 23h2M27 24h2" />
<path stroke="#86035c" d="M10 39h1M10 41h1M9 47h1M9 48h2M7 49h1M14 57h1M24 57h8M24 58h6M31 58h1M22 59h1M24 59h8M22 60h1M24 60h6M31 60h1M22 61h1M24 61h8M22 62h1M24 62h7M19 63h1M24 63h6M19 64h1M18 65h2M18 66h1M19 67h1M16 73h2M16 74h1M16 75h1M16 76h1M9 82h1M9 83h1M17 93h1M17 94h1M16 95h2M32 95h1M15 96h2M14 97h1M31 97h1M26 98h5" />
<path stroke="#d2c6d4" d="M10 40h1M6 42h2M9 46h1M30 58h1M30 60h1M10 78h5M11 79h2M28 79h3M14 80h3M10 81h7M10 82h7M27 82h6M10 83h7M27 83h6M10 84h7M27 84h6M10 85h7M26 85h7M10 86h7M26 86h7M10 87h7M26 87h7M10 88h7M26 88h7M10 89h7M26 89h7M10 90h7M26 90h7M10 91h7M26 91h7M10 92h1M15 92h2M26 92h7M16 93h1M26 93h7M25 94h7M25 95h7M25 96h7M13 97h1M25 97h6" />
<path stroke="#979196" d="M6 41h2M11 77h5M15 78h1M28 78h5M14 79h1M28 80h5" />
<path stroke="#d02757" d="M9 41h1M9 42h2M9 44h2M9 45h2M10 47h1M15 57h8M14 58h9M14 59h8M19 60h3M21 61h1M10 98h4" />
<path stroke="#b9b2b8" d="M27 78h1M10 79h1M13 79h1M15 79h1M27 79h1M31 79h2M27 80h1M17 88h1M17 89h1M17 90h1M17 91h1M17 92h1M16 94h1" />
</svg>