<svg xmlns="http://www.w3.org/2000/svg" viewBox="0 -0.5 45 100" shape-rendering="crispEdges">
<metadata>Made with Pixels to Svg https://codepen.io/shshaw/pen/XbxvNj</metadata>
<path stroke="#000000" d="M18 2h23M14 3h4M40 3h1M12 4h2M39 4h1M11 5h1M39 5h1M10 6h1M38 6h1M8 7h2M38 7h1M6 8h2M37 8h1M4 9h2M36 9h1M3 10h1M36 10h1M3 11h1M35 11h1M4 12h1M36 12h1M5 13h1M37 13h1M6 14h1M37 14h1M6 15h1M38 15h1M6 16h1M32 16h1M38 16h1M6 17h1M32 17h2M39 17h1M6 18h1M32 18h1M34 18h1M39 18h1M7 19h1M32 19h1M34 19h1M40 19h1M8 20h1M32 20h1M34 20h1M40 20h1M8 21h1M32 21h1M35 21h1M41 21h1M9 22h1M32 22h1M35 22h1M41 22h1M9 23h1M32 23h1M35 23h1M41 23h1M9 24h1M13 24h2M31 24h1M36 24h1M42 24h1M10 25h1M13 25h2M28 25h1M31 25h1M36 25h1M42 25h1M10 26h1M13 26h1M15 26h1M27 26h2M31 26h1M36 26h1M42 26h1M10 27h1M13 27h1M15 27h1M17 27h1M31 27h1M36 27h1M42 27h1M10 28h1M13 28h1M15 28h1M17 28h1M32 28h2M37 28h1M42 28h1M10 29h1M13 29h1M15 29h1M17 29h1M30 29h2M34 29h2M37 29h1M42 29h1M10 30h1M13 30h1M15 30h1M30 30h1M32 30h1M36 30h1M42 30h1M9 31h1M13 31h1M16 31h1M30 31h2M33 31h1M42 31h1M9 32h1M13 32h1M15 32h1M31 32h2M34 32h1M42 32h1M9 33h1M13 33h2M31 33h2M35 33h1M42 33h1M9 34h1M13 34h1M31 34h3M36 34h2M42 34h1M9 35h1M13 35h1M31 35h4M37 35h1M43 35h1M9 36h1M13 36h1M32 36h4M37 36h1M43 36h1M8 37h1M13 37h1M27 37h2M32 37h4M37 37h1M43 37h1M8 38h1M13 38h2M27 38h2M32 38h6M43 38h1M8 39h1M13 39h1M15 39h1M28 39h1M32 39h6M43 39h1M8 40h1M13 40h1M16 40h2M27 40h1M29 40h1M33 40h5M40 40h2M43 40h1M8 41h1M12 41h1M17 41h1M27 41h1M29 41h1M33 41h5M40 41h2M43 41h1M8 42h1M12 42h1M17 42h1M27 42h1M29 42h1M33 42h1M35 42h3M40 42h1M42 42h1M8 43h1M16 43h2M27 43h1M30 43h1M34 43h1M36 43h2M40 43h1M8 44h1M11 44h1M16 44h1M27 44h1M30 44h1M34 44h1M36 44h2M40 44h1M8 45h1M11 45h1M16 45h1M28 45h1M30 45h1M34 45h1M37 45h1M39 45h1M8 46h1M15 46h1M28 46h1M31 46h1M35 46h2M39 46h1M8 47h1M14 47h1M29 47h1M31 47h1M36 47h1M38 47h1M9 48h2M30 48h2M36 48h1M38 48h1M9 49h1M35 49h1M37 49h1M9 50h1M35 50h1M7 51h13M35 51h1M7 52h1M20 52h14M35 52h1M6 53h2M35 53h1M5 54h1M36 54h1M5 55h1M36 55h1M4 56h1M36 56h1M4 57h1M14 57h11M36 57h1M4 58h1M14 58h11M36 58h1M5 59h1M14 59h4M36 59h1M5 60h1M14 60h4M36 60h1M6 61h1M14 61h4M35 61h1M7 62h1M14 62h4M34 62h1M7 63h1M14 63h11M33 63h1M7 64h1M14 64h11M33 64h1M7 65h1M23 65h4M33 65h1M7 66h1M23 66h4M33 66h1M7 67h1M23 67h4M33 67h1M7 68h1M14 68h4M23 68h4M33 68h1M7 69h1M14 69h4M23 69h4M33 69h1M7 70h1M16 70h9M33 70h1M7 71h1M16 71h9M33 71h1M7 72h1M33 72h2M7 73h1M33 73h1M35 73h1M7 74h1M33 74h1M36 74h1M7 75h1M33 75h1M37 75h1M7 76h1M33 76h2M38 76h1M7 77h13M33 77h1M35 77h1M39 77h1M9 78h1M20 78h14M36 78h1M40 78h1M9 79h1M21 79h1M23 79h1M34 79h1M37 79h1M41 79h1M9 80h1M21 80h1M23 80h1M34 80h1M38 80h1M41 80h1M9 81h1M21 81h1M23 81h1M35 81h1M39 81h2M8 82h1M21 82h1M23 82h1M35 82h1M8 83h1M21 83h1M23 83h1M35 83h1M7 84h1M21 84h1M23 84h1M35 84h1M7 85h1M21 85h1M23 85h1M36 85h1M7 86h1M21 86h1M23 86h1M36 86h1M7 87h1M21 87h1M23 87h1M36 87h1M6 88h1M21 88h1M23 88h1M37 88h1M6 89h1M21 89h1M23 89h1M37 89h1M6 90h1M21 90h1M23 90h1M37 90h1M7 91h3M21 91h1M23 91h1M37 91h1M10 92h1M21 92h1M23 92h1M37 92h1M11 93h1M20 93h1M23 93h1M11 94h1M20 94h1M24 94h1M36 94h1M12 95h1M20 95h1M25 95h2M36 95h1M12 96h1M20 96h1M27 96h1M36 96h1M13 97h2M20 97h1M28 97h1M35 97h1M15 98h5M28 98h1M33 98h2M29 99h4" />
<path stroke="#ffffff" d="M18 3h21M16 4h7M12 5h2M15 5h13M12 6h2M15 6h14M37 6h1M11 7h3M15 7h14M36 7h1M8 8h1M11 8h4M16 8h13M35 8h2M6 9h2M11 9h4M16 9h10M27 9h2M34 9h2M4 10h2M9 10h1M11 10h5M17 10h10M28 10h1M33 10h2M8 11h3M12 11h5M18 11h9M34 11h1M8 12h4M13 12h4M20 12h8M8 13h5M14 13h4M22 13h5M8 14h6M15 14h4M24 14h2M8 15h6M16 15h3M9 16h5M17 16h3M9 17h2M12 17h2M18 17h2M9 18h2M12 18h2M20 18h1M24 18h1M9 19h2M13 19h1M24 19h1M9 20h2M13 20h1M24 20h1M10 21h1M13 21h1M16 21h1M10 22h1M16 22h1M17 23h1M41 25h1M37 26h1M41 26h1M37 27h1M41 27h1M38 28h1M41 28h1M11 29h1M38 29h1M41 29h1M11 30h1M38 30h1M41 30h1M11 31h1M38 31h1M41 31h1M11 32h1M38 32h2M41 32h1M38 33h2M41 33h1M10 34h1M38 34h2M41 34h1M10 35h1M39 35h1M10 36h1M39 36h1M10 37h1M39 37h1M39 38h1M9 39h1M39 39h1M9 40h1M39 40h1M9 41h1M39 41h1M9 42h1M38 42h2M9 43h1M38 43h2M9 44h1M38 44h2M9 45h1M38 45h1M9 46h1M38 46h1M8 52h12M8 53h26M8 54h25M9 55h24M9 56h25M8 57h6M25 57h8M9 58h5M25 58h7M9 59h5M18 59h14M9 60h5M18 60h14M9 61h5M18 61h14M9 62h5M18 62h15M8 63h6M25 63h8M8 64h6M25 64h8M8 65h15M27 65h6M8 66h15M27 66h6M8 67h15M27 67h6M8 68h6M18 68h5M27 68h6M8 69h6M18 69h5M27 69h6M8 70h8M25 70h8M8 71h8M25 71h8M8 72h25M8 73h25M8 74h25M8 75h25M8 76h25M20 77h13M15 96h5M29 97h4" />
<path stroke="#e6e5e7" d="M39 3h1M28 4h6M38 4h1M14 6h1M14 7h1M29 7h1M15 8h1M29 8h1M9 9h1M15 9h1M26 9h1M29 9h1M16 10h1M27 10h1M29 10h1M35 10h1M11 11h1M28 11h1M12 12h1M27 13h1M36 13h1M26 14h1M37 15h1M8 16h1M11 17h1M20 17h1M38 17h1M19 18h1M38 18h1M12 19h1M39 19h1M16 20h1M39 20h1M9 21h1M24 21h1M40 21h1M40 22h1M10 23h1M36 23h1M40 23h1M41 24h1M37 25h1M11 28h1M39 31h1M10 33h1M38 35h1M38 36h1M38 37h1M9 38h1M38 38h1M38 39h1M38 40h1M38 41h1M16 95h3M29 96h4M33 97h1" />
<path stroke="#c7bfcd" d="M14 4h1M23 4h3M34 4h4M14 5h1M29 5h10M11 6h1M30 6h7M31 7h5M37 7h1M9 8h1M31 8h4M10 9h1M31 9h3M6 10h1M8 10h1M10 10h1M30 10h1M32 10h1M4 11h3M27 11h1M29 11h2M32 11h2M5 12h1M7 12h1M19 12h1M29 12h2M32 12h2M35 12h1M7 13h1M13 13h1M21 13h1M29 13h2M32 13h2M35 13h1M7 14h1M23 14h1M27 14h2M30 14h2M34 14h3M7 15h1M25 15h5M31 15h1M34 15h3M7 16h1M29 16h2M34 16h4M7 17h2M34 17h4M7 18h2M11 18h1M21 18h1M30 18h1M35 18h3M8 19h1M11 19h1M20 19h3M30 19h1M35 19h4M12 20h1M30 20h1M36 20h3M30 21h1M36 21h4M13 22h1M30 22h1M36 22h4M12 23h1M29 23h1M37 23h3M10 24h1M12 24h1M29 24h1M37 24h4M11 25h2M29 25h1M38 25h3M11 26h2M29 26h1M38 26h3M11 27h2M16 27h1M29 27h1M38 27h3M12 28h1M16 28h1M29 28h1M39 28h2M12 29h1M16 29h1M29 29h1M39 29h2M12 30h1M16 30h1M39 30h2M10 31h1M12 31h1M40 31h1M10 32h1M12 32h1M40 32h1M11 33h2M40 33h1M11 34h2M40 34h1M11 35h2M40 35h2M11 36h2M40 36h1M9 37h1M11 37h2M40 37h1M10 38h3M40 38h1M10 39h3M40 39h1M10 40h2M10 41h2M10 42h2M10 43h1M10 44h1M10 45h1M37 46h1M9 47h1M37 47h1M37 48h1M8 62h1M35 74h1M35 75h2M36 76h2M37 77h2M38 78h2M39 79h2M13 94h1M35 94h1M13 95h3M19 95h1M34 95h2M14 96h1M33 96h2" />
<path stroke="#716b72" d="M15 4h1M35 30h1M35 31h2M16 32h2M22 32h4M35 32h2M15 33h3M21 33h6M36 33h1M21 34h2M26 34h1M20 35h2M42 35h1M41 36h2M41 37h2M41 38h2M41 39h2M42 40h1M42 41h1M15 48h1M16 49h4M23 49h5M15 79h1M17 79h1M29 80h1M29 81h1M14 82h1M17 82h1M16 83h1M24 83h5M15 84h2M24 84h3M29 84h2M8 85h4M15 85h1M30 85h1M10 86h1M12 86h4M29 86h4M12 87h3M29 87h3M7 88h1M10 88h1M30 88h2M10 89h2M13 89h1M13 90h2M31 90h1M14 91h1M17 91h2M26 91h1M14 92h6M26 92h1M26 93h2M30 93h1" />
<path stroke="#7e7086" d="M26 4h2M28 5h1M29 6h1M30 7h1M10 8h1M30 8h1M8 9h1M30 9h1M7 10h1M31 10h1M7 11h1M17 11h1M31 11h1M6 12h1M17 12h1M28 12h1M31 12h1M34 12h1M6 13h1M18 13h1M28 13h1M31 13h1M34 13h1M14 14h1M29 14h1M32 14h2M15 15h1M19 15h1M30 15h1M32 15h2M16 16h1M20 16h1M27 16h2M31 16h1M33 16h1M17 17h1M29 17h3M18 18h1M31 18h1M31 19h1M11 20h1M31 20h1M35 20h1M11 21h2M14 21h1M29 21h1M31 21h1M11 22h2M14 22h1M29 22h1M31 22h1M11 23h1M13 23h2M30 23h2M11 24h1M15 24h1M30 24h1M15 25h1M30 25h1M16 26h1M30 26h1M30 27h1M30 28h1M29 30h1M29 31h1M12 40h1M11 43h1M10 46h1M10 47h1M34 73h1M34 74h1M34 75h1M35 76h1M36 77h1M37 78h1M38 79h1M39 80h2M12 93h1M12 94h1M34 94h1M32 95h2M28 96h1" />
<path stroke="#56525d" d="M10 7h1M24 16h1M15 21h1M24 30h2M37 30h1M17 31h2M23 31h3M37 31h1M26 32h1M37 32h1M37 33h1M15 34h3M23 34h3M14 35h1M15 49h1M22 49h1M28 49h2M15 50h5M21 50h1M21 51h5M14 79h1M18 79h1M29 79h1M31 79h1M32 80h1M28 81h1M28 82h1M31 82h1M17 83h1M31 83h1M9 84h2M14 84h1M27 84h2M31 84h1M14 85h1M24 85h2M28 85h2M31 85h2M15 87h1M28 87h1M32 87h1M11 88h1M12 89h1M29 89h1M25 90h2M32 90h1M15 91h1M32 91h1M24 92h2M29 92h1M25 93h1M32 93h1M30 94h2M13 96h1M35 96h1M15 97h4M34 97h1M29 98h4" />
<path stroke="#df2e05" d="M18 12h1M19 13h1M14 15h1M23 15h2M14 16h2M21 16h3M14 17h3M22 17h1M14 18h1M22 18h1M25 18h1M27 18h1M14 19h1M18 19h1M25 19h1M27 19h1M25 20h2M21 30h2M28 30h1M21 31h1M27 31h2M27 32h3M28 33h3M29 34h2M29 35h2M18 36h1M29 36h2M30 37h2M18 38h2M21 38h1M25 38h1M30 38h2M19 39h2M22 39h6M30 39h2M18 40h9M31 40h2M18 41h9M31 41h1M13 42h1M18 42h1M24 42h2M31 42h1M14 43h1M14 44h1M13 45h2M13 46h1M20 47h1M34 47h1M34 48h1M20 50h1M8 55h1M33 55h1M35 55h1M8 56h1M5 57h3M5 58h4M33 58h3M8 59h1M33 59h3M8 60h1M8 61h1" />
<path stroke="#e8895c" d="M20 13h1M20 14h3M20 15h2M19 19h1M23 19h1M19 20h1M28 20h1M19 21h1M28 21h1M19 22h1M28 22h1M28 23h1M22 25h1M18 26h1M25 26h1M19 31h2M22 31h1M20 34h1M18 35h1M19 36h1M16 38h2M22 38h3M32 41h1M19 42h5M26 42h1M32 42h1M12 43h2M18 43h1M23 43h4M31 43h1M33 43h1M13 44h1M17 44h1M24 44h2M31 44h1M33 44h1M17 45h1M24 45h1M31 45h1M33 45h1M12 46h1M17 46h1M20 46h1M12 47h1M16 48h1M22 48h4M28 48h1M20 49h2M32 49h1M34 49h1M11 50h1M32 50h1M32 51h1M34 52h1M33 54h3M6 55h2M34 55h1M5 56h1M33 57h3M32 58h1M7 59h1M32 59h1M7 60h1M33 60h3M7 61h1M33 61h2" />
<path stroke="#a31c0a" d="M19 14h1M22 15h1M21 17h1M24 17h3M28 17h1M15 18h1M23 18h1M26 18h1M29 18h1M16 19h2M26 19h1M29 19h1M14 20h1M17 20h2M27 20h1M29 20h1M17 21h2M25 21h1M15 22h1M17 22h2M15 23h1M16 24h1M28 24h1M16 25h1M27 25h1M26 26h1M21 27h4M18 29h2M22 29h2M26 29h3M17 30h2M20 30h1M26 30h2M30 32h1M28 34h1M28 35h1M28 36h1M31 36h1M29 37h1M15 38h1M20 38h1M29 38h1M14 39h1M16 39h3M21 39h1M29 39h1M14 40h2M30 40h1M13 41h4M30 41h1M14 42h3M30 42h1M15 43h1M15 44h1M15 45h1M14 46h1M34 46h1M13 47h1M12 48h1M12 49h1M12 50h1M20 51h1M34 53h1M7 54h1M34 56h2M33 62h1" />
<path stroke="#0c0c0c" d="M25 16h2M27 17h1M16 18h2M15 19h1M17 26h1M18 27h3M25 27h4M18 28h11M20 29h2M24 29h2M19 30h1M23 30h1M26 31h1M27 33h1M14 34h1M27 34h1M15 35h3M23 35h3M27 35h1M14 36h4M20 36h1M22 36h6M14 37h13M26 38h1M35 47h1M29 48h1M35 48h1M30 49h2M30 50h2M30 51h2M24 79h4M32 79h2M24 80h4M33 80h1M24 81h4M33 81h1M9 82h2M20 82h1M24 82h1M26 82h2M34 82h1M9 83h2M20 83h1M33 83h2M17 84h4M33 84h2M16 85h5M34 85h2M8 86h1M16 86h5M33 86h3M8 87h3M16 87h5M33 87h3M12 88h9M24 88h1M33 88h3M14 89h7M24 89h3M31 89h6M7 90h1M15 90h3M20 90h1M34 90h3M20 91h1M35 91h2M11 92h2M20 92h1M35 92h1M13 93h3M19 93h1M34 93h3M15 94h4M25 94h4M32 94h2M27 95h5" />
<path stroke="#403e4b" d="M23 17h1M28 18h1M28 19h1M15 20h1M26 21h2M18 23h1M31 28h1M32 29h2M33 30h2M34 31h1M22 35h1M26 35h1M21 36h1M13 48h2M13 49h2M13 50h2M22 50h8M26 51h4M10 78h10M10 79h3M19 79h2M28 79h1M30 79h1M10 80h3M19 80h2M28 80h1M10 81h4M19 81h2M34 81h1M11 82h3M18 82h2M25 82h1M32 82h2M11 83h4M18 83h2M32 83h1M8 84h1M11 84h3M32 84h1M12 85h2M26 85h2M33 85h1M9 86h1M24 86h5M11 87h1M24 87h2M25 88h1M32 88h1M36 88h1M27 89h2M30 89h1M10 90h3M18 90h2M24 90h1M33 90h1M10 91h4M16 91h1M19 91h1M24 91h2M33 91h2M13 92h1M32 92h3M36 92h1M16 93h3M24 93h1M28 93h2M33 93h1M14 94h1M19 94h1M29 94h1M19 97h1" />
<path stroke="#f5be98" d="M20 20h4M20 21h4M20 22h8M19 23h9M17 24h11M17 25h5M23 25h4M19 26h6M18 32h4M18 33h3M18 34h2M19 35h1M19 43h4M32 43h1M12 44h1M18 44h6M26 44h1M32 44h1M12 45h1M18 45h6M25 45h3M32 45h1M11 46h1M16 46h1M18 46h2M21 46h7M32 46h2M11 47h1M15 47h5M21 47h8M32 47h2M11 48h1M17 48h5M26 48h2M32 48h2M10 49h2M33 49h1M10 50h1M33 50h2M33 51h2M6 54h1M6 56h2M6 59h1M6 60h1M32 60h1M32 61h1" />
<path stroke="#948c8a" d="M16 23h1M13 79h1M16 79h1M13 80h6M30 80h2M14 81h5M30 81h3M15 82h2M29 82h2M15 83h1M29 83h2M11 86h1M26 87h2M8 88h2M26 88h4M7 89h3M8 90h2M27 90h4M27 91h5M27 92h2M30 92h2M31 93h1" />
</svg>