<svg xmlns="http://www.w3.org/2000/svg" viewBox="0 -0.5 45 100" shape-rendering="crispEdges">
<metadata>Made with Pixels to Svg https://codepen.io/shshaw/pen/XbxvNj</metadata>
<path stroke="#000000" d="M2 1h6M2 2h1M8 2h11M2 3h1M19 3h13M2 4h1M32 4h5M2 5h1M36 5h1M2 6h1M35 6h1M2 7h1M34 7h1M2 8h1M33 8h1M2 9h1M32 9h1M2 10h1M31 10h1M2 11h1M30 11h1M2 12h1M29 12h1M2 13h1M28 13h1M2 14h1M28 14h1M2 15h1M28 15h1M2 16h1M29 16h1M2 17h1M29 17h1M2 18h1M29 18h1M2 19h1M30 19h1M3 20h1M30 20h1M3 21h1M30 21h1M3 22h1M31 22h1M3 23h1M28 23h1M31 23h1M3 24h1M28 24h2M31 24h1M4 25h1M28 25h1M30 25h1M32 25h1M4 26h1M28 26h1M30 26h1M32 26h1M4 27h1M28 27h1M31 27h1M4 28h1M28 28h1M5 29h1M24 29h2M28 29h1M5 30h1M24 30h1M26 30h1M28 30h1M6 31h1M25 31h1M27 31h1M7 32h1M9 32h2M26 32h1M8 33h1M11 33h1M26 33h1M11 34h1M26 34h1M11 35h1M26 35h1M12 36h1M26 36h1M12 37h1M26 37h1M7 38h5M13 38h1M27 38h2M7 39h1M12 39h2M28 39h1M7 40h1M28 40h1M7 41h1M28 41h1M7 42h1M28 42h1M6 43h1M28 43h1M6 44h1M29 44h13M6 45h1M29 45h2M41 45h1M6 46h1M31 46h1M40 46h1M6 47h4M32 47h2M40 47h1M7 48h3M34 48h1M39 48h1M5 49h2M35 49h2M39 49h1M4 50h1M37 50h2M4 51h1M38 51h1M4 52h1M38 52h1M4 53h1M37 53h1M4 54h1M37 54h1M4 55h1M36 55h1M3 56h1M11 56h1M33 56h9M3 57h1M11 57h1M14 57h11M41 57h1M3 58h1M8 58h1M11 58h1M14 58h1M41 58h1M4 59h4M9 59h1M11 59h1M14 59h1M41 59h1M10 60h1M14 60h1M41 60h1M10 61h1M14 61h1M41 61h1M10 62h1M14 62h1M27 62h7M41 62h1M10 63h1M14 63h1M27 63h7M41 63h1M10 64h1M14 64h1M25 64h4M41 64h1M10 65h1M15 65h1M25 65h4M41 65h1M10 66h1M15 66h1M23 66h4M42 66h1M10 67h1M15 67h1M23 67h4M42 67h1M10 68h1M15 68h1M23 68h11M42 68h1M10 69h1M15 69h1M23 69h11M42 69h1M10 70h1M15 70h1M23 70h4M32 70h4M42 70h1M10 71h1M15 71h1M23 71h4M32 71h4M42 71h1M10 72h1M12 72h2M15 72h1M23 72h4M32 72h4M42 72h1M11 73h1M13 73h1M15 73h1M23 73h4M32 73h4M42 73h1M12 74h1M16 74h1M23 74h4M32 74h4M42 74h1M12 75h1M16 75h1M25 75h9M43 75h1M11 76h1M15 76h2M25 76h9M43 76h1M11 77h1M14 77h1M16 77h1M43 77h1M10 78h1M14 78h1M16 78h1M43 78h1M9 79h1M13 79h1M16 79h1M43 79h1M8 80h1M12 80h1M16 80h1M43 80h1M7 81h1M11 81h1M16 81h1M40 81h4M6 82h1M10 82h1M16 82h1M29 82h11M5 83h1M9 83h1M15 83h14M31 83h1M38 83h1M5 84h1M8 84h1M14 84h1M22 84h1M31 84h1M38 84h1M6 85h2M14 85h1M22 85h1M31 85h1M38 85h1M14 86h1M22 86h1M32 86h1M38 86h1M14 87h1M21 87h1M32 87h1M39 87h1M13 88h1M21 88h1M32 88h1M39 88h1M13 89h1M21 89h1M32 89h1M39 89h1M13 90h1M21 90h1M32 90h1M39 90h1M12 91h1M21 91h1M32 91h1M39 91h1M12 92h1M21 92h1M32 92h1M39 92h1M12 93h1M21 93h1M32 93h1M39 93h1M12 94h1M21 94h1M32 94h1M39 94h1M12 95h1M21 95h1M33 95h1M38 95h1M12 96h1M21 96h1M34 96h4M13 97h1M21 97h1M14 98h1M20 98h1M15 99h5" />
<path stroke="#fef8d4" d="M3 2h2M24 4h8M25 5h5M25 6h2M14 8h6M12 9h8M22 9h1M10 10h3M14 10h4M23 10h1M8 11h1M10 11h2M13 11h3M23 11h1M7 12h1M10 12h1M12 12h3M23 12h1M7 13h1M11 13h3M6 14h2M10 14h2M3 15h1M5 15h3M3 16h1M5 16h3M4 17h2M4 18h1M4 19h1M4 20h4M4 21h5M4 22h5M4 23h5M5 24h5M5 25h1M7 25h3M5 26h1M7 26h3M6 27h1M8 27h3M6 28h1M9 28h2M6 29h1M10 29h2M6 30h1M11 30h1M13 75h1M12 76h2M12 77h2M11 78h3M10 79h3M9 80h3M8 81h3M7 82h3M6 83h3M6 84h2" />
<path stroke="#fecfae" d="M5 2h3M3 3h1M10 3h1M3 4h1M22 4h2M3 5h1M3 6h1M3 7h1M16 7h4M3 8h1M20 8h1M3 9h1M11 9h1M23 9h1M3 10h1M13 10h1M18 10h1M3 11h1M7 11h1M12 11h1M16 11h2M3 12h1M9 12h1M11 12h1M3 13h1M6 13h1M9 13h2M23 13h1M26 13h1M3 14h1M12 14h1M9 15h2M27 15h1M4 16h1M9 16h1M28 17h1M28 18h1M3 19h1M29 19h1M8 20h1M29 20h1M29 21h1M30 22h1M30 23h1M4 24h1M6 25h1M5 27h1M5 28h1M7 30h1M7 31h1M8 32h1M14 75h1M14 76h1" />
<path stroke="#da7e5d" d="M4 3h6M4 4h5M4 5h4M30 5h6M4 6h4M27 6h7M4 7h3M15 7h1M25 7h8M4 8h3M25 8h7M4 9h4M25 9h6M4 10h4M26 10h4M4 11h3M26 11h3M4 12h3M25 12h1M27 12h1M5 13h1M25 13h1M27 13h1M8 14h1M13 14h3M22 14h1M25 14h2M8 15h1M25 15h2M8 16h1M25 16h3M8 17h1M25 17h3M8 18h1M25 18h3M8 19h1M24 19h5M24 20h5M24 21h5M24 22h3M28 22h2M24 23h3M29 23h1M24 24h3M23 25h4M21 26h6M7 27h1M11 27h2M18 27h2M22 27h5M7 28h2M12 28h1M15 28h3M23 28h4M8 29h2M12 29h1M26 29h2M8 30h3M27 30h1M8 31h3M23 36h3M23 37h3M24 38h3M20 39h1M24 39h3M24 40h3M25 41h3M22 42h1M25 42h1M27 42h1M25 43h1M27 43h1M23 44h1M27 44h2M26 45h1M28 45h1M26 46h1M28 46h1M29 47h1M25 48h1M29 48h1M27 49h1M31 51h1M23 52h1M32 52h1M23 53h1M32 53h1M23 54h1M30 54h3M24 55h1M30 55h3M30 56h3M25 57h1M28 57h1M30 57h2M27 58h1M14 69h1M14 70h1M14 71h1M14 72h1M14 73h1M14 74h2" />
<path stroke="#bdd0cd" d="M11 3h1M13 3h1M15 3h1M18 3h1M10 4h1M12 4h1M14 4h1M17 4h1M20 4h1M10 5h1M22 5h1M18 6h1M22 7h1M11 8h1M23 8h1M24 9h1M8 10h1M14 19h1M22 19h1M18 29h1M22 29h2M13 30h3M17 30h1M19 30h1M22 30h2M16 31h1M18 31h1M20 31h1M22 31h3M19 32h1M21 32h1M23 32h3M19 33h3M23 33h3M18 34h1M20 34h1M23 34h3M17 35h2M20 35h1M23 35h3M16 36h1M16 38h1M5 50h1M7 50h1M9 50h1M8 51h1M37 51h1M10 52h1M11 53h1M36 53h1M12 54h1M6 55h1M15 55h1M35 55h1M5 56h1M13 56h1M17 56h1M6 57h1M33 57h1M15 63h1M15 64h1M42 75h1M38 81h1M33 83h5M19 84h3M33 84h5M19 85h3M33 85h5M19 86h3M33 86h5M19 87h2M33 87h5M18 88h3M33 88h6M18 89h3M33 89h6M18 90h3M33 90h6M13 91h1M18 91h3M34 91h4M13 92h1M18 92h3M18 93h2M15 94h1M18 94h2M34 95h4M14 97h1M15 98h1" />
<path stroke="#ffffff" d="M12 3h1M14 3h1M16 3h2M16 4h1M19 4h1M21 4h1M16 6h2M12 7h2M9 9h1M3 17h1M6 17h2M3 18h1M5 18h3M5 19h3M14 20h1M22 20h1M14 21h1M22 21h1M14 22h1M14 23h1M12 31h4M12 32h6M12 33h7M12 34h6M13 35h4M14 36h2M7 49h1M8 50h1M10 51h1M9 52h1M12 53h1M11 54h1M13 55h2M16 55h1M15 56h1M34 57h7M15 58h11M28 58h13M15 59h26M15 60h26M15 61h26M15 62h12M34 62h7M16 63h11M34 63h7M16 64h9M29 64h12M16 65h9M29 65h12M16 66h7M27 66h14M16 67h7M27 67h15M16 68h7M34 68h8M16 69h7M34 69h8M16 70h7M27 70h5M36 70h6M16 71h7M27 71h5M36 71h6M16 72h7M27 72h5M36 72h6M17 73h6M27 73h5M36 73h6M17 74h6M27 74h5M36 74h6M17 75h8M34 75h8M17 76h8M34 76h9M17 77h26M17 78h26M17 79h26M17 80h26M17 81h21M17 82h11M15 84h4M15 85h4M15 86h4M15 87h4M14 88h4M14 89h4M14 90h4M14 91h4M14 92h4M14 93h4M16 94h2M16 98h4" />
<path stroke="#768aa2" d="M9 4h1M8 5h1M23 5h1M8 6h2M19 6h3M8 7h1M11 7h1M14 7h1M21 7h1M8 8h1M10 8h1M12 8h1M22 8h1M8 9h1M10 9h1M9 10h1M24 10h2M20 27h2M13 28h2M19 28h4M16 29h2M20 29h2M12 30h1M21 30h1M11 31h1M11 32h1M21 35h1M13 36h1M21 36h1M13 37h2M19 37h1M14 38h2M5 51h3M5 52h1M7 52h1M6 53h4M5 54h1M7 54h4M7 55h5M6 56h5M12 56h1M4 57h2M7 57h4M13 57h1M4 58h1M6 58h2M9 58h2M13 58h1M10 59h1" />
<path stroke="#98aab8" d="M11 4h1M13 4h1M15 4h1M18 4h1M9 5h1M24 5h1M14 6h2M24 6h1M7 7h1M7 8h1M13 8h1M18 30h1M17 31h1M19 31h1M18 32h1M20 32h1M22 32h1M22 33h1M19 34h1M21 34h2M12 35h1M22 35h1M17 36h2M20 36h1M15 37h3M16 39h1M8 49h1M6 50h1M36 50h1M9 51h1M11 51h1M6 52h1M8 52h1M11 52h1M36 52h2M5 53h1M10 53h1M13 53h1M35 53h1M6 54h1M13 54h2M35 54h2M5 55h1M12 55h1M34 55h1M4 56h1M14 56h1M16 56h1M32 57h1M5 58h1M41 66h1M16 73h1M39 81h1M28 82h1M32 83h1M32 84h1M32 85h1M38 87h1M33 91h1M20 93h1" />
<path stroke="#103f76" d="M11 5h1M10 6h1M9 8h1M21 17h2M11 18h1M13 18h1M20 18h1M10 19h1M10 20h1M18 28h1M13 29h3M19 29h1M16 30h1M20 30h1M21 31h1M19 35h1M19 36h1M23 38h1M23 39h1M27 39h1M14 40h1M27 40h1M15 41h1M24 41h1M15 42h1M24 42h1M15 43h1M24 43h1M15 44h1M25 44h1M15 45h1M24 45h2M31 45h10M14 46h1M25 46h1M32 46h8M10 47h4M26 47h1M30 47h1M34 47h6M26 48h1M30 48h2M35 48h4M26 49h1M30 49h4M37 49h2M31 50h4M32 51h5M33 52h3M33 53h2M33 54h2M33 55h1M12 57h1M12 58h1M12 59h2M11 60h3M11 61h3M11 62h3M11 63h3M11 64h3M11 65h4M11 66h4M11 67h4M11 68h4M11 69h3M11 70h3M11 71h3M11 72h1" />
<path stroke="#3883c2" d="M12 5h1M21 5h1M12 6h2M22 36h1M20 37h1M11 39h1M15 39h1M13 40h1M10 41h1M10 42h1M10 43h1M10 44h1M16 46h3M14 47h1M20 47h1M19 49h2M18 50h1M17 51h1M12 52h1M17 52h1M21 52h1M14 53h1M16 54h1M22 55h1M22 56h1M34 92h4M33 93h6M13 94h1M33 94h6M13 95h1M20 95h1M13 96h1" />
<path stroke="#4aa2e9" d="M13 5h8M12 20h1M11 21h2M11 22h2M13 23h1M21 37h1M8 39h3M8 40h3M8 41h2M8 42h2M7 43h3M7 44h3M7 45h3M7 46h3M15 47h5M11 48h9M9 49h10M11 50h7M19 50h2M12 51h5M18 51h3M13 52h3M18 52h3M17 53h5M17 54h5M17 55h5M18 56h4M14 94h1M14 95h3M14 96h7M15 97h6" />
<path stroke="#0e59b2" d="M11 6h1M22 6h2M9 7h2M23 7h2M24 8h1M12 18h1M14 18h1M21 18h2M11 19h3M20 19h2M11 20h1M13 20h1M20 20h2M13 21h1M20 21h2M13 22h1M20 22h2M11 23h2M22 37h1M20 38h3M14 39h1M21 39h2M11 40h2M15 40h2M21 40h3M11 41h4M16 41h2M22 41h2M11 42h4M16 42h3M23 42h1M11 43h4M16 43h4M23 43h1M11 44h4M16 44h4M24 44h1M10 45h5M16 45h5M10 46h4M15 46h1M19 46h2M29 46h2M21 47h1M25 47h1M31 47h1M10 48h1M20 48h2M32 48h2M21 49h2M34 49h1M10 50h1M21 50h2M35 50h1M21 51h2M16 52h1M22 52h1M15 53h2M22 53h1M15 54h1M22 54h1M23 55h1M23 56h2M38 91h1M33 92h1M38 92h1M13 93h1M20 94h1M17 95h3" />
<path stroke="#ef9ea1" d="M34 6h1M20 7h1M33 7h1M21 8h1M32 8h1M21 9h1M31 9h1M22 10h1M30 10h1M9 11h1M22 11h1M24 11h2M29 11h1M8 12h1M15 12h1M24 12h1M26 12h1M28 12h1M4 13h1M8 13h1M14 13h1M24 13h1M4 14h2M9 14h1M24 14h1M27 14h1M4 15h1M11 15h1M24 15h1M10 16h1M24 16h1M28 16h1M9 17h1M24 17h1M9 18h1M24 18h1M9 19h1M9 20h1M9 21h1M9 22h1M27 22h1M9 23h1M22 23h2M27 23h1M11 24h3M27 24h1M30 24h1M15 25h5M22 25h1M27 25h1M31 25h1M6 26h1M10 26h1M15 26h3M27 26h1M31 26h1M27 27h1M11 28h1M27 28h1M7 29h1M18 37h1M17 38h1M19 38h1M21 41h1M26 42h1M26 43h1M26 44h1M27 45h1M27 46h1M27 47h2M27 48h2M28 49h2M23 50h1M28 50h3M23 51h1M29 51h2M30 52h2M30 53h2M28 56h1M27 57h1M13 74h1M15 75h1" />
<path stroke="#ebc9b7" d="M20 9h1M19 10h1M21 10h1M22 12h1M21 14h1M23 14h1M12 15h1M15 15h1M21 15h3M11 16h1M20 16h4M20 17h1M23 17h1M10 18h1M23 18h1M15 19h1M23 19h1M23 20h1M10 21h1M23 21h1M10 22h1M22 22h2M10 23h1M10 24h1M22 24h2M10 25h3M11 26h1M20 26h1M13 27h1M15 27h3M18 38h1M17 39h3M17 40h1M20 40h1M22 43h1M20 44h1M21 46h1M24 46h1M22 48h1M23 49h1M27 50h1M28 51h1M29 52h1M25 55h1M28 55h1M25 56h1M27 56h1M29 56h1M26 57h1M29 57h1M26 58h1" />
<path stroke="#fbf0e4" d="M20 10h1M18 11h4M16 12h6M15 13h8M16 14h5M13 15h2M16 15h5M12 16h8M10 17h10M15 18h5M16 19h4M15 20h5M15 21h5M15 22h5M15 23h7M14 24h8M13 25h2M20 25h2M12 26h3M18 26h2M14 27h1M18 40h2M18 41h3M19 42h3M20 43h2M21 44h2M21 45h3M22 46h2M22 47h3M23 48h2M24 49h2M24 50h3M24 51h4M24 52h5M24 53h6M24 54h6M26 55h2M29 55h1M26 56h1" />
</svg>