<svg xmlns="http://www.w3.org/2000/svg" viewBox="0 -0.5 45 100" shape-rendering="crispEdges">
<metadata>Made with Pixels to Svg https://codepen.io/shshaw/pen/XbxvNj</metadata>
<path stroke="#000000" d="M15 13h8M13 14h2M23 14h1M12 15h1M24 15h1M12 16h1M25 16h1M12 17h1M26 17h1M37 17h4M11 18h1M26 18h1M35 18h2M40 18h1M4 19h5M11 19h1M27 19h1M32 19h3M40 19h1M4 20h1M9 20h2M27 20h1M30 20h2M40 20h1M4 21h1M27 21h3M40 21h1M4 22h1M39 22h1M4 23h1M39 23h1M5 24h1M39 24h1M5 25h1M38 25h1M5 26h1M38 26h1M4 27h1M38 27h1M4 28h1M37 28h1M4 29h1M37 29h1M5 30h1M37 30h1M5 31h1M36 31h1M5 32h1M36 32h1M5 33h1M36 33h1M6 34h1M35 34h1M6 35h1M35 35h1M6 36h1M35 36h1M6 37h1M34 37h1M6 38h1M33 38h1M6 39h1M33 39h1M6 40h1M33 40h1M6 41h1M33 41h1M5 42h1M33 42h1M5 43h1M34 43h1M5 44h1M34 44h1M5 45h1M34 45h1M5 46h1M34 46h1M5 47h1M30 47h1M34 47h1M5 48h1M29 48h2M35 48h1M5 49h1M29 49h2M35 49h1M4 50h1M29 50h2M35 50h1M4 51h1M29 51h2M35 51h1M4 52h1M29 52h1M35 52h1M4 53h1M28 53h2M36 53h1M4 54h1M28 54h2M36 54h1M4 55h1M28 55h2M36 55h1M3 56h1M28 56h2M36 56h1M3 57h1M28 57h2M36 57h1M3 58h1M27 58h1M30 58h1M35 58h1M3 59h1M27 59h1M31 59h1M34 59h1M3 60h1M27 60h1M30 60h1M35 60h1M3 61h1M27 61h1M30 61h1M35 61h1M4 62h1M6 62h1M28 62h1M30 62h1M35 62h1M4 63h1M6 63h1M28 63h1M31 63h1M34 63h1M4 64h1M6 64h1M28 64h1M30 64h1M35 64h1M5 65h1M7 65h1M28 65h1M30 65h1M35 65h1M3 66h1M8 66h1M28 66h1M30 66h1M35 66h1M2 67h1M4 67h1M9 67h1M28 67h1M31 67h1M34 67h1M2 68h1M4 68h1M9 68h1M29 68h1M32 68h2M2 69h1M5 69h1M9 69h1M30 69h1M2 70h1M5 70h1M8 70h1M30 70h1M3 71h1M5 71h1M8 71h1M30 71h1M3 72h1M6 72h1M8 72h1M31 72h4M3 73h1M7 73h1M34 73h1M4 74h1M34 74h1M5 75h2M34 75h1M7 76h1M34 76h1M7 77h1M34 77h1M6 78h1M17 78h13M34 78h1M6 79h1M17 79h13M35 79h1M6 80h1M17 80h3M26 80h4M35 80h1M5 81h1M17 81h3M26 81h4M36 81h1M5 82h1M26 82h4M37 82h1M5 83h1M26 83h4M38 83h1M5 84h1M24 84h4M39 84h1M4 85h1M23 85h5M39 85h1M4 86h1M23 86h3M40 86h1M4 87h1M21 87h4M41 87h1M4 88h1M21 88h4M41 88h1M3 89h1M21 89h4M42 89h1M3 90h1M21 90h4M42 90h1M3 91h1M21 91h4M42 91h1M3 92h1M21 92h4M43 92h1M3 93h1M43 93h1M3 94h1M43 94h1M3 95h1M43 95h1M3 96h1M43 96h1M3 97h1M42 97h1M4 98h1M12 98h23M41 98h1M5 99h7M35 99h6" />
<path stroke="#fc7390" d="M15 14h1M18 14h5M14 15h9M13 16h11M13 17h11M16 18h8M37 18h2M17 19h6M35 19h5M5 20h3M18 20h5M32 20h7M6 21h6M19 21h4M30 21h8M6 22h10M28 22h10M7 23h10M28 23h10M8 24h16M30 24h7M8 25h18M31 25h6M9 26h19M32 26h5M10 27h19M34 27h2M10 28h20M35 28h1M10 29h5M16 29h7M24 29h4M29 29h1M11 30h3M15 30h8M24 30h5M30 30h1M12 31h2M15 31h8M24 31h5M30 31h1M12 32h2M29 32h1M31 32h1M13 33h1M19 33h1M28 33h2M31 33h1M14 34h1M19 34h1M25 34h5M31 34h1M14 35h3M18 35h5M24 35h6M31 35h1M14 36h3M18 36h5M24 36h6M31 36h1M14 37h3M18 37h5M25 37h5M7 38h1M14 38h3M7 39h1M14 39h3M7 40h1M14 40h3M7 41h1M14 41h3M7 42h1M14 42h3M6 43h2M14 43h3M6 44h2M14 44h3M6 45h1M14 45h4M6 46h1M14 46h4M6 47h1M14 47h4M6 48h1M14 48h4M14 49h4M14 50h4M14 51h4M13 52h5M13 53h6M13 54h6M32 54h1M13 55h6M32 55h2M13 56h6M32 56h2M13 57h6M32 57h2M14 58h4M33 58h1M14 64h4M14 65h4M14 66h4M15 67h2M6 74h2" />
<path stroke="#c74f69" d="M16 14h1M13 15h1M23 15h1M12 18h2M39 18h1M12 19h2M23 19h1M26 19h1M8 20h1M23 20h1M26 20h1M12 21h1M23 21h1M26 21h1M38 21h1M16 22h1M17 23h2M37 24h1M6 25h1M6 26h1M7 27h1M9 27h1M33 27h1M7 28h1M34 28h1M15 29h1M23 29h1M28 29h1M8 30h1M14 30h1M23 30h1M29 30h1M8 31h1M14 31h1M23 31h1M29 31h1M9 32h1M14 32h1M17 32h1M23 32h1M9 33h1M12 33h1M14 33h1M17 33h1M23 33h1M9 34h1M13 34h1M17 34h1M23 34h1M10 35h1M17 35h1M10 36h1M17 36h1M11 37h1M17 37h1M24 37h1M31 37h1M11 38h1M17 38h1M19 38h3M24 38h7M12 39h1M17 39h2M12 40h1M17 40h1M13 41h1M17 41h1M6 42h1M13 42h1M17 42h1M17 43h1M17 44h1M7 45h1M13 45h1M18 45h1M7 46h1M13 46h1M18 46h1M13 47h1M18 47h1M13 48h1M18 48h1M6 49h1M13 49h1M18 49h1M6 50h1M13 50h1M18 50h1M5 51h1M13 51h1M18 51h1M5 52h1M12 52h1M18 52h1M5 53h1M12 53h1M5 54h1M12 54h1M12 55h1M12 56h1M12 57h1M32 58h1M17 67h1M5 72h1M5 73h1M5 74h1" />
<path stroke="#b5006f" d="M17 14h1M24 16h1M24 17h2M14 18h2M24 18h2M14 19h3M24 19h2M13 20h5M24 20h2M39 20h1M5 21h1M17 21h1M24 21h2M39 21h1M5 22h1M27 22h1M38 22h1M5 23h2M27 23h1M38 23h1M6 24h2M24 24h6M38 24h1M7 25h1M26 25h5M37 25h1M7 26h2M28 26h4M37 26h1M8 27h1M29 27h3M36 27h2M8 28h2M30 28h3M36 28h1M8 29h2M30 29h4M35 29h2M9 30h2M31 30h3M35 30h2M9 31h3M31 31h3M35 31h1M10 32h2M32 32h3M10 33h2M32 33h3M10 34h3M32 34h3M11 35h3M32 35h3M11 36h3M32 36h3M7 37h1M12 37h2M12 38h2M32 38h1M8 39h2M13 39h1M32 39h1M8 40h2M13 40h1M32 40h1M8 41h1M32 41h1M8 42h1M32 42h1M32 43h2M32 44h2M8 45h1M32 45h2M8 46h2M32 46h2M7 47h4M31 47h3M7 48h4M31 48h4M7 49h5M31 49h4M5 50h1M7 50h6M31 50h4M6 51h7M31 51h4M6 52h6M30 52h5M6 53h6M19 53h1M30 53h6M6 54h6M19 54h1M30 54h2M33 54h3M5 55h7M19 55h1M30 55h2M34 55h2M4 56h8M19 56h1M30 56h2M34 56h2M4 57h2M7 57h5M19 57h1M30 57h2M34 57h2M4 58h2M7 58h6M18 58h1M31 58h1M34 58h1M4 59h2M7 59h4M15 59h2M32 59h2M4 60h2M7 60h2M5 61h1M7 61h1M5 62h1M5 63h1M14 63h4M32 63h2M31 64h4M31 65h4M31 66h4M3 67h1M32 67h2M3 68h1M3 69h2M3 70h2M4 71h1M4 72h1M4 73h1M6 73h1" />
<path stroke="#7f2e2a" d="M11 20h2M13 21h4M18 21h1M17 22h3M19 23h1M32 27h1M33 28h1M34 29h1M34 30h1M34 31h1M30 32h1M35 32h1M30 33h1M35 33h1M30 34h1M23 35h1M30 35h1M7 36h1M23 36h1M30 36h1M23 37h1M30 37h1M32 37h2M18 38h1M31 38h1M18 40h5M29 40h3M18 41h1M31 41h1M18 42h1M31 42h1M18 43h1M31 43h1M31 46h1M11 48h1M19 48h1M12 49h1M25 50h1M25 51h1M25 52h1M6 57h1M6 58h1M13 58h1M6 59h1M11 59h2M14 59h1M17 59h1M6 60h1M9 60h2M4 61h1M6 61h1M7 62h1M7 63h1M5 64h1M7 64h1M13 64h1M18 64h1M13 65h1M18 65h1M13 66h1M18 66h1M14 67h1M14 68h3M26 68h1M15 69h1" />
<path stroke="#8025d2" d="M20 22h4M20 23h5M5 28h1M5 29h1M6 30h1M6 31h1M6 32h1M6 33h2M7 34h1M7 35h1M8 36h1M8 37h2M8 38h2M10 40h1M10 41h1M10 42h1M9 43h1M9 44h1M20 49h2M20 50h2M26 53h2M14 61h4M32 61h2M8 64h1M8 65h1M9 66h4M10 69h4M8 81h5M31 81h5M7 82h7M31 82h1M36 82h1M6 83h2M13 83h1M6 84h1M36 84h2M10 85h5M30 85h1M33 85h6M8 86h8M30 86h1M32 86h2M39 86h1M6 87h3M32 87h1M40 87h1M6 88h2M31 88h1M5 89h2M4 90h2M4 91h1M4 92h1" />
<path stroke="#581476" d="M24 22h3M25 23h2M5 27h2M6 28h1M6 29h2M7 30h1M7 31h1M7 32h2M8 33h1M8 34h1M8 35h2M9 36h1M10 37h1M10 38h1M10 39h2M11 40h1M9 41h1M11 41h2M9 42h1M11 42h2M8 43h1M10 43h4M8 44h1M10 44h4M9 45h4M10 46h3M11 47h2M12 48h1M24 50h1M20 51h2M24 51h1M19 52h2M24 52h1M20 53h2M23 53h3M22 54h1M24 54h1M24 55h1M21 56h2M24 56h1M21 57h2M24 57h1M23 58h1M18 59h1M23 59h1M13 60h6M23 60h1M31 60h4M8 61h1M13 61h1M18 61h1M23 61h1M31 61h1M34 61h1M8 62h1M13 62h6M22 62h1M26 62h1M31 62h4M8 63h1M19 63h1M22 63h1M26 63h1M19 64h1M22 64h1M26 64h1M19 65h1M22 65h1M26 65h1M19 66h1M22 66h1M25 66h3M19 67h1M21 67h1M25 67h1M19 68h1M21 68h1M25 68h1M27 68h2M14 69h1M19 69h3M25 69h2M29 69h1M14 70h2M21 70h1M26 70h1M14 71h2M21 71h1M27 71h1M14 72h2M21 72h1M27 72h1M14 73h1M16 73h1M21 73h1M27 73h1M31 73h1M14 74h1M17 74h4M22 74h5M32 74h1M7 75h1M14 75h1M25 75h1M32 75h1M14 76h1M26 76h1M33 76h1M14 77h1M33 77h1M14 78h1M14 79h1M14 80h1M14 81h1M14 82h1M14 83h1M10 84h5M33 84h3M8 85h2M15 85h1M29 85h1M32 85h1M7 86h1M16 86h1M29 86h1M31 86h1M15 87h2M30 87h2M16 88h1M30 88h1M16 89h1M30 89h2M16 90h1M31 90h1M16 91h1M31 91h1M16 92h1M31 92h1M15 93h1M31 93h1M15 94h1M32 94h1M14 95h1M32 95h1M13 96h1M33 96h1M13 97h1M34 97h1" />
<path stroke="#f3a19b" d="M15 32h1M19 32h1M15 33h1M26 33h2M15 34h1M18 34h1M24 34h1M19 39h4M24 39h7M28 40h1M23 41h1M21 42h1M29 42h1M19 43h2M28 43h2M19 45h2M30 45h2M27 48h2M19 49h1M26 49h1M22 50h2M22 51h2M28 52h1M11 67h2M10 68h3" />
<path stroke="#f1e3e8" d="M16 32h1M18 32h1M20 32h3M24 32h5M16 33h1M18 33h1M20 33h3M24 33h2M16 34h1M20 34h3M24 40h4M24 41h4M23 42h5M23 43h5M22 44h6M21 45h9M21 46h9M20 47h3M26 47h3M23 48h4M27 49h2M26 50h3M26 51h3M26 52h2" />
<path stroke="#d26985" d="M22 38h2M23 39h1M31 39h1M23 40h1M19 41h3M28 41h2M19 42h2M28 42h1M18 44h3M28 44h1M29 47h1M20 48h2M22 49h4M19 50h1M19 51h1M21 52h3M22 53h1M10 67h1M13 67h1M26 67h2M13 68h1" />
<path stroke="#e9c2c6" d="M22 41h1M30 41h1M21 44h1M29 44h3M19 46h2M30 46h1M19 47h1M23 47h3M22 48h1" />
<path stroke="#fefefe" d="M22 42h1M30 42h1M21 43h2M30 43h1M26 54h1M25 55h3M25 56h3M25 57h3M25 58h2M24 59h3M24 60h3M24 61h2M12 62h1M24 62h2M10 63h3M24 63h2M9 64h3M24 64h1M9 65h2M12 65h1M10 70h4M16 70h5M22 70h4M10 71h4M16 71h1M20 71h1M22 71h1M26 71h1M9 72h5M9 73h5M15 73h1M32 73h2M9 74h5M15 74h2M21 74h1M28 74h3M33 74h1M9 75h5M15 75h10M28 75h3M33 75h1M8 76h6M15 76h11M28 76h4M8 77h6M15 77h18M8 78h6M15 78h2M30 78h4M8 79h6M15 79h2M30 79h4M7 80h7M15 80h2M20 80h6M30 80h5M7 81h1M13 81h1M15 81h2M20 81h6M30 81h1M15 82h11M30 82h1M32 82h4M8 83h5M15 83h11M30 83h1M32 83h5M7 84h3M15 84h9M28 84h3M32 84h1M6 85h2M16 85h7M28 85h1M6 86h1M17 86h6M26 86h3M34 86h3M9 87h6M17 87h4M25 87h5M33 87h1M8 88h1M17 88h4M25 88h5M32 88h1M7 89h1M17 89h4M25 89h5M32 89h1M6 90h1M17 90h4M25 90h6M5 91h1M17 91h4M25 91h6M5 92h1M17 92h4M25 92h6M4 93h1M16 93h15M16 94h16M15 95h17M14 96h19M14 97h20" />
<path stroke="#9c83b5" d="M20 54h1M21 55h1M23 55h1M13 59h1M19 59h1M19 60h2M19 61h4M19 62h3M27 62h1M18 63h1M20 63h2M27 63h1M20 64h1M27 64h1M27 65h1M17 68h1M20 68h1M16 69h3M24 69h1M9 70h1M29 70h1M28 72h1M8 73h1M26 73h1M8 74h1M35 98h1" />
<path stroke="#c7b1d9" d="M21 54h1M23 54h1M20 55h1M22 55h1M20 56h1M23 56h1M20 57h1M23 57h1M19 58h4M24 58h1M20 59h3M11 60h2M21 60h2M9 61h2M26 61h1M23 62h1M13 63h1M21 64h1M20 65h2M25 65h1M20 66h2M20 67h1M22 67h1M22 68h1M24 68h1M22 69h2M27 70h1M28 71h1M17 72h2M24 72h2M17 73h2M24 73h2M28 73h1M27 74h1M31 74h1M26 75h1M32 76h1M34 79h1M6 82h1M5 85h1M5 86h1M5 87h1M5 88h1M15 88h1M40 88h1M4 89h1M15 89h1M41 89h1M15 90h1M15 91h1M15 92h1M42 92h1M32 93h1M14 94h1M33 95h1M42 96h1M12 97h1M5 98h1M11 98h1M36 98h2" />
<path stroke="#d9c6e8" d="M25 54h1M27 54h1M11 61h2M9 62h3M9 63h1M23 63h1M12 64h1M23 64h1M25 64h1M11 65h1M23 65h2M23 66h2M18 67h1M23 67h2M18 68h1M23 68h1M27 69h2M28 70h1M9 71h1M17 71h3M23 71h3M29 71h1M16 72h1M19 72h2M22 72h2M26 72h1M29 72h2M19 73h2M22 73h2M29 73h2M8 75h1M27 75h1M31 75h1M27 76h1M7 78h1M7 79h1M6 81h1M31 83h1M37 83h1M31 84h1M38 84h1M31 85h1M37 86h2M34 87h6M9 88h6M33 88h7M8 89h7M33 89h8M7 90h8M32 90h10M6 91h9M32 91h10M6 92h9M32 92h10M5 93h10M33 93h10M4 94h10M33 94h10M4 95h10M34 95h9M4 96h9M34 96h8M4 97h8M35 97h7M6 98h5M38 98h3" />
</svg>