<svg xmlns="http://www.w3.org/2000/svg" viewBox="0 -0.5 45 100" shape-rendering="crispEdges">
<metadata>Made with Pixels to Svg https://codepen.io/shshaw/pen/XbxvNj</metadata>
<path stroke="#000000" d="M12 12h2M32 12h1M11 13h1M14 13h4M31 13h1M33 13h1M12 14h1M18 14h3M30 14h1M33 14h1M13 15h1M21 15h2M30 15h1M33 15h1M14 16h1M23 16h2M29 16h1M34 16h1M15 17h1M25 17h4M34 17h1M15 18h1M34 18h1M13 19h2M35 19h1M12 20h1M35 20h1M10 21h2M35 21h1M9 22h1M34 22h1M7 23h2M35 23h1M6 24h1M36 24h1M4 25h2M35 25h1M37 25h1M3 26h1M36 26h1M2 27h1M36 27h1M3 28h2M37 28h1M5 29h1M37 29h1M6 30h1M38 30h1M7 31h1M38 31h1M8 32h1M39 32h1M8 33h1M39 33h1M7 34h1M40 34h1M7 35h1M39 35h2M7 36h1M36 36h3M7 37h1M33 37h3M6 38h1M32 38h1M6 39h1M32 39h1M6 40h1M32 40h1M6 41h1M32 41h1M5 42h1M32 42h1M5 43h1M32 43h1M5 44h1M26 44h4M32 44h1M5 45h1M25 45h1M29 45h1M32 45h1M5 46h1M26 46h1M29 46h1M32 46h1M4 47h1M26 47h1M29 47h1M32 47h1M4 48h1M26 48h1M29 48h1M32 48h1M4 49h1M26 49h1M29 49h1M32 49h1M4 50h1M26 50h1M29 50h1M32 50h1M3 51h1M26 51h1M29 51h1M31 51h1M3 52h1M26 52h1M29 52h1M31 52h1M3 53h1M26 53h1M29 53h1M31 53h1M3 54h1M26 54h1M29 54h2M3 55h1M26 55h1M29 55h2M2 56h1M26 56h1M29 56h1M2 57h1M26 57h1M2 58h1M25 58h1M2 59h1M25 59h1M2 60h1M25 60h1M2 61h1M25 61h1M2 62h1M25 62h1M2 63h1M26 63h1M2 64h1M27 64h1M2 65h1M27 65h1M3 66h1M27 66h1M3 67h1M28 67h1M4 68h1M29 68h1M4 69h1M6 69h1M29 69h1M5 70h1M7 70h1M30 70h1M7 71h1M30 71h1M8 72h1M30 72h1M5 73h4M17 73h6M28 73h5M5 74h1M32 74h1M5 75h1M32 75h1M5 76h1M32 76h1M5 77h1M32 77h1M5 78h1M32 78h1M5 79h1M14 79h7M32 79h2M5 80h1M14 80h7M32 80h1M34 80h1M5 81h1M12 81h4M21 81h2M32 81h1M34 81h1M5 82h1M12 82h4M21 82h2M32 82h1M35 82h1M5 83h1M12 83h6M21 83h2M32 83h1M36 83h1M5 84h1M14 84h4M20 84h1M32 84h1M37 84h1M5 85h1M14 85h7M32 85h1M38 85h1M5 86h1M12 86h13M32 86h1M39 86h1M5 87h1M12 87h2M17 87h8M32 87h1M40 87h1M5 88h1M12 88h2M21 88h4M32 88h1M41 88h1M5 89h1M12 89h2M21 89h4M32 89h1M42 89h1M5 90h1M12 90h2M21 90h4M32 90h1M42 90h1M5 91h1M12 91h2M21 91h4M32 91h1M43 91h1M5 92h1M14 92h9M32 92h1M43 92h1M5 93h1M14 93h9M32 93h2M43 93h1M5 94h1M32 94h1M43 94h1M5 95h1M32 95h1M34 95h1M42 95h1M5 96h1M32 96h2M35 96h7M5 97h1M32 97h1M5 98h1M32 98h1M5 99h28" />
<path stroke="#ffffff" d="M12 13h2M13 14h5M31 14h1M14 15h7M31 15h1M15 16h8M30 16h1M16 17h9M30 17h1M17 18h8M27 18h2M18 19h5M26 19h1M19 20h1M24 20h3M23 21h5M22 22h6M21 23h8M20 24h9M25 25h4M25 36h1M24 37h2M24 38h1M24 39h1M30 39h1M30 40h1M22 67h3M22 68h1M22 69h1M6 74h3M17 74h6M27 74h5M6 75h4M14 75h1M17 75h15M6 76h5M14 76h2M17 76h15M6 77h4M13 77h19M6 78h4M13 78h19M6 79h3M12 79h2M21 79h11M6 80h3M11 80h3M21 80h11M6 81h2M11 81h1M16 81h5M23 81h9M6 82h2M11 82h1M16 82h5M23 82h9M6 83h2M10 83h2M18 83h3M23 83h9M6 84h1M10 84h4M18 84h2M21 84h11M6 85h1M10 85h4M21 85h11M6 86h1M10 86h2M25 86h7M38 86h1M9 87h3M14 87h3M25 87h7M39 87h1M9 88h3M14 88h7M25 88h7M9 89h3M14 89h7M25 89h7M9 90h3M14 90h7M25 90h7M9 91h3M14 91h7M25 91h7M9 92h5M23 92h9M9 93h5M23 93h9M6 94h1M10 94h22M6 95h1M11 95h21M6 96h2M14 96h18M6 97h3M19 97h13M6 98h5M20 98h12" />
<path stroke="#9d9dcb" d="M32 13h1M32 14h1M32 15h1M31 16h3M29 17h1M31 17h3M25 18h2M30 18h4M17 19h1M23 19h3M28 19h1M31 19h4M18 20h1M20 20h4M31 20h4M19 21h3M33 21h2M34 23h1M35 24h1M36 25h1M25 35h1M24 36h1M31 37h1M31 38h1M23 39h1M21 67h1M21 68h1M23 68h2M21 69h1M23 69h2M40 88h1M41 89h1M41 90h1M37 91h2M42 91h1M36 92h2M42 92h1M35 93h2M42 93h1M33 94h2M42 94h1" />
<path stroke="#525d9f" d="M16 18h1M29 18h1M27 19h1M29 19h2M27 20h1M30 20h1M22 21h1M20 22h1M23 38h1M22 39h1M23 40h1M19 53h1M18 54h1M20 54h1M20 55h1M19 56h2M26 64h1M26 65h1M26 66h1M25 67h1M27 69h1M26 70h1M18 71h3M27 71h1M28 72h1M33 80h1M34 82h1M34 83h2M35 84h1M35 85h2M36 86h1M36 87h2M37 88h3M38 89h2M38 90h2M40 91h1M33 92h1M40 92h1M34 93h1M39 93h1M38 94h1M33 95h1M35 95h1M41 95h1" />
<path stroke="#8b5043" d="M15 19h2M13 20h1M28 20h2M31 21h2M21 22h1M28 22h1M33 22h1M16 24h3M12 25h4M29 25h1M8 26h3M25 26h1M29 26h1M5 27h2M25 27h1M29 27h1M24 28h1M29 28h1M36 28h1M29 29h1M36 29h1M23 30h1M28 30h1M30 30h1M36 30h2M23 31h1M30 31h1M36 31h1M9 32h1M22 32h1M31 32h1M36 32h1M38 32h1M10 33h2M31 33h1M34 33h4M12 34h2M21 34h1M31 34h1M33 34h6M14 35h2M21 35h1M32 35h4M20 36h1M32 36h1M20 37h1M32 37h1M20 38h1M20 39h1M20 40h1M31 40h1M20 41h1M31 41h1M20 42h1M31 42h1M30 43h2M21 44h2M30 44h2M30 45h2M30 46h2M30 47h2M30 48h2M30 49h2M30 50h2M30 51h1M30 52h1M30 53h1M4 55h1M4 56h1M4 57h1M4 58h1M4 59h1M4 60h1M4 61h1M4 62h1M9 62h1M4 63h1M9 63h1M3 64h1M5 64h1M10 64h1M3 65h1M5 65h1M10 65h1M5 66h1M10 66h1M5 67h1M11 67h1M5 68h2M11 68h1M5 69h1M7 69h1M11 69h1M11 70h2M11 71h2M11 72h3M16 72h1M11 73h3M16 73h1M9 74h1M11 74h1M13 74h2M16 74h1M10 75h2M13 75h1M15 75h2M11 76h1M16 76h1" />
<path stroke="#d89c60" d="M14 20h1M12 21h1M19 23h2M31 23h1M15 24h1M32 24h1M11 25h1M20 25h4M32 25h1M7 26h1M24 26h1M30 26h1M33 26h1M4 27h1M17 27h1M24 27h1M33 27h1M31 28h1M34 28h1M34 29h1M7 30h1M32 30h1M34 30h1M8 31h2M16 31h1M22 31h1M31 31h1M34 31h1M10 32h2M17 32h1M34 32h1M12 33h2M18 33h1M33 33h1M14 34h2M19 34h1M32 34h1M9 35h1M11 35h2M19 35h1M9 36h1M12 36h1M15 36h1M19 36h1M8 37h1M10 37h1M12 37h1M15 37h1M19 37h1M8 38h1M10 38h1M12 38h1M15 38h1M19 38h1M10 39h1M12 39h1M15 39h1M19 39h1M7 40h1M9 40h1M15 40h1M19 40h1M7 41h1M9 41h1M16 41h1M19 41h1M9 42h1M16 42h1M17 43h1M20 43h1M18 44h1M12 45h1M19 45h3M6 46h1M12 46h1M12 47h1M5 48h1M12 48h1M5 49h1M12 49h1M5 50h1M12 50h1M5 51h1M12 51h1M5 52h1M12 52h1M5 53h1M12 53h1M5 54h1M12 54h1M5 55h1M8 55h1M5 56h1M8 56h1M5 57h1M8 57h1M15 57h1M5 58h1M9 58h1M15 58h1M6 59h1M9 59h1M15 59h1M6 60h1M15 60h1M6 61h1M15 61h1M6 62h1M10 62h1M15 62h1M7 63h1M15 63h1M7 64h1M15 64h1M8 65h1M11 65h1M15 65h1M8 66h1M11 66h1M15 66h1M8 67h1M15 67h1M9 68h1M12 68h1M15 68h1M9 69h1M15 69h1M15 70h1M15 71h1M15 73h1M11 77h1M10 78h1M12 78h1M9 79h1M11 79h1M9 80h1M8 81h1M10 81h1M8 82h1M10 82h1M9 83h1M7 84h1M9 84h1M7 85h1M9 85h1M7 86h1M9 86h1M6 87h1M8 87h1M6 88h1M8 88h1M6 89h1M8 89h1M6 90h1M8 90h1M6 91h1M8 91h1M6 92h1M8 92h1M6 93h1M8 93h1M7 94h1M9 94h1M7 95h1M10 95h1M8 96h1M11 96h3M9 97h2M14 97h5M11 98h2M19 98h1" />
<path stroke="#fdc97c" d="M15 20h3M13 21h6M10 22h1M12 22h8M9 23h1M13 23h6M7 24h4M13 24h2M19 24h1M6 25h5M18 25h2M4 26h3M18 26h6M3 27h1M18 27h2M22 27h2M26 27h2M30 27h1M17 28h2M25 28h3M30 28h1M16 29h3M23 29h1M25 29h1M31 29h1M16 30h5M25 30h1M31 30h1M17 31h5M26 31h1M32 31h1M16 32h1M18 32h4M32 32h1M16 33h2M19 33h3M32 33h1M16 34h3M20 34h1M16 35h3M11 36h1M16 36h3M9 37h1M11 37h1M16 37h3M9 38h1M11 38h1M16 38h3M8 39h2M11 39h1M16 39h3M8 40h1M10 40h2M16 40h3M8 41h1M10 41h2M15 41h1M17 41h2M7 42h2M10 42h2M15 42h1M17 42h3M7 43h5M15 43h2M18 43h2M7 44h5M15 44h2M19 44h2M7 45h5M15 45h2M7 46h5M14 46h3M6 47h6M14 47h3M7 48h5M14 48h2M7 49h2M10 49h2M14 49h2M7 50h2M10 50h2M14 50h2M7 51h2M10 51h2M13 51h3M7 52h2M10 52h2M13 52h3M7 53h3M11 53h1M13 53h3M6 54h4M11 54h1M13 54h3M6 55h2M9 55h1M11 55h5M6 56h2M9 56h1M11 56h5M6 57h2M9 57h6M6 58h3M10 58h5M7 59h2M10 59h5M7 60h2M10 60h5M7 61h2M10 61h5M7 62h2M11 62h4M8 63h1M11 63h4M8 64h1M11 64h4M12 65h3M12 66h3M12 67h3M13 68h2M13 69h2M14 70h1M14 71h1M15 72h1M11 78h1M10 79h1M10 80h1M9 81h1M9 82h1M8 83h1M8 84h1M8 85h1M8 86h1M7 87h1M9 95h1M9 96h2M11 97h3M13 98h6" />
<path stroke="#d57622" d="M28 21h3M29 22h4M29 23h2M32 23h2M29 24h3M33 24h2M16 25h2M24 25h1M30 25h2M33 25h2M11 26h7M26 26h3M31 26h2M34 26h2M7 27h10M28 27h1M31 27h2M34 27h2M5 28h12M28 28h1M32 28h2M35 28h1M6 29h10M28 29h1M32 29h2M35 29h1M8 30h8M33 30h1M35 30h1M10 31h6M33 31h1M35 31h1M37 31h1M12 32h4M33 32h1M35 32h1M37 32h1M9 33h1M14 33h2M38 33h1M8 34h4M39 34h1M8 35h1M10 35h1M13 35h1M20 35h1M36 35h3M8 36h1M10 36h1M13 36h2M33 36h3M13 37h2M7 38h1M13 38h2M7 39h1M13 39h2M12 40h3M12 41h3M6 42h1M12 42h3M6 43h1M12 43h3M6 44h1M12 44h3M17 44h1M6 45h1M13 45h2M13 46h1M5 47h1M13 47h1M13 48h1M13 49h1M13 50h1M4 51h1M4 52h1M4 53h1M4 54h1M3 56h1M3 57h1M3 58h1M3 59h1M5 59h1M3 60h1M5 60h1M9 60h1M3 61h1M5 61h1M9 61h1M3 62h1M5 62h1M3 63h1M5 63h2M10 63h1M4 64h1M6 64h1M9 64h1M4 65h1M6 65h2M9 65h1M4 66h1M6 66h2M9 66h1M4 67h1M6 67h2M9 67h2M7 68h2M10 68h1M8 69h1M10 69h1M12 69h1M8 70h3M13 70h1M8 71h3M13 71h1M9 72h2M14 72h1M9 73h2M14 73h1M10 74h1M12 74h1M15 74h1M12 75h1M12 76h2M10 77h1M12 77h1" />
<path stroke="#feeccd" d="M11 22h1M10 23h3M11 24h2M20 27h2M19 28h5M19 29h4M26 29h2M21 30h2M26 30h2M27 31h1M6 48h1M6 49h1M9 49h1M6 50h1M9 50h1M6 51h1M9 51h1M6 52h1M9 52h1M6 53h1M10 53h1M10 54h1M10 55h1M10 56h1M7 88h1M7 89h1M7 90h1M7 91h1M7 92h1M7 93h1M8 94h1M8 95h1" />
<path stroke="#c52f58" d="M24 29h1M24 30h1M29 30h1M24 31h2M28 31h1M23 32h1M26 32h2M22 33h1M27 33h1M22 34h1M30 35h2M21 36h1M30 36h1M21 37h1M16 52h1M16 53h1M16 54h2M16 55h2M22 56h1M16 57h1M19 57h1M16 58h1M18 58h1M16 59h1M18 59h3M16 60h1M18 60h4M16 61h1M18 61h3M17 62h4M18 63h2M25 63h1M18 64h1M25 64h1M25 65h1M25 66h1M17 67h1M17 68h1M16 69h2M16 70h2M16 71h2M27 72h1M27 73h1M25 74h2" />
<path stroke="#ed9068" d="M30 29h1M29 31h1M28 32h3M28 33h1M30 33h1M23 34h1M26 36h1M29 37h1M29 38h1M21 39h1M21 40h1M21 41h3M29 41h2M21 42h1M30 42h1M22 43h1M18 46h1M23 46h2M25 47h1M18 50h1M22 50h1M19 51h1M22 51h1M19 52h4M20 53h1M22 53h1M25 56h1M25 57h1M21 62h2M20 63h3M22 64h1M18 65h1M21 65h1M24 65h1M21 66h1M24 66h1M18 70h1M22 70h1M21 71h1M22 72h1M26 72h1M23 73h1M26 73h1M23 74h1" />
<path stroke="#d26b6a" d="M24 32h2M26 33h1M30 34h1M22 35h1M26 35h1M21 38h1M22 40h1M21 43h1M24 43h2M29 43h1M17 45h2M22 45h1M17 46h1M17 47h1M16 48h2M16 49h2M16 50h2M16 51h3M23 51h1M17 52h2M23 52h1M17 53h2M21 53h1M23 53h1M19 54h1M21 54h2M19 55h1M21 55h2M21 57h2M20 58h3M21 59h2M22 60h1M21 61h2M16 62h1M16 63h2M16 64h2M16 65h2M16 66h2M16 67h1M16 68h1M21 70h1M23 70h3M21 72h1M24 73h2M24 74h1" />
<path stroke="#f4bb89" d="M23 33h3M29 33h1M27 34h3M27 35h3M27 36h3M26 37h3M25 38h4M25 39h4M24 40h5M24 41h5M22 42h8M23 43h1M26 43h3M19 46h4M18 47h7M18 48h8M18 49h8M19 50h3M23 50h3M20 51h2M24 51h2M24 52h2M24 53h2M23 54h3M23 55h3M23 56h2M23 57h2M23 58h2M23 59h2M23 60h2M23 61h2M23 62h2M23 63h2M19 64h3M23 64h2M19 65h2M22 65h2M18 66h3M22 66h2M18 67h3M18 68h3M18 69h3M19 70h2M22 71h5M23 72h3" />
<path stroke="#1b1779" d="M24 34h3M23 35h2M22 36h2M31 36h1M22 37h2M30 37h1M22 38h1M30 38h1M29 39h1M29 40h1M18 55h1M16 56h3M21 56h1M17 57h2M20 57h1M17 58h1M19 58h1M17 59h1M17 60h1M17 61h1M26 67h2M25 68h4M25 69h2M28 69h1M27 70h3M28 71h2M17 72h4M29 72h1M33 81h1M33 82h1M33 83h1M33 84h2M36 84h1M33 85h2M37 85h1M33 86h3M37 86h1M33 87h3M38 87h1M33 88h4M33 89h5M40 89h1M33 90h5M40 90h1M33 91h4M39 91h1M41 91h1M34 92h2M38 92h2M41 92h1M37 93h2M40 93h2M35 94h3M39 94h3M36 95h5" />
<path stroke="#9a1f46" d="M31 39h1M23 44h3M23 45h2M25 46h1" />
</svg>