<svg xmlns="http://www.w3.org/2000/svg" viewBox="0 -0.5 45 100" shape-rendering="crispEdges">
<metadata>Made with Pixels to Svg https://codepen.io/shshaw/pen/XbxvNj</metadata>
<path stroke="#000000" d="M3 22h4M3 23h1M7 23h4M4 24h1M11 24h4M4 25h1M15 25h26M5 26h1M40 26h1M5 27h1M40 27h1M5 28h1M39 28h1M6 29h1M39 29h1M6 30h1M38 30h1M6 31h1M38 31h1M5 32h1M37 32h1M5 33h1M37 33h1M5 34h1M36 34h1M5 35h1M35 35h1M5 36h1M34 36h1M5 37h1M34 37h1M5 38h1M34 38h1M5 39h1M34 39h1M5 40h1M34 40h1M6 41h1M34 41h1M6 42h1M33 42h1M6 43h1M33 43h1M7 44h1M33 44h1M7 45h1M9 45h1M33 45h1M8 46h1M10 46h1M33 46h1M10 47h1M32 47h1M10 48h1M32 48h1M10 49h1M32 49h1M10 50h1M12 50h3M32 50h1M10 51h2M15 51h2M32 51h1M17 52h1M32 52h1M17 53h1M33 53h1M17 54h1M34 54h1M17 55h1M34 55h1M17 56h1M34 56h1M17 57h1M35 57h1M17 58h1M35 58h1M17 59h1M36 59h1M17 60h1M36 60h1M17 61h1M37 61h1M17 62h1M38 62h1M17 63h1M38 63h1M17 64h1M38 64h1M17 65h1M38 65h1M17 66h1M38 66h1M16 67h2M38 67h1M15 68h1M38 68h1M13 69h2M38 69h1M11 70h2M38 70h3M9 71h2M40 71h1M8 72h1M40 72h1M7 73h1M40 73h1M7 74h1M40 74h1M7 75h1M40 75h1M7 76h1M40 76h1M7 77h1M20 77h9M40 77h1M6 78h1M13 78h1M20 78h9M40 78h2M6 79h1M13 79h1M18 79h4M27 79h4M40 79h2M6 80h1M13 80h1M18 80h4M27 80h4M40 80h1M42 80h1M6 81h1M13 81h1M18 81h4M27 81h4M40 81h1M42 81h1M6 82h1M13 82h1M18 82h4M27 82h4M40 82h3M6 83h1M13 83h1M18 83h4M27 83h4M40 83h2M43 83h1M6 84h1M13 84h1M20 84h11M40 84h2M43 84h1M6 85h1M13 85h1M20 85h11M40 85h2M43 85h1M5 86h1M13 86h1M27 86h4M40 86h2M43 86h1M5 87h1M13 87h1M27 87h4M40 87h2M43 87h1M5 88h1M13 88h1M25 88h4M40 88h2M43 88h1M5 89h1M13 89h1M25 89h4M40 89h2M43 89h1M5 90h1M13 90h1M20 90h7M40 90h2M43 90h1M5 91h1M13 91h1M20 91h7M40 91h2M43 91h1M4 92h1M13 92h1M40 92h2M43 92h1M4 93h1M13 93h1M40 93h1M42 93h1M4 94h1M13 94h1M40 94h1M4 95h1M12 95h2M40 95h1M4 96h1M12 96h2M40 96h1M4 97h1M11 97h1M13 97h17M36 97h5M4 98h1M9 98h2M30 98h1M35 98h1M5 99h4M31 99h4" />
<path stroke="#6f8da2" d="M4 23h3M5 24h6M6 25h7M7 26h6M16 26h22M7 27h4M13 27h24M8 28h1M11 28h16M29 28h7M9 29h20M31 29h3M8 30h5M14 30h15M32 30h1M7 31h6M15 31h15M7 32h6M15 32h14M8 33h4M16 33h11M29 33h1M8 34h1M11 34h1M16 34h1M20 34h1M24 34h1M27 34h3M35 34h1M8 35h1M11 35h1M16 35h1M20 35h2M23 35h2M26 35h3M34 35h1M6 36h5M16 36h6M23 36h1M26 36h1M6 37h5M17 37h4M23 37h1M7 38h1M9 38h2M17 38h4M7 39h1M9 39h2M17 39h4M7 40h1M9 40h2M18 40h2M7 41h1M9 41h2M18 41h2M10 42h1M19 42h1M8 43h1M10 43h1M19 43h1M10 44h1M10 45h1" />
<path stroke="#2e4d6d" d="M5 25h1M38 26h2M6 27h1M37 27h3M6 28h2M36 28h3M7 29h1M34 29h4M7 30h1M13 30h1M31 30h1M33 30h5M30 31h7M14 32h1M31 32h5M13 33h1M31 33h5M12 34h1M31 34h4M12 35h1M25 35h1M31 35h3M12 36h1M31 36h2M12 37h1M30 37h4M12 38h1M21 38h1M28 38h1M30 38h4M23 39h1M25 39h2M28 39h6M8 40h1M26 40h7M8 41h1M27 41h6M9 42h1M20 42h1M27 42h5M9 43h1M20 43h1M27 43h5M9 44h1M27 44h5M11 45h1M19 45h1M27 45h5M11 46h1M27 46h5M11 47h1M27 47h2M30 47h2M11 48h1M27 48h2M30 48h2M11 49h2M27 49h2M30 49h1M11 50h1M27 50h1M27 51h1M23 52h1M27 52h1M20 53h3M41 80h1M41 81h1M42 83h1M42 84h1M42 85h1M42 86h1M42 87h1M42 88h1M42 89h1M42 90h1M42 91h1M42 92h1" />
<path stroke="#47688c" d="M13 25h2M6 26h1M13 26h3M11 27h2M9 28h2M27 28h2M8 29h1M29 29h2M38 29h1M29 30h2M14 31h1M37 31h1M30 32h1M36 32h1M12 33h1M15 33h1M30 33h1M36 33h1M15 34h1M30 34h1M15 35h1M22 35h1M29 35h2M15 36h1M22 36h1M24 36h1M27 36h4M33 36h1M16 37h1M21 37h2M24 37h1M26 37h4M6 38h1M8 38h1M16 38h1M22 38h2M26 38h2M29 38h1M6 39h1M8 39h1M16 39h1M22 39h1M27 39h1M6 40h1M17 40h1M20 40h1M22 40h1M33 40h1M17 41h1M20 41h1M26 41h1M33 41h1M7 42h2M18 42h1M26 42h1M32 42h1M7 43h1M18 43h1M26 43h1M32 43h1M8 44h1M19 44h1M26 44h1M32 44h1M8 45h1M26 45h1M32 45h1M26 46h1M32 46h1M26 47h1M26 48h1M26 49h1" />
<path stroke="#282638" d="M13 31h1M13 32h1M11 36h1M11 37h1M11 38h1M11 39h2M21 39h1M11 40h2M11 41h1M11 42h1M11 43h1M11 44h1M12 45h1M12 46h1M12 47h1M29 47h1M12 48h1M29 48h1M29 49h1M31 49h1M26 50h1M28 50h1M30 50h1M26 51h1M26 52h1M26 53h1M16 68h2M29 68h9M15 69h3M29 69h9M13 70h5M32 70h6M13 71h5M33 71h5M14 72h4M33 72h4M14 73h4M33 73h3M15 74h3M33 74h2M15 75h3M15 76h1M25 82h1M7 84h6M7 85h4M36 93h1M36 94h1M5 95h1M11 95h1M5 96h6M35 96h1M6 97h3M30 97h5" />
<path stroke="#a8abb4" d="M6 32h1M29 32h1M6 33h1M27 33h2M6 34h1M22 34h1M6 35h1M19 35h1M30 51h1M23 53h1M23 54h1M20 55h1M32 55h1M20 56h3M32 56h1M21 57h2M33 57h1M22 58h1M33 58h1M34 59h1M34 60h1M35 61h1M37 64h1M37 65h1M32 82h1M32 83h1M33 84h1M11 85h1M33 85h1M11 86h1M34 86h1M11 87h1M11 88h1M11 89h1M11 90h1M11 91h1M12 92h1M36 92h1M12 94h1M36 95h1M11 96h1M36 96h1M5 97h1M9 97h2M35 97h1M31 98h4" />
<path stroke="#e3eaef" d="M7 33h1M7 34h1M9 34h2M17 34h3M21 34h1M23 34h1M25 34h2M7 35h1M9 35h2M17 35h2M30 52h1M30 53h1M20 54h3M30 54h1M21 55h2M18 64h1M27 64h1M18 65h1M18 66h1M18 67h1M25 67h1M18 68h1M25 68h1M18 69h1M25 69h1M18 70h1M24 70h1M18 71h1M23 71h1M19 74h1M34 87h1M34 88h1M35 89h1M35 90h1M36 91h1M12 93h1M5 98h4" />
<path stroke="#f09072" d="M14 33h1M13 34h1M13 35h1M13 36h1M13 37h1M13 38h1M24 38h1M21 40h1M21 41h1M25 41h1M22 42h1M14 48h2M24 48h2M18 51h1M22 51h1M27 70h1M32 73h1M31 74h2M30 75h2M13 76h1M12 77h1M30 77h1M8 78h5M8 79h5M8 80h5M8 81h5M8 82h5M7 83h5" />
<path stroke="#f6c1a3" d="M14 34h1M14 35h1M13 40h3M21 43h1M20 44h2M20 45h1M13 46h1M22 46h1M14 47h2M23 47h3M13 48h1M23 48h1M15 50h1M19 50h3M24 50h1M28 70h4M11 71h1M26 71h1M31 71h2M9 72h1M25 72h1M32 72h1M14 74h1M30 74h1M13 75h2M25 75h1M29 75h1M11 76h2M8 77h4M7 78h1M7 79h1M7 80h1M7 81h1M7 82h1" />
<path stroke="#f9eedf" d="M14 36h1M14 37h2M14 38h2M15 39h1M16 40h1M23 40h2M16 41h1M17 42h1M17 43h1M17 44h2M17 45h2M21 45h1M17 46h5M13 47h1M16 47h7M16 48h7M14 49h12M16 50h3M22 50h2M19 51h3M12 71h1M27 71h4M10 72h4M26 72h6M8 73h6M25 73h7M8 74h6M25 74h5M8 75h5M26 75h3M8 76h3" />
<path stroke="#c36e51" d="M25 36h1M25 37h1M25 38h1M13 39h2M24 39h1M25 40h1M12 41h1M12 42h1M21 42h1M12 43h1M12 44h1M25 50h1M23 51h1M20 52h3" />
<path stroke="#71082a" d="M13 41h3M22 41h3M14 42h1M16 42h1M23 42h3M14 43h1M16 43h1M23 43h1M16 44h1M23 44h1M16 45h1M14 46h3M23 46h3M24 51h2M18 52h2M24 52h2M18 53h2M24 53h1M27 53h1M32 53h1M26 54h2M32 54h2M18 55h1M25 55h3M33 55h1M18 56h1M25 56h1M27 56h1M18 57h1M20 57h1M26 57h2M34 57h1M18 58h1M20 58h2M26 58h2M32 58h1M18 59h1M20 59h3M26 59h2M31 59h2M35 59h1M18 60h1M20 60h3M25 60h2M31 60h3M35 60h1M18 61h1M20 61h4M25 61h2M31 61h3M18 62h2M21 62h4M26 62h1M31 62h4M19 63h1M26 63h1M31 63h3M36 63h1M19 64h1M25 64h1M30 64h2M36 64h1M20 65h3M25 65h1M29 65h8M20 66h5M29 66h9M21 67h4M28 67h2M34 67h4M22 68h2M28 68h1M22 69h1M27 69h2M24 73h1M24 74h1M24 75h1M17 76h1M17 77h1M25 80h1M25 81h1M32 81h1M33 83h1M12 85h1M32 85h1M34 85h1M6 86h1M10 86h1M12 86h1M32 86h1M35 86h1M7 87h4M12 87h1M32 87h1M35 87h1M7 88h4M12 88h1M32 88h1M35 88h1M7 89h4M12 89h1M30 89h3M36 89h1M7 90h4M12 90h1M30 90h4M36 90h1M7 91h4M12 91h1M29 91h5M7 92h4M30 92h3M7 93h5M7 94h4M6 95h5M35 95h1" />
<path stroke="#fefefe" d="M13 42h1M13 43h1M22 43h1M13 44h1M22 44h1M13 45h1M22 45h1M30 55h1M30 56h1M29 57h1M29 58h1M29 59h1M29 60h1M28 61h1M28 62h1M36 62h1M27 63h1M37 63h1M22 64h1M26 65h1M26 66h1M38 71h2M19 72h1M37 72h3M19 73h1M36 73h4M35 74h5M20 75h1M34 75h6M16 76h1M19 76h11M32 76h8M14 77h3M19 77h1M29 77h1M32 77h8M14 78h6M29 78h11M14 79h4M22 79h5M31 79h9M14 80h4M22 80h1M26 80h1M31 80h9M14 81h4M22 81h1M26 81h1M31 81h1M33 81h7M14 82h4M22 82h1M26 82h1M31 82h1M33 82h7M14 83h4M22 83h5M31 83h1M34 83h6M14 84h6M31 84h1M34 84h6M14 85h6M31 85h1M35 85h5M14 86h13M31 86h1M36 86h4M14 87h13M31 87h1M36 87h4M14 88h11M29 88h3M36 88h4M14 89h11M29 89h1M37 89h3M14 90h6M27 90h3M37 90h3M14 91h6M27 91h1M37 91h3M14 92h14M37 92h3M14 93h14M37 93h3M14 94h14M37 94h3M14 95h15M37 95h3M14 96h15M37 96h3" />
<path stroke="#902832" d="M15 42h1M15 43h1M25 43h1M14 44h1M25 44h1M14 45h1M23 45h1M25 45h1M13 49h1M29 50h1M31 50h1M17 51h1M28 51h2M31 51h1M28 52h1M31 52h1M25 53h1M28 53h1M31 53h1M18 54h1M31 54h1M31 55h1M26 56h1M19 57h1M24 57h1M32 57h1M19 58h1M24 58h1M31 58h1M34 58h1M19 59h1M25 59h1M33 59h1M19 60h1M23 60h2M27 60h1M19 61h1M24 61h1M30 61h1M34 61h1M25 62h1M30 62h1M22 63h1M24 63h1M30 63h1M34 63h1M20 64h1M32 64h2M19 65h1M23 65h2M30 67h1M33 67h1M21 68h1M24 68h1M23 69h2M22 70h2M25 70h2M24 71h2M23 72h2M32 75h2M14 76h1M30 76h2M13 77h1M31 77h1M24 82h1M12 83h1M32 84h1M7 86h3M33 86h1M6 87h1M33 87h1M33 88h1M33 89h2M28 91h1M11 92h1M28 92h2M33 92h1M6 93h1M28 93h4M6 94h1M11 94h1M28 94h1M29 96h1M34 96h1" />
<path stroke="#c34851" d="M24 43h1M15 44h1M24 44h1M15 45h1M24 45h1M29 52h1M29 53h1M19 54h1M24 54h2M28 54h2M19 55h1M23 55h2M28 55h2M19 56h1M23 56h2M28 56h2M31 56h1M33 56h1M23 57h1M25 57h1M28 57h1M30 57h2M23 58h1M25 58h1M28 58h1M30 58h1M23 59h2M28 59h1M30 59h1M28 60h1M30 60h1M27 61h1M29 61h1M36 61h1M20 62h1M27 62h1M29 62h1M35 62h1M37 62h1M18 63h1M20 63h2M23 63h1M25 63h1M28 63h2M35 63h1M21 64h1M23 64h2M26 64h1M28 64h2M34 64h2M27 65h2M19 66h1M25 66h1M27 66h2M19 67h2M26 67h2M31 67h2M19 68h2M26 68h2M19 69h3M26 69h1M19 70h3M19 71h4M18 72h1M20 72h3M18 73h1M20 73h4M18 74h1M20 74h4M18 75h2M21 75h3M18 76h1M18 77h1M23 80h2M23 81h2M23 82h1M6 88h1M6 89h1M6 90h1M34 90h1M6 91h1M34 91h2M5 92h2M34 92h2M5 93h1M32 93h4M5 94h1M29 94h7M29 95h6M30 96h4" />
</svg>