<svg xmlns="http://www.w3.org/2000/svg" viewBox="0 -0.5 45 100" shape-rendering="crispEdges">
<metadata>Made with Pixels to Svg https://codepen.io/shshaw/pen/XbxvNj</metadata>
<path stroke="rgba(0,0,0,0.0392156862745098)" d="M19 12h6M38 12h5" />
<path stroke="rgba(0,0,0,0.03529411764705882)" d="M37 12h1" />
<path stroke="#020202" d="M19 13h1M42 13h1" />
<path stroke="#1e1e1e" d="M20 13h1M25 13h13M41 13h1" />
<path stroke="#1c1c1c" d="M21 13h4M38 13h3" />
<path stroke="#060606" d="M19 14h1M19 15h1M19 16h1M19 17h1M19 18h1M19 19h1M19 20h1M19 21h1M19 22h1M19 23h1M19 24h1M19 25h1M19 26h1M19 27h1M19 28h1M19 29h1M19 30h1M19 31h1M19 32h1M19 33h1M19 34h1M19 35h1" />
<path stroke="#ffffff" d="M20 14h22M20 15h22M20 16h22M20 17h22M20 18h8M34 18h8M20 19h7M30 19h2M35 19h7M20 20h7M29 20h4M35 20h7M20 21h6M29 21h4M36 21h6M20 22h6M29 22h4M36 22h6M20 23h6M29 23h4M36 23h6M20 24h6M29 24h4M36 24h6M20 25h6M29 25h4M36 25h6M20 26h6M29 26h4M36 26h6M20 27h6M29 27h4M36 27h6M20 28h6M29 28h4M36 28h6M20 29h7M29 29h4M35 29h7M20 30h7M30 30h2M35 30h7M20 31h9M33 31h9M20 32h22M20 33h22M20 34h22M20 35h22M22 58h1M22 59h1M20 60h2" />
<path stroke="#080808" d="M42 14h1" />
<path stroke="#070707" d="M42 15h1M42 16h1M42 17h1M42 18h1M42 19h1M42 20h1M42 21h1M42 22h1M42 23h1M42 24h1M42 25h1M42 26h1M42 27h1M42 28h1M42 29h1M42 30h1M42 31h1M42 32h1M42 33h1M42 34h1M42 35h1M30 36h3" />
<path stroke="#000000" d="M28 18h6M27 19h3M32 19h3M27 20h2M33 20h2M26 21h3M33 21h3M26 22h3M33 22h3M26 23h3M33 23h3M26 24h3M33 24h3M26 25h3M33 25h3M26 26h3M33 26h3M26 27h3M33 27h3M26 28h3M33 28h3M27 29h2M33 29h2M27 30h3M32 30h3M29 31h4" />
<path stroke="#010101" d="M19 36h1M42 36h1M5 45h1M7 45h3M11 45h1M3 46h1M10 46h1M3 47h1M11 47h2M14 47h1M2 48h2M13 48h1M3 49h1M14 49h1M28 49h3M2 50h2M15 50h1M27 50h2M31 50h2M3 51h1M16 51h1M26 51h1M29 51h1M32 51h2M2 52h2M17 52h1M26 52h1M28 52h4M33 52h1M3 53h2M31 53h1M33 53h1M5 54h2M30 54h1M32 54h2M4 55h1M6 55h1M32 55h1M6 56h2M21 56h1M31 56h1M8 57h2M19 57h5M7 58h1M9 58h2M18 58h4M23 58h1M11 59h1M18 59h4M23 59h1M19 60h1M22 60h1M20 61h2" />
<path stroke="#0c0c0c" d="M20 36h1M41 36h1" />
<path stroke="#0b0b0b" d="M21 36h9M33 36h8" />
<path stroke="#353535" d="M30 37h1M30 38h1M30 42h1M30 43h1M30 44h1M30 45h1M30 46h1M30 47h1M30 48h2M31 49h1" />
<path stroke="#545454" d="M31 37h1M31 38h1" />
<path stroke="#373737" d="M30 39h1" />
<path stroke="#565656" d="M31 39h1" />
<path stroke="#383838" d="M30 40h1M30 41h1" />
<path stroke="#5c5c5c" d="M31 40h1" />
<path stroke="#6d6d6d" d="M31 41h1" />
<path stroke="#b5b5b5" d="M31 42h1" />
<path stroke="#7d7d7d" d="M31 43h1" />
<path stroke="#5d5d5d" d="M31 44h1" />
<path stroke="#6c6c6c" d="M6 45h1M9 46h1M4 47h1M4 48h1M12 48h1M4 49h1M4 50h1M14 50h1M4 51h1M15 51h1M16 52h1M7 55h1M8 56h1M10 57h1M11 58h1" />
<path stroke="#494949" d="M31 45h1M31 46h1M31 47h1" />
<path stroke="#868a85" d="M4 46h2M4 52h1M5 53h1M7 54h1" />
<path stroke="#c4b1a3" d="M6 46h3M5 47h6M5 48h7M5 49h9M5 50h1M8 50h3M12 50h2M5 51h2M8 51h2M13 51h2M5 52h1M14 52h2M6 53h1M14 54h1M12 56h1" />
<path stroke="#cbc8b9" d="M6 50h2M11 50h1M7 51h1M10 51h3M6 52h8M7 53h9M8 54h6M8 55h5M9 56h3M11 57h1" />
<path stroke="#4c241d" d="M29 50h2M27 51h2M30 51h2M27 52h1M32 52h1M32 53h1M31 54h1M30 55h2" />
<path stroke="#86362b" d="M18 52h6M16 53h2M24 53h4M15 54h1M27 54h2M13 55h2M28 55h2M13 56h1M30 56h1M12 57h1M30 57h2M12 58h1M32 58h1M9 59h2M32 59h2M8 60h1M11 60h1M33 60h1M8 61h1M10 61h2M34 61h1M8 62h3M12 62h2M15 62h1M34 62h1M9 63h1M14 63h1M9 64h1M9 65h1M9 66h1" />
<path stroke="#93664f" d="M24 52h2M34 52h9M41 53h1M40 54h1M44 54h1M40 55h1M43 55h1M39 56h1M42 56h1M5 57h1M38 57h1M40 57h2M44 57h1M4 58h1M38 58h2M43 58h2M3 59h1M34 59h5M43 59h1M2 60h1M37 60h1M43 60h1M1 61h2M36 61h2M42 61h1M0 62h1M36 62h1M42 62h1M0 63h1M35 63h1M42 63h1M0 64h1M8 64h1M34 64h1M41 64h1M0 65h1M7 65h2M33 65h1M36 65h6M0 66h1M2 66h3M6 66h1M32 66h1M35 66h3M39 66h1M1 67h3M5 67h14M32 67h4M39 67h1M3 68h2M19 68h14M39 68h1M4 69h16M29 69h4M39 69h1M5 70h1M21 70h9M32 70h1M39 70h1M5 71h1M32 71h1M39 71h1M5 72h1M32 72h1M39 72h1M5 73h1M32 73h1M39 73h1M5 74h1M32 74h1M39 74h1M5 75h1M32 75h1M39 75h1M5 76h1M32 76h1M39 76h1M5 77h1M32 77h1M39 77h1M5 78h1M32 78h1M39 78h1M5 79h1M32 79h1M39 79h1M5 80h1M32 80h1M39 80h1M5 81h1M32 81h1M39 81h1M5 82h1M32 82h1M39 82h1M5 83h1M32 83h1M39 83h1M5 84h1M32 84h1M39 84h1M5 85h1M32 85h1M39 85h1M5 86h1M32 86h1M38 86h1M5 87h1M32 87h1M36 87h2M5 88h1M32 88h1M35 88h1M5 89h1M32 89h1M34 89h2M5 90h1M32 90h2M6 91h27" />
<path stroke="#c25640" d="M18 53h6M16 54h1M24 54h3M15 55h1M27 55h1M14 56h1M28 56h2M13 57h1M29 57h1M13 58h1M30 58h2M12 59h1M31 59h1M9 60h2M12 60h1M32 60h1M9 61h1M33 61h1M33 62h1" />
<path stroke="#ab836e" d="M28 53h3M29 54h1M34 60h3M35 61h1M35 62h1M7 66h2M38 66h1M36 67h3M33 68h6M33 69h6M6 70h15M33 70h6M20 71h2M33 71h6M33 72h6M33 73h6M33 74h6M33 75h6M33 76h6M33 77h6M33 78h6M33 79h6M33 80h6M33 81h6M33 82h6M33 83h6M33 84h6M33 85h6M33 86h5M33 87h3M33 88h2M33 89h1" />
<path stroke="#eccbbb" d="M34 53h7M34 54h6M33 55h7M44 55h1M32 56h7M43 56h2M6 57h2M32 57h6M42 57h2M5 58h2M8 58h1M33 58h5M42 58h1M4 59h5M41 59h2M3 60h5M40 60h3M3 61h5M39 61h3M1 62h7M39 62h3M1 63h8M38 63h4M1 64h7M37 64h4M1 65h6M1 66h1M5 66h1M4 67h1M5 68h14M20 69h5M6 71h14M6 72h14M6 73h13M6 74h12M6 75h12M6 76h11M6 77h10M6 78h9M6 79h8M6 80h7M6 81h6M6 82h5M6 83h4M6 84h3M6 85h2M6 86h1" />
<path stroke="#d36751" d="M17 54h7M16 55h11M15 56h6M22 56h6M14 57h5M24 57h5M14 58h4M24 58h6M13 59h5M24 59h7M13 60h6M23 60h9M12 61h8M22 61h11M11 62h1M14 62h1M16 62h17M10 63h4M15 63h20M10 64h24M10 65h23M10 66h22M19 67h13" />
<path stroke="#e4ae94" d="M40 58h2M39 59h2M38 60h2M38 61h1M37 62h2M36 63h2M35 64h2M34 65h2M33 66h2M25 69h4M31 71h1M25 72h6M24 73h6M23 74h6M22 75h6M22 76h5M20 77h6M20 78h5M19 79h5M17 80h6M17 81h5M16 82h5M15 83h5M14 84h5M13 85h5M11 86h6M10 87h6M9 88h6M8 89h6M7 90h6" />
<path stroke="#ab785d" d="M30 70h2M22 71h9" />
<path stroke="#eac7b6" d="M20 72h1" />
<path stroke="#eac0ac" d="M21 72h4M20 73h4M19 74h4M18 75h4M17 76h4M16 77h4M15 78h4M14 79h3M13 80h4M12 81h4M11 82h4M10 83h4M9 84h4M8 85h4M7 86h4M6 87h4M6 88h3M6 89h2M6 90h1" />
<path stroke="#d6a187" d="M31 72h1M30 73h2M29 74h3M28 75h4M27 76h5M26 77h5M25 78h5M24 79h5M23 80h4M22 81h5M21 82h6M20 83h5M19 84h5M18 85h5M17 86h5M16 87h5M15 88h5M14 89h5M13 90h5" />
<path stroke="#eac8b8" d="M19 73h1" />
<path stroke="#ebcaba" d="M18 74h1" />
<path stroke="#e4af94" d="M21 76h1" />
<path stroke="#c18e75" d="M31 77h1" />
<path stroke="#e5af95" d="M19 78h1M15 82h1M14 83h1M13 84h1M12 85h1" />
<path stroke="#c49077" d="M30 78h1" />
<path stroke="#c28f76" d="M31 78h1M30 79h2M29 80h3M29 81h3M27 82h5M27 83h5M26 84h6M24 85h8M23 86h9M23 87h9M21 88h11M20 89h12M19 90h13" />
<path stroke="#e7b7a0" d="M17 79h1" />
<path stroke="#e5b096" d="M18 79h1" />
<path stroke="#c7937a" d="M29 79h1M28 80h1M27 81h1" />
<path stroke="#d29e84" d="M27 80h1" />
<path stroke="#e5b097" d="M16 81h1" />
<path stroke="#c39077" d="M28 81h1M26 83h1" />
<path stroke="#c9957c" d="M25 83h1" />
<path stroke="#ca957c" d="M24 84h1" />
<path stroke="#c38f76" d="M25 84h1M22 87h1M18 90h1" />
<path stroke="#c69279" d="M23 85h1M20 88h1" />
<path stroke="#c8947b" d="M22 86h1" />
<path stroke="#c69379" d="M21 87h1" />
<path stroke="#c49178" d="M19 89h1" />
</svg>