<svg xmlns="http://www.w3.org/2000/svg" viewBox="0 -0.5 45 100" shape-rendering="crispEdges">
<metadata>Made with Pixels to Svg https://codepen.io/shshaw/pen/XbxvNj</metadata>
<path stroke="#9e9e9e" d="M19 6h6M17 7h4M22 7h5M15 8h2M25 8h2M28 8h1M14 9h1M24 9h2M27 9h3M13 10h1M24 10h1M26 10h1M28 10h3M12 11h2M23 11h1M25 11h2M30 11h1M12 12h1M22 12h2M25 12h2M30 12h1M11 13h2M22 13h1M24 13h1M30 13h1M11 14h1M21 14h1M24 14h2M30 14h1M11 15h1M21 15h1M23 15h1M25 15h1M31 15h1M11 16h1M18 16h1M21 16h1M23 16h2M31 16h1M11 17h1M18 17h1M25 17h1M31 17h1M11 18h1M25 18h2M31 18h1M11 19h1M16 19h1M26 19h1M11 20h1M29 20h1M11 21h1M14 21h1M17 21h1M19 21h1M29 21h1M13 22h2M17 22h1M29 22h1M12 23h1M14 23h2M27 23h1M29 23h1M12 24h1M14 24h2M27 24h1M29 24h1M14 25h1M27 25h2M25 27h4M27 28h2M29 29h1" />
<path stroke="#b5b5b5" d="M21 7h1M17 8h8M15 9h2M19 9h1M23 9h1M14 10h2M30 17h1M13 18h1M30 18h1M13 19h1M30 19h1M12 20h2M15 20h1M30 20h1M12 21h2M15 21h1M30 21h1M12 22h1M15 22h1M28 22h1M13 23h1M28 23h1M28 24h1M15 25h1M16 26h1M26 26h1M16 27h1" />
<path stroke="#323232" d="M27 8h1M26 9h1M25 10h1M24 11h1M24 12h1M23 13h1M22 14h2M22 15h1M25 21h1M27 26h1" />
<path stroke="#dfdfdf" d="M17 9h2M17 10h1M19 10h3M16 11h1M18 11h2M27 11h1M14 12h2M17 12h3M28 12h1M14 13h1M17 13h1M20 13h1M27 13h2M13 14h1M16 14h2M19 14h1M26 14h2M13 15h2M16 15h2M19 15h1M26 15h2M29 15h1M13 16h4M19 16h1M26 16h1M29 16h1M12 17h1M14 17h3M19 17h2M26 17h1M29 17h1M12 18h1M14 18h1M19 18h2M27 18h3M12 19h1M14 19h1M19 19h1M27 19h3M27 20h2M27 21h2" />
<path stroke="#c7c7c7" d="M20 9h3M16 10h1M18 10h1M22 10h2M27 10h1M14 11h2M17 11h1M20 11h3M28 11h2M13 12h1M20 12h2M27 12h1M29 12h1M13 13h1M18 13h2M21 13h1M25 13h2M29 13h1M12 14h1M18 14h1M29 14h1M12 15h1M18 15h1M24 15h1M30 15h1M12 16h1M17 16h1M25 16h1M30 16h1M13 17h1M17 17h1M15 18h3M15 19h1M17 19h1M20 19h1M14 20h1M17 20h1M19 20h1M27 22h1" />
<path stroke="#e9e9e9" d="M16 12h1M14 14h1" />
<path stroke="#f1f1f1" d="M15 13h2M15 14h1M20 14h1M28 14h1M15 15h1M20 15h1M28 15h1M20 16h1M27 16h2M27 17h2" />
<path stroke="#fcebeb" d="M22 16h1M20 20h1M20 21h1M19 22h1M17 23h1M24 23h1M16 24h1M17 25h1M20 25h2M24 28h1M19 29h6M27 29h1M18 30h7M28 30h1M14 31h2M29 31h2M13 32h1M30 32h1M13 33h1M28 33h1M31 33h1M27 34h1M31 34h1M31 39h2M33 40h1M32 41h1M8 59h1M7 60h1" />
<path stroke="#ffffff" d="M21 17h3M21 18h3M21 19h2M21 20h2M21 21h3M26 21h1M20 22h4M26 22h1M18 23h6M17 24h9M18 25h2M23 25h2M19 26h5M27 30h1M18 31h7M27 31h2M14 32h1M18 32h6M27 32h3M14 33h1M18 33h5M27 33h1M29 33h2M13 34h1M29 34h2M9 36h23M9 37h23M9 38h23M9 39h9M19 39h12M9 40h11M22 40h11M9 41h10M22 41h9M33 41h1M9 42h8M22 42h10M9 43h6M22 43h10M9 44h6M17 44h2M22 44h10M9 45h10M22 45h10M9 46h10M22 46h10M9 47h10M22 47h10M9 48h10M22 48h10M9 49h10M22 49h10M9 50h10M22 50h10M9 51h10M22 51h10M9 52h7M25 52h7M9 53h7M25 53h7M9 54h23M9 55h23M9 56h23M9 57h23M9 58h23M7 59h1M9 59h1M8 60h1" />
<path stroke="#f7d2d2" d="M24 17h1M24 18h1M25 23h2M22 25h1M25 25h1M24 26h1M20 27h3" />
<path stroke="#c58383" d="M18 18h1M16 25h1" />
<path stroke="#010101" d="M18 19h1M16 20h1M18 20h1M23 20h3M16 21h1M18 21h1M24 21h1M16 22h1M18 22h1M8 35h25M8 36h1M32 36h1M8 37h1M32 37h1M8 38h1M8 39h1M8 40h1M20 40h2M8 41h1M19 41h3M8 42h1M17 42h5M8 43h1M15 43h7M32 43h1M8 44h1M15 44h2M19 44h3M32 44h1M8 45h1M19 45h3M32 45h1M8 46h1M19 46h3M32 46h1M8 47h1M19 47h3M32 47h1M8 48h1M19 48h3M32 48h1M8 49h1M19 49h3M32 49h1M8 50h1M19 50h3M32 50h1M8 51h1M19 51h3M32 51h1M8 52h1M16 52h9M32 52h1M8 53h1M16 53h9M32 53h1M8 54h1M32 54h1M8 55h1M32 55h1M8 56h1M32 56h1M8 57h1M32 57h1M32 58h1M32 59h1M10 60h23M9 89h2M12 89h3M18 89h1M22 89h1M8 90h1M15 90h2M18 90h1M22 90h1M14 91h2M18 91h1M21 91h2M30 91h1M13 92h2M21 92h1M30 92h1M13 93h1M21 93h2M30 93h2M8 94h1M11 94h5M17 94h2M22 94h1M29 94h2M9 95h4M14 95h3M23 95h8" />
<path stroke="#764242" d="M23 19h1" />
<path stroke="#3a2626" d="M24 19h1" />
<path stroke="#281717" d="M25 19h1M26 20h1" />
<path stroke="#747474" d="M24 22h2" />
<path stroke="#ffe4e4" d="M16 23h1" />
<path stroke="#e4b5b5" d="M26 24h1M25 26h1M19 28h5M18 29h1M14 30h1M29 30h2M13 31h1M31 31h1M12 32h1M31 32h1M12 33h1M32 33h1M28 34h1M32 34h1M33 38h1M33 39h2M34 40h1M32 42h1M6 58h3M6 59h1M9 60h1M8 61h1" />
<path stroke="#c59a9a" d="M26 25h1M17 26h2M19 27h1M23 27h2M28 29h1M15 30h1M12 34h1M32 38h1M31 41h1M34 41h1M33 42h1M6 60h1M7 61h1M9 61h2" />
<path stroke="#2c2d45" d="M25 28h2M16 29h2M25 29h2M16 30h2M26 30h1M26 31h1M15 32h1M15 33h1M14 34h1M16 34h5" />
<path stroke="#22233d" d="M25 30h1M16 31h2M25 31h1M16 32h2M24 32h3M16 33h2M23 33h4M15 34h1M21 34h6" />
<path stroke="#fefeff" d="M18 39h1" />
<path stroke="#fafafa" d="M10 59h22" />
<path stroke="#20202d" d="M15 61h1M21 61h1M23 61h1M15 62h1M21 62h1M23 62h1M15 63h1M23 63h1M30 63h1M15 64h1M23 64h1M30 64h1M14 65h2M23 65h1M29 65h2M14 66h2M29 66h2M15 67h1M29 67h1M24 68h1M29 68h1M24 69h1M29 69h1M24 70h1M29 70h1M24 71h1M29 71h1M24 72h1M29 72h1M24 73h1M29 73h1M24 74h1M29 74h1M24 75h1M23 76h2M23 77h2M23 78h1M23 79h1M30 79h1M23 80h1M30 80h1M23 81h1M30 81h1M23 82h1M30 82h1M23 83h1M22 85h2M31 85h1M19 86h1M22 86h1M10 87h1M13 87h3M22 87h10M19 88h1M22 88h2M29 88h3M31 89h1" />
<path stroke="#171728" d="M16 61h5M24 61h7M18 62h1M24 62h1M26 62h3M30 85h1M23 86h1M31 86h1M18 87h2M18 88h1" />
<path stroke="#1d1d30" d="M16 62h2M19 62h2M25 62h1M29 62h2M19 63h2M24 63h1M29 63h1M19 64h2M24 64h1M29 64h1M19 65h2M24 65h1M19 66h1M24 66h1M19 67h1M24 67h1M14 68h1M19 68h1M14 69h1M19 69h1M14 70h1M18 70h1M14 71h1M18 71h1M14 72h1M18 72h1M14 73h1M18 73h1M14 74h1M18 74h1M13 75h1M18 75h1M29 75h1M13 76h1M18 76h1M29 76h1M12 77h2M18 77h1M29 77h1M12 78h2M17 78h2M24 78h1M12 79h1M18 79h1M24 79h1M11 80h2M18 80h1M24 80h1M11 81h1M18 81h1M24 81h1M11 82h1M18 82h1M24 82h1M11 83h1M18 83h1M24 83h1M11 84h1M17 84h2M23 84h2M11 85h1M14 85h2M17 85h1M24 85h1M27 85h3M10 86h1M16 86h2M24 86h2M27 86h4" />
<path stroke="#25253a" d="M16 63h3M25 63h4M16 64h3M25 64h4M16 65h3M25 65h4M16 66h3M25 66h4M16 67h3M25 67h4M15 68h4M25 68h4M15 69h4M25 69h4M15 70h3M25 70h4M15 71h3M25 71h4M15 72h3M25 72h4M15 73h3M25 73h4M15 74h3M25 74h4M14 75h4M25 75h4M14 76h4M25 76h4M14 77h4M25 77h4M14 78h3M25 78h5M13 79h5M25 79h5M13 80h5M25 80h5M12 81h6M25 81h5M12 82h6M25 82h5M12 83h6M25 83h6M12 84h5M25 84h6M12 85h2M16 85h1M25 85h2M11 86h3M15 86h1M26 86h1M16 87h1" />
<path stroke="#171723" d="M21 63h1M21 64h1M21 65h1M20 66h1M20 67h1M20 68h1M20 69h1M19 70h2M19 71h1M19 72h1M19 73h1M19 74h1M19 75h1M19 76h1M19 77h1M19 78h1M19 79h1M19 80h1M19 81h1M19 82h1M19 83h1M19 84h1M18 85h2M18 86h1" />
<path stroke="#1e1e2a" d="M21 66h1M14 67h1M20 71h1M13 73h1M13 74h1M30 76h1M30 77h1M30 78h1M31 82h1M31 83h1M31 84h1M10 88h1" />
<path stroke="#2a2a3f" d="M14 86h1" />
<path stroke="#1d1d29" d="M11 87h2M17 87h1" />
<path stroke="#000000" d="M11 88h7M28 88h1M11 89h1M17 89h1M23 89h1M29 89h2M17 90h1M23 90h9M18 92h1M17 93h2M9 94h2M16 94h1M23 94h6M13 95h1" />
<path stroke="#1d1d1d" d="M24 88h4M15 89h2M24 89h5M10 90h5M10 91h4M16 91h2M31 91h1M8 92h5M15 92h3M31 92h1M8 93h5M14 93h3" />
<path stroke="#282828" d="M9 90h1M8 91h1M23 91h1M26 91h4M22 92h8M23 93h7" />
<path stroke="#545454" d="M9 91h1M24 91h2" />
</svg>