<svg xmlns="http://www.w3.org/2000/svg" viewBox="0 -0.5 45 100" shape-rendering="crispEdges">
<metadata>Made with Pixels to Svg https://codepen.io/shshaw/pen/XbxvNj</metadata>
<path stroke="#312324" d="M18 9h8M16 10h3M20 10h8M15 11h3M20 11h4M27 11h3M14 12h2M19 12h3M23 12h2M26 12h1M29 12h2M14 13h2M18 13h2M21 13h1M23 13h1M26 13h1M30 13h1M13 14h2M23 14h1M30 14h2M13 15h1M21 15h1M31 15h1M13 16h1M21 16h1M31 16h1M12 17h2M21 17h2M25 17h1M32 17h1M12 18h1M21 18h2M24 18h2M28 18h1M32 18h1M12 19h1M15 19h1M18 19h2M21 19h2M24 19h1M26 19h1M29 19h1M32 19h1M12 20h1M15 20h1M18 20h2M21 20h2M24 20h1M29 20h2M32 20h1M12 21h1M15 21h2M18 21h2M21 21h2M24 21h1M28 21h1M12 22h1M15 22h3M21 22h1M23 22h1M30 22h2M12 23h1M15 23h2M29 23h1M31 23h1M12 24h1M15 24h1M12 25h1M15 25h1M12 26h1M15 26h1M12 27h1M15 27h1" />
<path stroke="#4a2f2f" d="M19 10h1M18 11h2M24 11h3M16 12h3M22 12h1M25 12h1M27 12h2M16 13h2M20 13h1M22 13h1M24 13h2M27 13h3M15 14h8M24 14h6M14 15h1M16 15h2M20 15h1M22 15h7M30 15h1M16 16h1M19 16h1M22 16h1M24 16h7M15 17h2M18 17h1M20 17h1M24 17h1M27 17h3M31 17h1M13 18h4M18 18h1M20 18h1M26 18h1M30 18h2M13 19h2M17 19h1M20 19h1M30 19h2M13 20h2M16 20h2M20 20h1M23 20h1M13 21h2M17 21h1M20 21h1M23 21h1M31 21h2M13 22h2M20 22h1M13 23h2M22 23h1M13 24h2M13 25h2M13 26h2M13 27h2" />
<path stroke="#613939" d="M15 15h1M18 15h2M29 15h1M17 16h2M20 16h1M23 16h1M14 17h1M17 17h1M19 17h1M26 17h1M30 17h1M19 18h1M23 18h1M27 18h1M16 19h1M23 19h1M27 19h1" />
<path stroke="#714b4b" d="M14 16h2M23 17h1M17 18h1" />
<path stroke="#812027" d="M29 18h1M28 19h1M27 20h2M31 20h1M29 21h2M29 22h1" />
<path stroke="#f1bfc1" d="M25 19h1M26 20h1M22 22h1" />
<path stroke="#ffffff" d="M25 20h1M25 21h1M24 22h1M21 23h1M23 23h2M20 24h5M17 25h1M20 25h5M27 25h1M19 26h7M18 27h9M11 29h23M11 30h23M11 31h23M11 32h9M21 32h13M11 33h22M12 34h5M27 34h5M12 35h5M27 35h8M9 36h2M12 36h12M27 36h5M33 36h1M9 37h1M11 37h12M26 37h6M11 38h11M25 38h8M11 39h10M24 39h10M11 40h8M26 40h8M11 41h8M27 41h7M11 42h13M28 42h6M11 43h15M28 43h6M11 44h15M28 44h6M11 45h15M28 45h6M11 46h5M18 46h7M28 46h6M11 47h5M27 47h7M11 48h7M26 48h8M11 49h23M11 50h23M11 51h23M11 52h1" />
<path stroke="#daa5a9" d="M26 21h2M28 22h1M30 24h1M16 26h2M27 26h2M10 33h1M33 33h2M8 34h3M35 34h1M8 35h1M35 35h1M7 36h2M7 37h1M8 38h2M33 38h2" />
<path stroke="#2a0f16" d="M18 22h1M26 22h2" />
<path stroke="#010101" d="M19 22h1M17 23h1M27 23h1M10 28h25M10 29h1M34 29h1M10 30h1M34 30h1M10 31h1M34 31h1M10 32h1M34 32h1M17 34h10M17 35h10M24 36h3M23 37h3M10 38h1M22 38h3M35 38h1M21 39h3M34 39h2M10 40h1M19 40h7M34 40h1M10 41h1M19 41h8M34 41h1M10 42h1M24 42h4M34 42h1M10 43h1M26 43h2M34 43h1M10 44h1M26 44h2M34 44h1M10 45h1M26 45h2M34 45h1M10 46h1M16 46h2M25 46h3M34 46h1M10 47h1M16 47h11M34 47h1M10 48h1M18 48h8M34 48h1M10 49h1M34 49h1M10 50h1M34 50h1M10 51h1M34 51h1M10 52h1M34 52h1M10 53h25M13 54h1M22 54h1M31 54h1M13 55h1M22 55h1M31 55h1M13 56h1M22 56h1M31 56h1M13 57h1M22 57h1M31 57h1M13 58h1M22 58h1M31 58h1M13 59h1M21 59h1M28 59h3M14 60h14M30 60h1M14 61h1M21 61h1M23 61h1M30 61h1M14 62h1M21 62h1M23 62h1M30 62h1M14 63h1M21 63h1M23 63h1M30 63h1M14 64h1M20 64h1M24 64h1M30 64h1M13 65h1M20 65h1M30 65h1M13 66h1M31 66h1M13 67h1M31 67h1M13 68h1M31 68h1M13 69h1M20 69h1M31 69h1M12 70h1M31 70h1M12 71h1M25 71h1M32 71h1M12 72h1M32 72h1M32 73h1M19 74h1M32 74h1M19 75h1M32 75h1M19 76h1M11 77h1M19 77h1M11 78h1M19 78h1M11 79h1M19 79h1M26 79h1M19 80h1M26 80h1M26 81h1M34 81h1M10 82h1M26 82h1M34 82h1M10 83h1M26 83h1M34 83h1M18 84h1M26 84h1M34 84h1M18 85h1M26 85h1M34 85h1M26 86h1M34 86h1M10 87h7M18 87h1M26 87h1M28 87h2M34 87h1M10 88h1M17 88h2M26 88h2M30 88h3M34 88h1M26 89h1M33 89h2M34 90h1M34 91h1" />
<path stroke="#421e28" d="M25 22h1M28 23h1" />
<path stroke="#382e2e" d="M18 23h3M25 23h2M18 24h1M25 24h1" />
<path stroke="#ba676f" d="M30 23h1M29 24h1M30 25h1M29 26h1M16 27h1M28 27h1M9 33h1M35 33h1M11 34h1M35 37h1M7 38h1" />
<path stroke="#beabc9" d="M16 24h2M27 24h2" />
<path stroke="#ad9494" d="M19 24h1M26 24h1" />
<path stroke="#d68a91" d="M31 24h1M31 25h1M30 26h1" />
<path stroke="#ffd7d7" d="M16 25h1M28 25h1M18 26h1M26 26h1M17 27h1M27 27h1M32 34h3M9 35h3M11 36h1M32 36h1M34 36h2M8 37h1M10 37h1M32 37h3" />
<path stroke="#746565" d="M18 25h2M25 25h2" />
<path stroke="#ef989b" d="M29 25h1" />
<path stroke="rgba(255,255,255,0.10196078431372549)" d="M32 26h1" />
<path stroke="rgba(255,233,233,0.13333333333333333)" d="M33 26h1" />
<path stroke="rgba(228,181,181,0.14901960784313725)" d="M34 26h1" />
<path stroke="#fefeff" d="M20 32h1" />
<path stroke="#2d2d2d" d="M36 35h1M36 36h1M36 37h1M7 39h1M9 40h1M17 55h2M25 55h3M17 56h2M25 56h3M17 57h2M25 57h3M17 58h2M25 58h3M15 69h1M15 70h1M15 71h1M30 71h1M14 72h1M27 72h1M30 72h1M14 73h1M27 73h1M30 73h1M14 74h1M27 74h1M31 74h1M14 75h1M27 75h2M31 75h1M13 76h2M27 76h2M31 76h1M13 77h2M17 77h2M27 77h2M31 77h1M13 78h1M17 78h2M27 78h2M31 78h1M13 79h1M17 79h1M27 79h2M31 79h1M12 80h3M17 80h1M28 80h1M32 80h1M12 81h3M17 81h1M28 81h1M32 81h1M12 82h2M17 82h1M27 82h2M31 82h2M12 83h1M17 83h1" />
<path stroke="#1f1f1f" d="M36 38h1M8 39h3M14 54h8M23 54h8M14 55h1M21 55h1M30 55h1M14 56h1M21 56h1M30 56h1M14 57h1M21 57h1M30 57h1M14 58h1M21 58h1M28 58h3M14 59h7M24 59h4M18 61h1M26 61h2M18 62h1M27 62h1M18 63h1M27 63h1M17 64h2M27 64h1M17 65h1M27 65h1M17 66h1M27 66h2M17 67h1M28 67h1M17 68h1M28 68h1M16 69h1M28 69h1M16 70h1M28 70h2M16 71h1M29 71h1M16 72h1M29 72h1M16 73h1M29 73h1M16 74h1M29 74h1M16 75h1M29 75h1M16 76h1M29 76h1M16 77h1M29 77h1M16 78h1M30 78h1M15 79h1M30 79h1M15 80h1M30 80h1M15 81h1M30 81h1M15 82h1M30 82h1M15 83h1M30 83h1M10 84h1M14 84h1M30 84h1M10 85h1M14 85h1M30 85h1M10 86h1M14 86h1M18 86h1M30 86h1M30 87h1" />
<path stroke="#282828" d="M8 40h1M15 55h2M19 55h2M23 55h2M28 55h2M15 56h2M19 56h2M23 56h2M28 56h2M15 57h2M19 57h2M23 57h2M28 57h2M15 58h2M19 58h2M23 58h2M28 60h2M15 61h3M19 61h1M25 61h1M28 61h2M15 62h3M19 62h1M25 62h2M28 62h2M15 63h3M19 63h1M25 63h2M28 63h2M15 64h2M19 64h1M25 64h2M28 64h2M14 65h3M18 65h2M25 65h2M28 65h2M14 66h3M18 66h2M25 66h2M29 66h2M14 67h3M18 67h2M25 67h3M29 67h2M14 68h3M18 68h2M25 68h3M29 68h2M14 69h1M17 69h3M26 69h2M29 69h2M14 70h1M17 70h2M26 70h2M30 70h1M14 71h1M17 71h2M26 71h3M31 71h1M15 72h1M17 72h2M28 72h1M31 72h1M13 73h1M15 73h1M17 73h2M28 73h1M31 73h1M13 74h1M15 74h1M17 74h2M28 74h1M30 74h1M13 75h1M15 75h1M17 75h2M30 75h1M15 76h1M17 76h2M30 76h1M32 76h1M15 77h1M30 77h1M32 77h1M14 78h2M29 78h1M32 78h1M14 79h1M16 79h1M18 79h1M29 79h1M32 79h1M16 80h1M27 80h1M29 80h1M31 80h1M16 81h1M27 81h1M29 81h1M31 81h1M33 81h1M11 82h1M14 82h1M16 82h1M29 82h1M33 82h1M11 83h1M13 83h2M16 83h1M27 83h3M31 83h3M11 84h3M15 84h3M27 84h3M31 84h3M11 85h3M15 85h3M27 85h3M31 85h3M11 86h3M15 86h3M27 86h3M31 86h3M17 87h1M27 87h1M31 87h3M33 88h1" />
<path stroke="#fafafa" d="M12 52h22" />
<path stroke="rgba(0,0,0,0.00392156862745098)" d="M32 55h1" />
<path stroke="#202020" d="M22 59h2M20 61h1M24 61h1M20 62h1M24 62h1M20 63h1M24 63h1M24 65h1M24 66h1M24 67h1M24 68h1M25 69h1M25 70h1M26 72h1M12 73h1M26 73h1M12 74h1M26 74h1M12 75h1M26 75h1M12 76h1M26 76h1M33 76h1M26 77h1M33 77h1M26 78h1M33 78h1M33 79h1M33 80h1" />
<path stroke="#222222" d="M20 66h1M20 67h1M20 68h1M13 70h1M19 70h1M13 71h1M19 71h1M13 72h1M19 72h1M19 73h1M12 77h1M12 78h1M12 79h1M11 80h1M18 80h1M11 81h1M18 81h1M18 82h1M18 83h1" />
<path stroke="#514d55" d="M11 88h2M10 89h3M19 89h1M32 89h1M10 90h3M19 90h1M25 90h1M31 90h3M11 91h3M19 91h1M25 91h1M30 91h4M12 92h2M19 92h1M30 92h3" />
<path stroke="#363637" d="M13 88h4M28 88h2M14 89h3M28 89h4M14 90h1M17 90h1" />
<path stroke="#f9f1f9" d="M13 89h1M27 89h1M15 90h2M27 90h4" />
<path stroke="#999198" d="M17 89h2M13 90h1M18 90h1M26 90h1M15 91h1M28 91h1M15 92h1M28 92h1" />
<path stroke="#958b99" d="M10 91h1M10 92h2M25 92h1M33 92h2M10 93h1M12 93h8M25 93h8M34 93h1M10 94h2M19 94h1M25 94h1M33 94h2M11 95h8M26 95h7" />
<path stroke="#797081" d="M14 91h1M29 91h1M14 92h1M29 92h1" />
<path stroke="#b3a9b1" d="M16 91h3M26 91h2M16 92h3M26 92h2" />
<path stroke="#c9c5c8" d="M11 93h1M33 93h1M12 94h7M26 94h7" />
</svg>