<svg xmlns="http://www.w3.org/2000/svg" viewBox="0 -0.5 45 100" shape-rendering="crispEdges">
<metadata>Made with Pixels to Svg https://codepen.io/shshaw/pen/XbxvNj</metadata>
<path stroke="#131d1b" d="M19 4h8M17 5h12M16 6h2M19 6h7M27 6h3M15 7h2M21 7h5M28 7h1M30 7h1M14 8h2M20 8h1M24 8h1M28 8h1M14 9h2M31 9h1M14 10h1M13 11h2M13 12h1M32 12h1M13 13h2M32 13h1M13 14h2M32 14h1M13 15h2M32 15h1M13 16h2M32 16h1M14 17h1M30 17h1M32 17h1M14 18h1M30 18h1M15 19h1M30 19h1M17 20h2M30 20h1M18 21h1M19 22h1M29 22h1" />
<path stroke="#202d2a" d="M18 6h1M26 6h1M29 7h1M26 8h1M29 8h2M29 9h2M27 10h1M30 10h2M23 11h3M27 11h2M31 11h1M24 12h1M32 18h1M31 20h1M30 21h1" />
<path stroke="#1d2a27" d="M17 7h2M20 7h1M26 7h1M16 8h2M21 8h3M25 8h1M16 9h1M22 9h4M15 10h1M20 10h1M22 10h4M15 11h1M21 11h2M14 12h1M21 12h3M28 12h2M15 13h1M20 13h4M28 13h1M19 14h2M22 14h1M29 14h1M19 15h1M22 15h1M29 15h1M19 16h1M21 16h1M15 17h2M15 18h2M18 18h1M31 18h1M16 19h1M31 19h1M19 20h1M17 21h1" />
<path stroke="#22302c" d="M19 7h1M27 7h1M18 8h2M27 8h1M18 9h4M26 9h3M17 10h1M19 10h1M26 10h1M28 10h1M17 11h1M16 12h1M15 14h1M15 15h1M15 16h1M17 17h1M17 18h1M17 19h2" />
<path stroke="#30413d" d="M17 9h1M16 10h1M18 10h1M21 10h1M29 10h1M16 11h1M18 11h3M29 11h2M15 12h1M17 12h4M30 12h2M16 13h4M30 13h2M16 14h3M30 14h2M16 15h3M30 15h2M16 16h3M30 16h2M18 17h1M31 17h1" />
<path stroke="#23302d" d="M26 11h1M29 13h1" />
<path stroke="#010101" d="M25 12h3M24 13h2M21 14h1M23 14h2M28 14h1M20 15h2M23 15h2M27 15h2M20 16h1M23 16h1M29 16h1M19 17h2M22 17h2M19 18h1M21 18h2M16 20h1M17 22h1M19 24h2M23 24h1M26 24h2M16 25h2M22 25h3M29 25h2M15 26h1M23 26h2M31 26h1M14 27h1M23 27h2M30 27h1M12 28h25M12 29h1M36 29h1M36 30h1M21 35h7M12 36h1M21 36h7M36 36h1M12 37h1M21 37h1M36 37h1M12 38h1M21 38h1M36 38h1M12 39h1M21 39h1M36 39h1M12 40h1M21 40h6M36 40h1M12 41h1M21 41h1M24 41h4M36 41h1M12 42h1M26 42h3M36 42h1M27 43h2M36 43h1M12 44h1M20 44h2M27 44h2M36 44h1M12 45h1M20 45h3M26 45h3M36 45h1M12 46h1M21 46h7M36 46h1M12 47h1M36 47h1M12 48h1M36 48h1M12 49h1M36 49h1M12 50h1M36 50h1M12 51h1M36 51h1M12 52h1M36 52h1M12 53h25M14 54h1M19 54h1M27 54h1M32 54h1M14 55h1M19 55h1M22 55h4M27 55h1M32 55h1M14 56h1M19 56h1M22 56h1M25 56h1M27 56h1M31 56h2M14 57h2M19 57h1M22 57h1M25 57h1M28 57h1M31 57h1M15 58h4M22 58h1M25 58h1M28 58h1M30 58h2M15 59h1M18 59h1M22 59h1M25 59h1M28 59h2M31 59h1M15 60h1M22 60h1M25 60h1M31 60h1M15 61h1M21 61h1M25 61h1M31 61h1M15 62h1M21 62h1M25 62h1M31 62h1M21 63h1M25 63h1M31 63h1M15 64h1M21 64h1M25 64h1M31 64h1M15 65h1M25 65h2M31 65h1M15 66h1M20 66h1M25 66h2M31 66h1M15 67h1M20 67h1M25 67h1M31 67h1M20 68h1M26 68h1M31 68h1M14 69h1M20 69h1M26 69h1M31 69h1M14 70h1M20 70h1M26 70h1M32 70h1M14 71h1M20 71h1M26 71h1M32 71h1M14 72h1M19 72h2M26 72h1M32 72h1M19 73h1M26 73h1M13 74h1M19 74h1M26 74h1M13 75h1M19 75h1M26 75h1M33 75h1M12 76h1M19 76h1M26 76h1M33 76h1M12 77h1M19 77h1M26 77h1M33 77h1M12 78h1M19 78h1M26 78h1M33 78h1M19 79h1M26 79h1M33 79h1M11 80h1M19 80h1M26 80h1M33 80h2M11 81h1M19 81h1M26 81h1M34 81h1M19 82h1M26 82h1M34 82h1M19 83h1M26 83h1M34 83h1M11 84h1M19 84h1M26 84h1M34 84h1M19 85h1M34 86h1M19 87h1" />
<path stroke="#ffffff" d="M26 13h2M25 14h3M25 15h2M25 16h2M24 17h3M29 17h1M23 18h4M29 18h1M22 19h5M22 20h4M22 21h2M26 21h1M23 22h3M13 29h23M14 30h22M11 31h3M15 31h20M12 32h22M35 32h2M13 33h1M15 33h19M35 33h1M12 34h2M15 34h19M36 34h1M14 35h7M28 35h7M13 36h8M28 36h8M13 37h8M22 37h14M13 38h8M22 38h14M13 39h8M22 39h14M13 40h8M27 40h9M13 41h8M22 41h2M28 41h8M13 42h13M29 42h7M14 43h3M29 43h1M32 43h1M34 43h2M13 44h7M22 44h5M29 44h7M13 45h7M23 45h3M29 45h7M13 46h8M28 46h8M13 47h23M13 48h23M13 49h23M13 50h23M13 51h23" />
<path stroke="#1d2223" d="M22 16h1M21 17h1M15 54h4M20 54h7M28 54h4M20 55h2M30 55h2M20 56h1M28 56h1M30 56h1M20 57h1M27 57h1M30 57h1M20 58h1M20 59h1M27 59h1M30 59h1M19 60h2M27 60h1M30 60h1M19 61h1M30 61h1M19 62h1M30 62h1M19 63h1M30 63h1M19 64h1M30 64h1M19 65h1M28 65h1M19 66h1M28 66h1M18 67h1M15 68h1M18 68h1M28 68h1M31 70h1M31 71h1M18 72h1M29 72h1M17 73h1M29 73h1M32 73h1M17 74h1M29 74h1M32 74h1M17 75h1M29 75h1M32 75h1M17 76h1M29 76h1M17 77h1M29 77h1M17 78h1M16 79h2M16 80h1M30 80h1M15 81h1M30 81h1M11 82h1M15 82h1M30 82h1M11 83h1M15 83h1M30 83h1M12 84h2M15 84h1M27 84h1M30 84h1M13 85h3M18 85h1M26 85h3M30 85h1M32 85h3M15 86h5M27 86h6" />
<path stroke="#fdd6d6" d="M24 16h1" />
<path stroke="#445179" d="M27 16h2" />
<path stroke="#5f6b91" d="M27 17h1" />
<path stroke="#8694c2" d="M28 17h1" />
<path stroke="#000000" d="M20 18h1" />
<path stroke="#bdc8ec" d="M27 18h1" />
<path stroke="#b2bee4" d="M28 18h1" />
<path stroke="#020202" d="M19 19h1" />
<path stroke="#d2bbbb" d="M20 19h1" />
<path stroke="#f6f6f6" d="M21 19h1" />
<path stroke="#fed7d7" d="M27 19h1M11 30h3M14 31h1M35 31h2M11 32h1M12 33h1M34 33h1M11 34h1M14 34h1M34 34h2M37 34h1M12 35h1M35 35h1" />
<path stroke="#f0bcbf" d="M28 19h1" />
<path stroke="#ef989b" d="M29 19h1" />
<path stroke="#f2cdcd" d="M20 20h1" />
<path stroke="#f1e0e0" d="M21 20h1" />
<path stroke="#fffefe" d="M26 20h1M13 43h1" />
<path stroke="#fff0f0" d="M27 20h1" />
<path stroke="rgba(254,213,213,0.8392156862745098)" d="M28 20h1" />
<path stroke="#d5979c" d="M29 20h1M19 21h1M28 21h1M21 22h1M27 22h1M10 31h1M37 31h1M10 32h1M34 32h1M37 32h1M10 33h2M14 33h1M37 33h2M10 34h1M38 34h1M11 35h1M13 35h1M36 35h2" />
<path stroke="#ffd7d7" d="M20 21h1M26 22h1" />
<path stroke="#fcd9d9" d="M21 21h1" />
<path stroke="#eeb8bc" d="M24 21h2" />
<path stroke="#fed4d4" d="M27 21h1M36 33h1" />
<path stroke="rgba(254,215,215,0.996078431372549)" d="M22 22h1" />
<path stroke="#848479" d="M21 23h2M25 23h1M22 24h1M24 24h2M21 25h1M25 25h1" />
<path stroke="#d89b9f" d="M23 23h1" />
<path stroke="rgba(215,154,158,0.9921568627450981)" d="M24 23h1" />
<path stroke="#b3b096" d="M21 24h1M22 26h1" />
<path stroke="#1c2122" d="M18 25h3M26 25h3M16 26h2M29 26h2M15 27h2M31 27h1" />
<path stroke="#343837" d="M18 26h3M26 26h3M17 27h4M26 27h4" />
<path stroke="#ede9d6" d="M21 26h1M25 26h1M21 27h2M25 27h1" />
<path stroke="rgba(216,177,177,0.050980392156862744)" d="M11 43h1" />
<path stroke="#0e0d0d" d="M12 43h1" />
<path stroke="#faf9fa" d="M17 43h1" />
<path stroke="#fdfcfc" d="M18 43h1M25 43h1" />
<path stroke="#fdfdfd" d="M19 43h6" />
<path stroke="#fbfbfb" d="M26 43h1" />
<path stroke="#fdfbfb" d="M30 43h1" />
<path stroke="#fffdfe" d="M31 43h1" />
<path stroke="#fdfafb" d="M33 43h1" />
<path stroke="#fafafa" d="M13 52h23" />
<path stroke="#282828" d="M15 55h1M17 55h2M26 55h1M28 55h2M15 56h1M21 56h1M26 56h1M16 57h1M18 57h1M21 57h1M26 57h1M21 58h1M26 58h1M16 59h1M21 59h1M26 59h1M16 60h1M26 60h1M16 61h1M20 61h1M26 61h1M16 62h1M20 62h1M26 62h1M16 63h1M20 63h1M26 63h1M16 64h1M20 64h1M26 64h1M16 65h1M20 65h1M30 65h1M16 66h1M16 67h1M19 67h1M26 67h1M28 67h1M19 68h1M15 69h1M19 69h1M28 69h1M15 70h1M19 70h1M28 70h1M15 71h1M19 71h1M28 71h1M28 72h1M18 73h1M14 74h1M18 74h1M14 75h1M18 75h1M18 76h1M13 77h1M18 77h1M30 77h1M13 78h1M18 78h1M29 78h1M32 78h1M12 79h1M18 79h1M27 79h1M29 79h1M32 79h1M12 80h1M17 80h2M27 80h1M29 80h1M32 80h1M16 81h2M27 81h1M29 81h1M32 81h2M16 82h2M27 82h1M29 82h1M33 82h1M16 83h2M27 83h3M33 83h1M16 84h1M28 84h2M31 84h3M29 85h1M31 85h1" />
<path stroke="#2d2d2d" d="M16 55h1M16 56h3M29 56h1M17 57h1M29 57h1M19 58h1M29 58h1M17 59h1M19 59h1M17 60h2M21 60h1M28 60h2M17 61h2M28 61h2M17 62h2M28 62h2M15 63h1M17 63h2M27 63h1M29 63h1M17 64h2M27 64h1M29 64h1M17 65h2M27 65h1M29 65h1M17 66h2M27 66h1M29 66h2M17 67h1M27 67h1M29 67h2M16 68h2M27 68h1M29 68h2M16 69h2M27 69h1M30 69h1M16 70h2M27 70h1M30 70h1M16 71h2M27 71h1M30 71h1M15 72h3M27 72h1M30 72h2M14 73h3M27 73h2M30 73h2M15 74h2M27 74h2M30 74h2M15 75h2M27 75h2M30 75h2M13 76h4M27 76h2M30 76h3M14 77h3M27 77h2M31 77h2M14 78h3M27 78h2M31 78h1M13 79h3M28 79h1M31 79h1M13 80h3M28 80h1M31 80h1M12 81h3M28 81h1M31 81h1M12 82h3M28 82h1M31 82h2M12 83h3M31 83h2M14 84h1" />
<path stroke="#1c1f20" d="M27 58h1M27 61h1M27 62h1" />
<path stroke="#212728" d="M28 63h1M28 64h1M18 69h1M29 69h1M18 70h1M29 70h1M18 71h1M29 71h1M30 78h1M30 79h1" />
<path stroke="#171c1d" d="M18 81h1M18 82h1M18 83h1M17 84h2M16 85h2" />
<path stroke="#241916" d="M10 85h3M10 86h3M33 86h1M10 87h3M27 87h1M32 87h3M13 88h2M18 88h1M26 88h2M32 88h3M11 89h4M16 89h4M26 89h9M13 90h1M19 90h1M26 90h2M33 90h1M13 91h2M19 91h1M27 91h4M32 91h1M14 92h6M28 92h3M18 93h1" />
<path stroke="#130c0a" d="M13 86h2M26 86h1M14 87h5M26 87h1M10 88h1M15 88h3M19 88h1M10 89h1M10 90h2M34 90h1M10 91h3M26 91h1M33 91h2M11 92h3M26 92h2M31 92h3M13 93h5M27 93h6" />
<path stroke="#1b120f" d="M13 87h1M28 87h4M11 88h2M28 88h4M12 90h1" />
<path stroke="#291d1a" d="M15 89h1" />
<path stroke="#271b18" d="M14 90h1M15 91h3" />
<path stroke="#2d201c" d="M15 90h1" />
<path stroke="#332521" d="M16 90h1" />
<path stroke="#9b786f" d="M17 90h1M29 90h1" />
<path stroke="#543d38" d="M18 90h1" />
<path stroke="#57403a" d="M28 90h1M30 90h1" />
<path stroke="#412f2b" d="M31 90h1" />
<path stroke="#261a17" d="M32 90h1" />
<path stroke="#251a17" d="M18 91h1M31 91h1" />
</svg>