<svg xmlns="http://www.w3.org/2000/svg" viewBox="0 -0.5 45 100" shape-rendering="crispEdges">
<metadata>Made with Pixels to Svg https://codepen.io/shshaw/pen/XbxvNj</metadata>
<path stroke="#c78e3e" d="M20 6h7M17 7h12M15 8h3M19 8h11M14 9h3M19 9h1M21 9h6M28 9h3M13 10h3M17 10h2M21 10h4M26 10h2M30 10h2M13 11h2M22 11h3M28 11h1M30 11h2M13 12h1M16 12h1M22 12h3M31 12h2M12 13h1M15 13h2M21 13h2M24 13h1M31 13h2M12 14h1M14 14h2M20 14h3M24 14h1M26 14h1M30 14h1M32 14h1M11 15h2M14 15h1M20 15h3M26 15h2M32 15h2M11 16h1M13 16h2M18 16h4M24 16h1M26 16h4M32 16h2M10 17h1M12 17h2M15 17h1M18 17h1M28 17h3M33 17h1M12 18h4M17 18h1M23 18h2M30 18h1M33 18h2M12 19h4M17 19h1M23 19h1M30 19h1M32 19h2M12 20h1M16 20h1M30 20h3M16 21h1M30 21h1M30 22h1" />
<path stroke="#e0ac65" d="M18 8h1M17 9h2M20 9h1M27 9h1M16 10h1M19 10h2M25 10h1M28 10h2M16 11h6M25 11h3M29 11h1M15 12h1M17 12h1M19 12h3M25 12h6M13 13h2M18 13h1M20 13h1M25 13h3M29 13h2M13 14h1M16 14h2M19 14h1M25 14h1M27 14h1M29 14h1M31 14h1M13 15h1M15 15h5M24 15h2M28 15h4M12 16h1M15 16h3M25 16h1M30 16h2M14 17h1M16 17h2M24 17h2M31 17h2M16 18h1M31 18h2M16 19h1M31 19h1" />
<path stroke="#f9c885" d="M15 11h1M14 12h1M18 12h1M17 13h1M19 13h1M28 13h1M18 14h1M28 14h1" />
<path stroke="#ffffff" d="M23 13h1M23 14h1M23 15h1M22 16h2M22 17h2M21 18h2M25 18h1M21 19h2M24 19h2M18 20h1M21 20h5M28 20h1M20 21h7M19 22h2M22 22h5M20 23h2M24 23h4M21 24h4M26 24h1M22 25h2M8 33h1M8 34h1M10 34h1M2 35h5M8 35h1M12 35h13M2 36h6M11 36h14M2 37h23M2 38h9M12 38h13M2 39h23M2 40h23M2 41h9M15 41h10M2 42h8M12 42h1M16 42h9M2 43h7M11 43h14M2 44h7M11 44h14M2 45h6M11 45h14M2 46h6M15 46h10M2 47h6M16 47h9M2 48h6M10 48h4M17 48h8M2 49h6M10 49h5M17 49h8M2 50h6M10 50h5M17 50h8M2 51h6M10 51h5M17 51h8M2 52h6M11 52h4M17 52h8M29 52h2M2 53h7M16 53h9M2 54h8M15 54h10M2 55h23M2 56h23M2 57h23" />
<path stroke="#000000" d="M19 17h3M26 17h2M18 18h1M28 18h2M22 28h1M21 29h3M21 30h3M21 31h2M21 32h3M21 33h3M4 34h2M22 34h1M26 52h3M26 53h3M29 54h1M29 55h2M30 56h1M30 57h1M30 58h1M20 59h1M30 59h1M13 60h1M17 60h1M20 60h1M23 60h1M30 60h1M13 61h1M20 61h1M23 61h1M30 61h1M13 62h1M20 62h1M23 62h1M30 62h1M13 63h1M19 63h1M23 63h1M30 63h1M19 64h1M23 64h1M30 64h1M12 65h1M19 65h1M30 65h1M12 66h1M19 66h1M12 67h1M19 67h1M31 67h1M12 68h1M19 68h1M31 68h1M12 69h1M19 69h1M24 69h1M31 69h1M12 70h1M19 70h1M24 70h1M31 70h1M12 71h1M19 71h1M24 71h1M31 71h1M12 72h1M19 72h1M24 72h1M31 72h1M11 73h2M19 73h1M24 73h1M31 73h1M11 74h1M13 74h1M19 74h1M24 74h1M31 74h1M11 75h1M19 75h1M24 75h1M11 76h1M19 76h1M24 76h1M11 77h1M19 77h1M24 77h1M11 78h1M19 78h1M24 78h1M11 79h1M19 79h1M24 79h1M32 79h1M10 80h1M19 80h1M24 80h1M32 80h1M19 81h1M24 81h1M19 82h1M24 82h1M33 82h1M10 83h1M19 83h1M24 83h1M33 83h1M9 84h2M19 84h1M24 84h1M33 84h1M9 85h1M19 85h1M24 85h1M33 85h1M9 86h1M14 86h1M19 86h1M24 86h1M33 86h1M19 87h1M24 87h1M30 87h1M9 88h1M19 88h1M24 88h1M34 88h1M9 89h1M18 89h2M24 89h2M34 89h1M12 90h1M19 90h1M24 90h1M34 90h1M9 91h1M19 91h1M24 91h1M9 92h2M24 92h1M34 92h1M10 93h2M24 93h2M33 93h1M11 94h8M25 94h9" />
<path stroke="#3f2724" d="M19 18h2M26 18h2M20 19h1M27 19h1" />
<path stroke="#beabc9" d="M18 19h1M28 19h2" />
<path stroke="#693c38" d="M19 19h1M26 19h1M20 20h1M27 20h1" />
<path stroke="#dc9a96" d="M14 20h1M16 22h1" />
<path stroke="#efbfba" d="M15 20h1M17 20h1" />
<path stroke="#8e5b56" d="M19 20h1M26 20h1" />
<path stroke="#cd8f96" d="M29 20h1M29 21h1M29 22h1" />
<path stroke="#f2c2c2" d="M15 21h1M17 21h1" />
<path stroke="#ef989b" d="M18 21h1M28 21h1" />
<path stroke="#ffd7d7" d="M19 21h1M27 21h1M18 22h1M28 22h1" />
<path stroke="#df9ca4" d="M15 22h1M17 22h1M17 23h1M23 23h1M29 23h1M18 24h1M27 24h1M20 25h1M26 25h1M22 26h3M10 32h1M10 36h1" />
<path stroke="#f4c5c9" d="M21 22h1M22 23h1M9 36h1" />
<path stroke="#faeff0" d="M27 22h1M18 23h2M19 24h2M25 24h1M21 25h1M24 25h2M7 33h1M9 33h1M7 34h1M9 34h1M9 35h1" />
<path stroke="#b87980" d="M28 23h1" />
<path stroke="#c9868d" d="M19 25h1M19 26h3M9 32h1M8 36h1M30 50h1M31 51h1M29 53h2M30 54h1" />
<path stroke="#8b8a7f" d="M19 27h6M16 28h6M23 28h4M14 29h2M19 29h2M24 29h1M27 29h1M13 30h1M19 30h1M24 30h1M29 30h1M12 31h1M12 32h1M30 32h1M12 33h1M30 33h1M31 34h1M28 37h1M32 37h1M28 38h1M32 38h1M28 39h1M28 40h1M31 40h3M29 41h1M34 41h1M29 42h1M34 42h1M29 43h1M34 43h1M29 44h6M29 45h2M29 46h1M29 47h1M29 48h1M29 49h1M29 50h1M28 51h1" />
<path stroke="#c5c0aa" d="M16 29h2M25 29h2M14 30h2M20 30h1M28 30h1M13 31h2M28 31h2M13 32h1M13 33h1M15 33h1M27 35h1M31 35h1M27 36h1M31 36h1M27 37h1M32 39h1M28 41h1M30 41h1M28 42h1M28 43h1M28 44h1M28 45h1M28 46h1M28 47h1M28 48h1" />
<path stroke="#eeead7" d="M18 29h1M16 30h3M25 30h3M15 31h6M23 31h5M14 32h7M24 32h6M14 33h1M16 33h5M24 33h6M26 34h5M26 35h1M28 35h3M26 36h1M28 36h3M26 37h1M29 37h3M26 38h2M29 38h3M26 39h2M29 39h3M26 40h2M29 40h2M26 41h2M31 41h3M26 42h2M30 42h4M26 43h2M30 43h4M26 44h2M26 45h2M26 46h2M26 47h2M26 48h2M26 49h3M26 50h3M26 51h2" />
<path stroke="#ffd1d7" d="M8 32h1M10 33h2M6 34h1M11 34h1M7 35h1M10 35h2M33 45h1M33 46h1M33 47h1M32 48h1M32 49h1M32 50h1M29 51h2M31 52h1M31 53h1M31 54h1" />
<path stroke="#010101" d="M1 34h3M12 34h10M23 34h3M1 35h1M25 35h1M1 36h1M25 36h1M1 37h1M25 37h1M1 38h1M25 38h1M1 39h1M25 39h1M1 40h1M25 40h1M1 41h1M11 41h4M25 41h1M1 42h1M10 42h2M13 42h3M25 42h1M1 43h1M9 43h2M25 43h1M1 44h1M9 44h2M25 44h1M1 45h1M8 45h3M25 45h1M1 46h1M8 46h7M25 46h1M1 47h1M8 47h8M25 47h1M1 48h1M8 48h2M14 48h3M25 48h1M1 49h1M8 49h2M15 49h2M25 49h1M1 50h1M8 50h2M15 50h2M25 50h1M1 51h1M8 51h2M15 51h2M25 51h1M1 52h1M8 52h3M15 52h2M25 52h1M1 53h1M9 53h7M25 53h1M1 54h1M10 54h5M25 54h1M1 55h1M25 55h1M1 56h1M25 56h1M1 57h1M25 57h1M1 58h1M25 58h1M1 59h19M21 59h5" />
<path stroke="#fefeff" d="M11 38h1" />
<path stroke="#f5c8ca" d="M31 45h2" />
<path stroke="#fff7f7" d="M30 46h3M30 47h3M30 48h2M30 49h2M31 50h1" />
<path stroke="#272a2a" d="M26 54h3M28 55h1M29 56h1M29 57h1M29 58h1M29 59h1M14 60h3M18 60h2M24 60h1M29 60h1M14 61h2M18 61h2M24 61h1M29 61h1M14 62h2M18 62h2M24 62h1M29 62h1M14 63h1M18 63h1M24 63h2M29 63h1M13 64h2M18 64h1M24 64h2M29 64h1M13 65h2M24 65h2M29 65h1M13 66h1M18 66h1M24 66h2M30 66h1M13 67h1M18 67h1M24 67h2M30 67h1M13 68h1M18 68h1M24 68h2M30 68h1M13 69h1M18 69h1M25 69h1M30 69h1M13 70h1M18 70h1M25 70h1M30 70h1M13 71h1M18 71h1M25 71h1M30 71h1M13 72h1M18 72h1M25 72h1M30 72h1M13 73h1M18 73h1M25 73h1M30 73h1M12 74h1M18 74h1M25 74h1M30 74h1M12 75h2M18 75h1M25 75h1M30 75h2M12 76h1M18 76h1M25 76h1M30 76h2M12 77h1M18 77h1M30 77h2M12 78h1M18 78h1M31 78h1M12 79h1M18 79h1M31 79h1M11 80h1M18 80h1M25 80h1M31 80h1M10 81h2M18 81h1M25 81h1M31 81h2M10 82h2M18 82h1M25 82h1M31 82h2M11 83h5M18 83h1M25 83h1M27 83h6M18 84h1M25 84h1M28 84h5M10 85h2M14 85h5M25 85h2M32 85h1M10 86h4M13 87h1" />
<path stroke="#343837" d="M26 55h2M26 56h3M26 57h3M26 58h3M26 59h3M25 60h4M16 61h2M25 61h4M16 62h2M25 62h4M15 63h3M26 63h3M15 64h3M26 64h3M15 65h4M26 65h3M14 66h4M26 66h4M14 67h4M26 67h4M14 68h4M26 68h4M14 69h4M26 69h4M14 70h4M26 70h4M14 71h4M26 71h4M14 72h4M26 72h4M14 73h4M26 73h4M14 74h4M26 74h4M14 75h4M26 75h4M13 76h5M26 76h4M13 77h5M25 77h5M13 78h5M25 78h6M13 79h5M25 79h6M12 80h6M26 80h5M12 81h6M26 81h5M12 82h6M26 82h5M16 83h2M26 83h1M11 84h7M26 84h2M12 85h2M27 85h5M30 86h3" />
<path stroke="#fafafa" d="M2 58h23" />
<path stroke="#a32329" d="M15 86h4M25 86h5M9 87h4M31 87h3M14 88h1M18 88h1M25 88h1M28 88h1M13 89h5M26 89h4M9 90h1M18 90h1M25 90h1M30 90h2M10 91h1M33 91h2M11 92h9M25 92h9M18 93h1" />
<path stroke="#868080" d="M14 87h1" />
<path stroke="#a5a0a0" d="M15 87h4M25 87h5M10 88h2M15 88h3M33 88h1M10 89h1M33 89h1M10 90h2M33 90h1" />
<path stroke="#e2e2e2" d="M12 88h2M26 88h2M29 88h4M11 89h2M30 89h3M13 90h5M26 90h4M32 90h1M11 91h8M25 91h8M12 93h6M26 93h7" />
</svg>