<svg xmlns="http://www.w3.org/2000/svg" viewBox="0 -0.5 45 100" shape-rendering="crispEdges">
<metadata>Made with Pixels to Svg https://codepen.io/shshaw/pen/XbxvNj</metadata>
<path stroke="#131d1b" d="M18 20h9M16 21h2M19 21h10M15 22h2M18 22h9M28 22h2M14 23h2M18 23h9M29 23h2M13 24h3M21 24h7M30 24h2M13 25h1M20 25h2M23 25h5M30 25h2M13 26h1M19 26h2M23 26h3M27 26h1M31 26h1M12 27h1M18 27h2M22 27h1M24 27h2M28 27h1M31 27h2M12 28h1M20 28h2M25 28h2M29 28h1M31 28h2M11 29h2M17 29h1M20 29h3M25 29h1M27 29h1M32 29h1M11 30h1M20 30h3M25 30h1M28 30h3M33 30h1M11 31h1M19 31h2M22 31h1M25 31h1M29 31h2M33 31h1M11 32h1M19 32h1M22 32h1M25 32h1M30 32h1M33 32h1M11 33h1M18 33h2M23 33h1M25 33h1M30 33h1M33 33h1M11 34h1M18 34h2M23 34h1M25 34h1M30 34h1M33 34h1M11 35h2M18 35h1M25 35h1M30 35h1M33 35h1M11 36h2M18 36h1M24 36h1M26 36h1M30 36h1M33 36h1M11 37h3M18 37h1M25 37h2M30 37h4M11 38h3M18 38h1M27 38h1M30 38h4M12 39h4M18 39h1M29 39h3M33 39h1M12 40h1M14 40h2M17 40h3M28 40h4M33 40h1M12 41h1M15 41h5M21 41h1M26 41h5M32 41h1M13 42h1M16 42h1M18 42h1M20 42h1M26 42h1M28 42h1M10 72h1M10 73h1M10 74h1M10 75h1M36 75h1M9 76h2M36 76h1M9 77h2M36 77h2M9 78h2M36 78h2M9 79h2M36 79h3M9 80h2M9 81h2M36 81h2M9 82h1M37 82h3M36 83h4M9 84h2M36 84h5M9 85h3M17 85h1M30 85h4M9 86h2M18 86h1M30 86h2M9 87h1M19 87h1M30 87h1M19 88h1" />
<path stroke="#323232" d="M18 21h1M17 22h1M27 22h1M16 23h2M27 23h2M16 24h5M28 24h2M14 25h6M22 25h1M28 25h2M14 26h5M21 26h2M26 26h1M28 26h3M13 27h5M20 27h2M23 27h1M26 27h2M29 27h2M13 28h1M15 28h5M22 28h3M27 28h2M30 28h1M14 29h3M18 29h2M23 29h2M28 29h4M12 30h1M14 30h1M16 30h4M23 30h2M31 30h2M12 31h1M14 31h1M16 31h3M23 31h1M31 31h2M12 32h1M14 32h3M23 32h2M31 32h2M12 33h6M24 33h1M31 33h2M12 34h6M24 34h1M31 34h2M13 35h5M24 35h1M31 35h2M13 36h5M25 36h1M31 36h2M14 37h4M14 38h4M16 39h2M16 40h1M36 80h3M38 81h1M10 82h1M36 82h1M9 83h2M12 85h5M34 85h7M11 86h7M32 86h9M10 87h9M31 87h10M9 88h10M31 88h10M10 89h9M31 89h10M10 90h8M31 90h9M11 91h6M33 91h5" />
<path stroke="#4f4f4f" d="M14 28h1M13 29h1M13 30h1M15 30h1M13 31h1M15 31h1M24 31h1M13 32h1M17 32h2" />
<path stroke="#f5c8ca" d="M26 29h1M21 31h1M27 40h1M22 41h4M19 58h1M28 58h2M19 59h2M23 59h1M22 60h1M28 60h1" />
<path stroke="#ffffff" d="M26 30h1M26 31h2M26 32h1M22 33h1M26 33h1M22 34h1M26 34h1M29 34h1M26 35h1M29 35h1M21 36h3M27 36h1M20 37h4M27 37h2M19 38h7M28 38h1M21 39h2M26 39h2M23 40h3M20 58h3M26 58h2M21 59h2M26 59h2M12 60h8M23 60h3M29 60h6M12 61h23M12 62h23M12 63h23M12 64h23M12 65h6M29 65h6M12 66h6M29 66h6M12 67h6M19 67h7M29 67h6M12 68h14M29 68h6M12 69h13M27 69h8M12 70h12M27 70h8M12 71h11M26 71h9M12 72h11M26 72h9M12 73h10M25 73h10M12 74h10M24 74h11M12 75h10M24 75h11M12 76h9M23 76h12M12 77h9M23 77h12M12 78h9M23 78h12M12 79h9M23 79h12M12 80h9M23 80h12M12 81h23M12 82h23" />
<path stroke="#ffd7d7" d="M27 30h1M28 31h1M28 36h1M29 37h1" />
<path stroke="#421e28" d="M20 32h2M28 32h2" />
<path stroke="#662e3e" d="M27 32h1M29 33h1" />
<path stroke="#6f461a" d="M20 33h1M28 33h1" />
<path stroke="#ad6c1e" d="M21 33h1M27 33h1" />
<path stroke="#e99633" d="M20 34h1" />
<path stroke="#ffeba4" d="M21 34h1M28 34h1M20 35h1M27 35h1" />
<path stroke="#e27c04" d="M27 34h1" />
<path stroke="#fff3c2" d="M19 35h1" />
<path stroke="#fffcf0" d="M21 35h2M28 35h1" />
<path stroke="#ffe5e8" d="M23 35h1M20 36h1M19 37h1M24 37h1M26 38h1M29 38h1M20 39h1M24 39h2M28 39h1M21 40h2M26 40h1M20 57h3M28 57h1M23 58h1M25 58h1M25 59h1M28 59h2M27 60h1" />
<path stroke="#ef989b" d="M19 36h1M29 36h1" />
<path stroke="#d68a91" d="M19 39h1M26 57h2M20 60h2M26 60h1" />
<path stroke="#f3d1d4" d="M23 39h1" />
<path stroke="#301e21" d="M20 40h1M20 41h1M19 42h1M16 43h1M19 43h2M22 43h1M26 43h1M15 44h1M20 44h1M24 44h1M26 44h1M15 45h1M20 45h1M26 45h1M15 46h1M20 46h1M25 46h1M15 47h2M20 47h2M24 47h2M14 48h2M21 48h1M24 48h1M14 49h2M20 49h2M24 49h1M14 50h1M17 50h1M21 50h1M24 50h1M14 51h1M17 51h1M21 51h1M13 52h2M17 52h1M21 52h3M13 53h1M17 53h1M21 53h3M12 54h2M22 54h2M12 55h2M19 55h1M22 55h2M25 55h3M12 56h1M18 56h1M22 56h2M12 57h1M18 57h1M12 58h1M16 58h2" />
<path stroke="#3d2a2d" d="M17 42h1M27 42h1M17 43h2M27 43h2M16 44h4M27 44h2M16 45h4M27 45h2M16 46h4M26 46h3M17 47h3M26 47h2M16 48h5M25 48h3M16 49h4M25 49h3M15 50h2M18 50h3M25 50h3M15 51h2M18 51h3M24 51h3M15 52h2M18 52h3M24 52h3M14 53h3M18 53h3M24 53h3M14 54h3M18 54h4M24 54h3M14 55h3M18 55h1M20 55h2M24 55h1M13 56h4M19 56h3M24 56h4M13 57h4M19 57h1M23 57h3M13 58h3M24 58h1" />
<path stroke="#c0b1bf" d="M21 42h3M25 42h1M21 43h1M23 43h1M25 43h1M21 44h1" />
<path stroke="#a88ea6" d="M24 42h1M24 43h1M25 44h1" />
<path stroke="#231417" d="M29 42h1M29 43h1M22 44h2M29 44h1M21 45h5M29 45h1M21 46h4M29 46h1M22 47h2M28 47h2M22 48h2M28 48h2M22 49h2M28 49h1M22 50h2M28 50h1M22 51h2M27 51h2M27 52h2M27 53h1M17 54h1M27 54h2M17 55h1M28 55h2M17 56h1M28 56h2M17 57h1M29 57h1M18 58h1" />
<path stroke="#010101" d="M11 59h8M24 59h1M30 59h6M11 60h1M35 60h1M11 61h1M35 61h1M11 62h1M35 62h1M11 63h1M35 63h1M11 64h1M35 64h1M11 65h1M18 65h11M35 65h1M11 66h1M18 66h11M35 66h1M11 67h1M18 67h1M26 67h3M35 67h1M11 68h1M26 68h3M35 68h1M11 69h1M25 69h2M35 69h1M11 70h1M24 70h3M35 70h1M11 71h1M23 71h3M35 71h1M11 72h1M23 72h3M35 72h1M11 73h1M22 73h3M35 73h1M11 74h1M22 74h2M35 74h1M11 75h1M22 75h2M35 75h1M11 76h1M21 76h2M35 76h1M11 77h1M21 77h2M35 77h1M11 78h1M21 78h2M35 78h1M11 79h1M21 79h2M35 79h1M11 80h1M21 80h2M35 80h1M11 81h1M35 81h1M11 82h1M35 82h1M11 83h1M35 83h1M11 84h25M30 88h1" />
<path stroke="#fafafa" d="M12 83h23" />
<path stroke="#696969" d="M18 85h1" />
</svg>