<svg xmlns="http://www.w3.org/2000/svg" viewBox="0 -0.5 45 100" shape-rendering="crispEdges">
<metadata>Made with Pixels to Svg https://codepen.io/shshaw/pen/XbxvNj</metadata>
<path stroke="#a8985d" d="M25 12h9M23 13h8M32 13h3M21 14h12M34 14h2M21 15h2M24 15h10M35 15h2M20 16h2M23 16h2M26 16h4M31 16h3M35 16h3M19 17h2M22 17h2M28 17h1M32 17h3M36 17h2M19 18h2M22 18h2M25 18h1M29 18h2M33 18h3M37 18h2M18 19h2M21 19h1M25 19h1M27 19h1M29 19h3M33 19h3M38 19h1M18 20h2M21 20h1M24 20h1M27 20h2M31 20h1M33 20h1M35 20h1M38 20h1M18 21h1M21 21h1M24 21h3M32 21h2M38 21h1M18 22h1M21 22h1M23 22h1M33 22h1M38 22h1M18 23h1M21 23h1M23 23h1M36 23h1M38 23h1M18 24h1M21 24h2M34 24h1M36 24h1M38 24h1M18 25h1M21 25h1M34 25h1M36 25h1M38 25h1M18 26h1M21 26h1M34 26h1M36 26h1M38 26h1M18 27h1M21 27h1M34 27h1M36 27h1M38 27h1M18 28h1M21 28h1M34 28h1M36 28h1M38 28h1M18 29h1M21 29h1M34 29h1M36 29h3M18 30h1M21 30h1M34 30h1M36 30h1M38 30h2M18 31h1M20 31h2M34 31h3M17 32h3M21 32h1M34 32h2M17 33h2M21 33h1M34 33h2M20 34h2M34 34h1M21 35h2" />
<path stroke="#c7b679" d="M31 13h1M33 14h1M23 15h1M34 15h1M22 16h1M25 16h1M30 16h1M34 16h1M21 17h1M24 17h4M29 17h3M35 17h1M21 18h1M24 18h1M26 18h3M31 18h2M36 18h1M20 19h1M22 19h3M28 19h1M32 19h1M36 19h2M20 20h1M22 20h1M25 20h2M32 20h1M34 20h1M36 20h2M19 21h1M23 21h1M34 21h4M20 22h1M22 22h1M34 22h4M20 23h1M22 23h1M34 23h2M37 23h1M20 24h1M35 24h1M37 24h1M19 25h2M35 25h1M37 25h1M19 26h2M35 26h1M37 26h1M19 27h2M35 27h1M37 27h1M19 28h2M35 28h1M37 28h1M19 29h2M35 29h1M19 30h2M35 30h1M19 31h1M20 32h1M36 32h1M20 33h1" />
<path stroke="#e4d394" d="M26 19h1M23 20h1M20 21h1M22 21h1M19 22h1M19 23h1M19 24h1" />
<path stroke="#ffe5e8" d="M29 20h1M29 22h2M23 25h2M22 26h1M33 28h1M33 29h1M29 30h2M33 30h1M25 31h1M32 31h1M26 32h5M22 64h1M25 64h1M32 64h1M22 65h1M25 65h1M33 65h1M35 65h1M22 66h1M24 66h1M33 66h1M35 66h1M22 67h1M24 67h1M33 67h1M35 67h1M21 68h1M24 68h1M33 68h1M35 68h1M21 69h1M24 69h1M33 69h1M35 69h1M21 70h1M24 70h1M33 70h1M35 70h1M21 71h1M23 71h1M33 71h1M35 71h1M21 72h1M23 72h1M33 72h1M35 72h1M20 73h1M23 73h1M33 73h1M35 73h1M19 74h1M23 74h1M32 74h1M35 74h1M19 75h1M23 75h1M32 75h1M35 75h1M19 76h1M23 76h1M32 76h1M35 76h1M18 77h1M23 77h1M32 77h1M35 77h1M18 78h1M23 78h1M32 78h1M35 78h2M18 79h1M23 79h1M32 79h1M35 79h2M17 80h2M23 80h1M31 80h1M35 80h2M17 81h1M23 81h1M31 81h1M35 81h2M17 82h1M23 82h1M31 82h1M35 82h2M17 83h1M23 83h1M31 83h1M35 83h2M17 84h1M23 84h1M31 84h1M35 84h2M17 85h1M23 85h1M30 85h2M35 85h2M18 86h1M35 86h2M35 87h2M35 88h1" />
<path stroke="#ffd7d7" d="M30 20h1M27 21h1M31 21h1M24 22h1M32 22h1M32 26h1M33 27h1M24 29h1M24 30h1" />
<path stroke="#ffffff" d="M28 21h1M25 22h3M31 22h1M24 23h6M25 24h4M25 25h6M33 25h1M26 26h6M26 27h7M23 28h1M25 28h8M25 29h8M25 30h3M31 30h2M26 31h6M2 38h2M7 38h18M2 39h23M2 40h23M2 41h23M2 42h8M16 42h9M2 43h7M17 43h8M2 44h7M11 44h4M17 44h8M2 45h7M11 45h4M18 45h7M2 46h7M11 46h4M18 46h7M2 47h7M11 47h4M18 47h7M2 48h7M11 48h3M18 48h7M2 49h7M18 49h7M2 50h9M15 50h1M18 50h7M2 51h14M18 51h7M2 52h14M18 52h7M2 53h5M8 53h8M18 53h7M2 54h6M10 54h5M17 54h8M2 55h7M17 55h8M2 56h8M15 56h10M2 57h23M2 58h23M2 59h23M2 60h23M23 64h2M33 64h2M23 65h2M34 65h1M23 66h1M34 66h1M23 67h1M34 67h1M22 68h2M34 68h1M22 69h2M34 69h1M22 70h2M34 70h1M22 71h1M34 71h1M22 72h1M34 72h1M21 73h2M34 73h1M20 74h3M33 74h2M20 75h3M33 75h2M20 76h3M33 76h2M19 77h4M33 77h2M19 78h4M33 78h2M19 79h4M33 79h2M19 80h4M32 80h3M18 81h5M32 81h3M18 82h5M32 82h3M18 83h5M32 83h3M18 84h5M32 84h3M18 85h5M32 85h3M30 86h1M32 86h3M18 87h1M20 88h3M30 88h3M20 89h2M23 89h1" />
<path stroke="#57544a" d="M29 21h2M28 22h1M23 24h2M22 25h1" />
<path stroke="#421e28" d="M30 23h3M29 24h1M24 26h2" />
<path stroke="#000000" d="M33 23h1M23 26h1M22 27h1M10 42h6M9 43h8M9 44h2M15 44h2M9 45h2M15 45h3M9 46h2M15 46h3M9 47h2M15 47h3M9 48h2M14 48h4M9 49h9M11 50h4M16 50h2M16 51h2M16 52h2M16 53h2M9 54h1M15 54h2M9 55h8M10 56h5M25 59h1M25 61h1M36 61h2M26 62h2M30 62h5M37 62h1M20 63h1M36 63h2M18 88h2M24 88h1M37 88h1M19 89h1M22 89h1M24 89h1M29 89h1M37 89h1M24 90h1M29 90h1M33 90h1M37 90h1M24 91h1M37 91h1M16 92h1M24 92h1M36 92h2M16 93h1M24 93h1M29 93h1M36 93h2M16 94h2M24 94h1M29 94h1M31 94h1M35 94h2M18 95h6M31 95h5" />
<path stroke="#beabc9" d="M30 24h1M33 24h1M23 27h1" />
<path stroke="#7e2d1d" d="M31 24h1M24 27h1" />
<path stroke="#7c4034" d="M32 24h1" />
<path stroke="#986358" d="M31 25h1M24 28h1" />
<path stroke="#ad2a0e" d="M32 25h1M25 27h1" />
<path stroke="#ffbec7" d="M33 26h1M23 29h1M28 30h1" />
<path stroke="#bc7379" d="M22 28h1M22 29h1M5 35h2M4 36h1M8 36h1M8 37h1M4 38h1M6 38h1" />
<path stroke="#8b7d46" d="M22 30h1M22 31h2M22 32h1M24 32h1" />
<path stroke="#d5979c" d="M23 30h1M24 31h1M33 31h1M25 32h1M31 32h2M27 33h5M29 34h3M20 64h1M31 64h1M36 64h2M20 65h1M26 65h1M31 65h1M37 65h1M20 66h1M26 66h1M31 66h1M37 66h1M20 67h1M26 67h1M31 67h1M37 67h1M20 68h1M31 68h1M37 68h1M25 69h1M31 69h1M37 69h1M19 70h1M25 70h1M31 70h1M37 70h1M19 71h1M31 71h1M37 71h1M31 72h1M37 72h1M18 73h1M24 73h1M31 73h1M37 73h1M18 74h1M24 74h1M31 74h1M37 74h1M17 75h1M24 75h1M30 75h2M37 75h1M17 76h1M24 76h1M30 76h1M37 76h2M24 77h1M30 77h1M38 77h1M16 78h1M24 78h1M30 78h1M38 78h1M16 79h1M24 79h1M30 79h1M38 79h1M16 80h1M24 80h1M30 80h1M38 80h1M24 81h1M30 81h1M38 81h1M24 82h1M38 82h1M24 83h1M38 83h1M24 84h1M29 84h1M38 84h1M24 85h1M29 85h1M38 85h1M24 86h1M29 86h1M37 86h1M16 87h1M37 87h1" />
<path stroke="#893b3b" d="M23 32h1M33 32h1M26 33h1M32 33h1M22 34h1M24 34h1M35 34h1M23 35h1M32 35h1M37 35h1M23 36h2M32 36h1M38 36h1M39 37h1M39 38h1M28 39h1M38 39h2M28 40h1M38 40h1M40 40h1M31 41h1M40 41h1M31 42h1M39 42h1M31 43h1M39 43h1M41 44h1M36 47h2M36 48h1M41 48h2M36 49h1M39 49h1M26 50h2M35 50h1M34 53h2M41 53h2M41 54h1M39 55h1M41 55h1M35 56h2M36 57h2M39 57h1M26 59h8M36 60h2M26 61h10" />
<path stroke="#762e2e" d="M22 33h4M33 33h1M23 34h1M25 34h2M32 34h1M24 35h7M35 35h2M20 36h2M28 36h1M31 36h1M33 36h5M28 37h1M31 37h1M37 37h2M28 38h1M31 38h1M38 38h1M31 39h1M31 40h1M39 40h1M28 41h1M39 41h1M28 42h1M40 42h1M28 43h1M40 43h1M40 44h1M40 45h2M41 46h1M41 47h1M35 49h1M37 49h2M42 49h1M28 50h7M36 50h1M42 50h1M34 51h1M42 51h1M34 52h1M42 52h1M35 54h1M35 55h1M40 55h1M39 56h2M38 57h1M37 58h1M34 59h4" />
<path stroke="#a64e4e" d="M27 34h1M33 34h1M31 35h1M33 35h2M22 36h1M25 36h3M29 36h2M26 37h2M29 37h2M32 37h5M26 38h2M29 38h2M32 38h6M26 39h2M29 39h2M32 39h6M26 40h2M29 40h2M32 40h6M26 41h2M29 41h2M32 41h7M26 42h2M29 42h2M32 42h7M26 43h2M29 43h2M32 43h7M26 44h14M26 45h14M26 46h15M26 47h10M38 47h3M26 48h10M37 48h4M26 49h9M40 49h2M37 50h5M26 51h8M35 51h7M26 52h8M35 52h7M26 53h8M36 53h5M26 54h9M36 54h5M26 55h9M36 55h3M26 56h9M37 56h2M26 57h10M26 58h11M26 60h10" />
<path stroke="#a05157" d="M28 34h1" />
<path stroke="#fff8f9" d="M5 36h3" />
<path stroke="#010101" d="M1 37h3M9 37h17M1 38h1M25 38h1M1 39h1M25 39h1M1 40h1M25 40h1M1 41h1M25 41h1M1 42h1M25 42h1M1 43h1M25 43h1M1 44h1M25 44h1M1 45h1M25 45h1M1 46h1M25 46h1M1 47h1M25 47h1M1 48h1M25 48h1M1 49h1M25 49h1M1 50h1M25 50h1M1 51h1M25 51h1M1 52h1M25 52h1M1 53h1M25 53h1M1 54h1M25 54h1M1 55h1M25 55h1M1 56h1M25 56h1M1 57h1M25 57h1M1 58h1M25 58h1M1 59h1M1 60h1M25 60h1M1 61h1M1 62h25" />
<path stroke="#fdbac0" d="M4 37h1M7 37h1M5 38h1" />
<path stroke="#f5dfe1" d="M5 37h2" />
<path stroke="#fafafa" d="M2 61h23" />
<path stroke="#26292a" d="M35 62h2M21 63h6M31 63h5" />
<path stroke="#e9b4b8" d="M21 64h1M26 64h1M35 64h1M21 65h1M32 65h1M36 65h1M21 66h1M25 66h1M32 66h1M36 66h1M21 67h1M25 67h1M32 67h1M36 67h1M25 68h1M32 68h1M36 68h1M20 69h1M32 69h1M36 69h1M20 70h1M32 70h1M36 70h1M20 71h1M24 71h1M32 71h1M36 71h1M19 72h2M24 72h1M32 72h1M36 72h1M19 73h1M32 73h1M36 73h1M36 74h1M18 75h1M36 75h1M18 76h1M31 76h1M36 76h1M17 77h1M31 77h1M36 77h2M17 78h1M31 78h1M37 78h1M17 79h1M31 79h1M37 79h1M37 80h1M16 81h1M37 81h1M16 82h1M30 82h1M37 82h1M16 83h1M30 83h1M37 83h1M16 84h1M30 84h1M37 84h1M16 85h1M37 85h1M16 86h2M23 86h1M17 87h1" />
<path stroke="#c37d4e" d="M19 86h4M31 86h1M19 87h6M29 87h6M16 88h2M23 88h1M29 88h1M33 88h2M36 88h1M17 89h2M34 89h1M36 89h1M17 90h4M23 90h1M35 90h2M19 91h4M36 91h1M20 92h4M23 93h1" />
<path stroke="#7e4a27" d="M16 89h1M35 89h1M16 90h1M16 91h1M18 91h1M23 91h1M29 91h2M35 91h1M18 92h1M29 92h1M18 93h1" />
<path stroke="#c0c0c0" d="M21 90h2M30 90h3M31 91h1" />
<path stroke="#c57e4f" d="M17 91h1M32 91h3M17 92h1M19 92h1M30 92h6M19 93h4M31 93h4" />
<path stroke="#4e4650" d="M17 93h1M30 93h1M35 93h1M18 94h6M30 94h1M32 94h3" />
</svg>